<?xml version="1.0" encoding="UTF-8"?>
<svg xmlns="http://www.w3.org/2000/svg" xmlns:xlink="http://www.w3.org/1999/xlink" version="1.2" >
<font id="Bw Nista Geometric Thin">
<font-face  font-family="Bw Nista Geometric" units-per-em="1000" ascent="770" descent="-230" font-style="normal" font-weight="100" font-stretch="normal" cap-height="720" x-height="510" underline-position="-75" underline-thickness="50" />
<missing-glyph  horiz-adv-x="1274" d="M76 -10 C82 -10 87 -9 93 -3 L433 337 L433 13 C433 3 434 -10 453 -10 C459 -10 464 -9 470 -3 L809 337 L809 13 C809 3 810 -10 829 -10 C835 -10 840 -9 846 -3 L1214 369 C1219 373 1220 379 1220 383 C1220 393 1213 402 1203 402 C1197 402 1191 399 1187 394 L847 56 L847 380 C847 389 846 402 829 402 C823 402 817 400 812 394 L473 56 L473 383 C473 394 464 403 453 403 L123 403 L464 743 C470 748 472 754 472 760 C472 779 459 780 449 780 L79 780 C67 780 59 773 59 761 L59 760 C59 748 67 741 79 741 L406 741 L66 399 C62 394 59 390 59 383 C59 366 72 364 82 364 L406 364 L64 23 C60 19 59 13 59 8 C59 -2 66 -10 76 -10 L76 -10 Z " />
<glyph glyph-name="NULL" d="" />
<glyph glyph-name="&amp;#x0;" horiz-adv-x="268" d="" />
<glyph glyph-name="&amp;#xd;" unicode="&#xd;" horiz-adv-x="268" d="" />
<glyph glyph-name="space" unicode="&#x20;" horiz-adv-x="268" d="" />
<glyph glyph-name="exclam" unicode="&#x21;" horiz-adv-x="247" d="M109 174 L138 174 L147 770 L100 770 L109 174 Z M123 -10 C145 -10 159 4 159 24 C159 44 145 58 123 58 C101 58 87 44 87 24 C87 4 101 -10 123 -10 L123 -10 Z " />
<glyph glyph-name="quotedbl" unicode="&#x22;" horiz-adv-x="287" d="M72 590 L115 590 L115 770 L72 770 L72 590 Z M172 590 L215 590 L215 770 L172 770 L172 590 Z " />
<glyph glyph-name="numbersign" unicode="&#x23;" horiz-adv-x="698" d="M661 532 L665 571 L530 571 L550 770 L505 770 L485 571 L249 571 L269 770 L224 770 L203 571 L71 571 L67 532 L199 532 L171 263 L38 263 L34 224 L167 224 L143 0 L188 0 L212 224 L451 224 L427 0 L472 0 L495 224 L627 224 L632 263 L499 263 L526 532 L661 532 Z M454 264 L216 264 L245 532 L481 532 L454 264 Z " />
<glyph glyph-name="dollar" unicode="&#x24;" horiz-adv-x="643" d="M605 207 C605 367 474 398 346 420 L346 735 C456 725 530 646 536 530 L584 530 C578 672 484 769 346 779 L346 880 L303 880 L303 780 C159 773 63 693 63 575 C63 437 183 407 303 385 L303 35 C180 43 97 127 90 252 L42 252 C49 101 152 -2 303 -10 L303 -112 L346 -112 L346 -9 C503 -2 605 83 605 207 L605 207 Z M109 575 C109 667 186 729 303 736 L303 427 C199 446 109 474 109 575 L109 575 Z M346 35 L346 378 C457 357 559 327 559 207 C559 109 475 42 346 35 L346 35 Z " />
<glyph glyph-name="percent" unicode="&#x25;" horiz-adv-x="688" d="M173 410 C251 410 303 484 303 595 C303 706 251 780 173 780 C95 780 43 706 43 595 C43 484 95 410 173 410 L173 410 Z M68 0 L115 0 L619 770 L572 770 L68 0 Z M173 445 C120 445 85 505 85 595 C85 685 120 745 173 745 C226 745 261 685 261 595 C261 505 226 445 173 445 L173 445 Z M516 -10 C594 -10 646 64 646 175 C646 286 594 360 516 360 C438 360 386 286 386 175 C386 64 438 -10 516 -10 L516 -10 Z M516 25 C463 25 428 85 428 175 C428 265 463 325 516 325 C569 325 604 265 604 175 C604 85 569 25 516 25 L516 25 Z " />
<glyph glyph-name="ampersand" unicode="&#x26;" horiz-adv-x="776" d="M766 21 L603 165 C633 219 660 308 672 399 L628 399 C616 321 594 243 571 192 L317 416 C418 470 520 518 520 626 C520 718 442 780 326 780 C209 780 131 714 131 615 C131 565 177 491 248 425 C160 374 80 308 80 179 C80 66 165 -10 292 -10 C401 -10 514 45 579 130 L738 -11 L766 21 Z M175 615 C175 691 235 741 325 741 C416 741 476 695 476 626 C476 536 381 496 285 445 C218 507 175 574 175 615 L175 615 Z M292 29 C191 29 124 89 124 179 C124 288 197 347 281 395 L550 156 C491 80 390 29 292 29 L292 29 Z " />
<glyph glyph-name="quotesingle" unicode="&#x27;" horiz-adv-x="187" d="M72 590 L115 590 L115 770 L72 770 L72 590 Z " />
<glyph glyph-name="parenleft" unicode="&#x28;" horiz-adv-x="270" d="M204 -230 L249 -230 C155 -88 100 98 100 270 C100 442 155 628 249 770 L204 770 C110 624 54 438 54 270 C54 102 110 -84 204 -230 L204 -230 Z " />
<glyph glyph-name="parenright" unicode="&#x29;" horiz-adv-x="269" d="M66 -230 C160 -84 216 102 216 270 C216 438 160 624 66 770 L21 770 C115 628 170 442 170 270 C170 98 115 -88 21 -230 L66 -230 Z " />
<glyph glyph-name="asterisk" unicode="&#x2a;" horiz-adv-x="370" d="M317 660 L305 696 L202 662 L204 770 L166 770 L168 662 L65 696 L53 660 L157 628 L92 541 L123 519 L185 608 L247 519 L278 541 L213 628 L317 660 Z " />
<glyph glyph-name="plus" unicode="&#x2b;" horiz-adv-x="464" d="M412 270 L253 270 L253 432 L210 432 L210 270 L52 270 L52 234 L210 234 L210 72 L253 72 L253 234 L412 234 L412 270 Z " />
<glyph glyph-name="comma" unicode="&#x2c;" horiz-adv-x="189" d="M95 58 C73 58 58 44 58 24 C58 4 71 -10 90 -10 C94 -10 99 -10 103 -9 C101 -49 79 -88 45 -107 L50 -129 C100 -102 134 -48 134 6 C134 37 118 58 95 58 L95 58 Z " />
<glyph glyph-name="hyphen" unicode="&#x2d;" horiz-adv-x="386" d="M73 241 L313 241 L313 277 L73 277 L73 241 Z " />
<glyph glyph-name="period" unicode="&#x2e;" horiz-adv-x="218" d="M109 -10 C131 -10 145 4 145 24 C145 44 131 58 109 58 C87 58 73 44 73 24 C73 4 87 -10 109 -10 L109 -10 Z " />
<glyph glyph-name="slash" unicode="&#x2f;" horiz-adv-x="403" d="M78 -230 L370 770 L326 770 L34 -230 L78 -230 Z " />
<glyph glyph-name="zero" unicode="0" horiz-adv-x="648" d="M324 -10 C490 -10 588 136 588 385 C588 634 490 780 324 780 C158 780 60 634 60 385 C60 136 158 -10 324 -10 L324 -10 Z M324 34 C187 34 106 164 106 385 C106 606 187 736 324 736 C461 736 542 606 542 385 C542 164 461 34 324 34 L324 34 Z " />
<glyph glyph-name="one" unicode="1" horiz-adv-x="330" d="M194 770 C169 698 126 677 25 677 L25 640 L179 640 L179 0 L224 0 L224 770 L194 770 Z " />
<glyph glyph-name="two" unicode="2" horiz-adv-x="603" d="M107 42 L107 44 C378 194 536 375 536 558 C536 691 442 780 301 780 C161 780 64 680 57 531 L102 531 C108 654 187 736 301 736 C414 736 490 665 490 558 C490 382 327 204 48 50 L48 0 L556 0 L556 42 L107 42 Z " />
<glyph glyph-name="three" unicode="3" horiz-adv-x="605" d="M368 397 L368 399 C464 424 525 490 525 580 C525 700 433 780 295 780 C163 780 72 684 66 539 L109 539 C115 658 189 738 295 738 C405 738 479 674 479 577 C479 481 399 417 278 417 L264 417 L264 375 L289 375 C417 375 502 306 502 203 C502 100 419 32 295 32 C180 32 100 110 95 228 L52 228 C56 85 153 -10 295 -10 C447 -10 548 74 548 200 C548 300 479 373 368 397 L368 397 Z " />
<glyph glyph-name="four" unicode="4" horiz-adv-x="586" d="M550 253 L450 253 L450 770 L392 770 L25 258 L25 212 L405 212 L405 0 L450 0 L450 212 L550 212 L550 253 Z M404 721 L406 721 L406 253 L73 253 L73 255 L404 721 Z " />
<glyph glyph-name="five" unicode="5" horiz-adv-x="604" d="M318 512 C237 512 164 474 118 413 L116 414 L162 728 L501 728 L501 770 L119 770 L58 307 L103 307 C132 405 213 470 306 470 C430 470 513 383 513 252 C513 121 428 34 300 34 C191 34 111 101 99 202 L54 202 C66 75 165 -10 300 -10 C455 -10 559 95 559 252 C559 408 463 512 318 512 L318 512 Z " />
<glyph glyph-name="six" unicode="6" horiz-adv-x="633" d="M336 498 C221 498 142 452 109 371 L107 371 C109 601 194 736 335 736 C440 736 506 674 513 567 L558 567 C550 700 467 780 335 780 C163 780 61 625 61 363 C61 107 142 -10 337 -10 C477 -10 576 84 576 244 C576 404 487 498 336 498 L336 498 Z M324 34 C206 34 118 118 118 255 C118 380 195 454 324 454 C453 454 530 377 530 244 C530 112 453 34 324 34 L324 34 Z " />
<glyph glyph-name="seven" unicode="7" horiz-adv-x="538" d="M521 770 L15 770 L15 728 L478 728 L478 726 C305 548 202 279 202 0 L251 0 C251 279 352 547 521 724 L521 770 Z " />
<glyph glyph-name="eight" unicode="8" horiz-adv-x="628" d="M400 401 L400 403 C490 428 546 494 546 583 C546 701 453 780 314 780 C175 780 82 701 82 583 C82 495 138 429 227 403 L227 401 C122 376 57 302 57 203 C57 75 160 -10 314 -10 C468 -10 571 75 571 203 C571 303 505 376 400 401 L400 401 Z M128 580 C128 674 202 736 314 736 C426 736 500 674 500 580 C500 486 426 423 314 423 C202 423 128 486 128 580 L128 580 Z M314 34 C187 34 103 103 103 206 C103 310 187 379 314 379 C441 379 525 310 525 206 C525 103 441 34 314 34 L314 34 Z " />
<glyph glyph-name="nine" unicode="9" horiz-adv-x="635" d="M298 780 C157 780 59 691 59 537 C59 383 148 293 299 293 C414 293 493 337 526 414 L528 414 L528 407 C528 172 443 34 300 34 C189 34 119 104 111 225 L66 225 C75 78 162 -10 300 -10 C472 -10 574 145 574 407 C574 662 493 780 298 780 L298 780 Z M311 337 C182 337 105 411 105 537 C105 663 182 736 311 736 C429 736 517 648 517 526 C517 407 440 337 311 337 L311 337 Z " />
<glyph glyph-name="colon" unicode="&#x3a;" horiz-adv-x="218" d="M109 452 C131 452 145 466 145 486 C145 506 131 520 109 520 C87 520 73 506 73 486 C73 466 87 452 109 452 L109 452 Z M109 -10 C131 -10 145 4 145 24 C145 44 131 58 109 58 C87 58 73 44 73 24 C73 4 87 -10 109 -10 L109 -10 Z " />
<glyph glyph-name="semicolon" unicode="&#x3b;" horiz-adv-x="243" d="M123 452 C145 452 159 466 159 486 C159 506 145 520 123 520 C101 520 87 506 87 486 C87 466 101 452 123 452 L123 452 Z M124 58 C102 58 87 44 87 24 C87 4 100 -10 119 -10 C123 -10 128 -10 132 -9 C130 -49 108 -88 74 -107 L79 -129 C129 -102 163 -48 163 6 C163 37 147 58 124 58 L124 58 Z " />
<glyph glyph-name="less" unicode="&#x3c;" horiz-adv-x="480" d="M405 442 L45 271 L45 234 L405 64 L405 102 L78 253 L405 404 L405 442 Z " />
<glyph glyph-name="equal" unicode="&#x3d;" horiz-adv-x="510" d="M75 294 L435 294 L435 330 L75 330 L75 294 Z M75 174 L435 174 L435 210 L75 210 L75 174 Z " />
<glyph glyph-name="greater" unicode="&#x3e;" horiz-adv-x="480" d="M75 442 L75 404 L402 253 L75 102 L75 64 L435 234 L435 271 L75 442 Z " />
<glyph glyph-name="question" unicode="&#x3f;" horiz-adv-x="531" d="M218 174 L256 174 C256 268 316 323 375 377 C435 432 493 486 493 579 C493 699 403 779 267 779 C132 779 39 688 33 552 L77 552 C83 662 159 735 267 735 C375 735 447 673 447 580 C447 497 395 448 340 397 C280 342 218 286 218 180 L218 174 Z M237 -10 C259 -10 273 4 273 24 C273 44 259 58 237 58 C215 58 201 44 201 24 C201 4 215 -10 237 -10 L237 -10 Z " />
<glyph glyph-name="at" unicode="&#x40;" horiz-adv-x="1097" d="M747 490 L732 404 L730 404 C713 462 648 500 569 500 C417 500 315 385 315 213 C315 104 383 31 484 31 C565 31 644 69 681 127 L683 127 C683 71 728 33 796 33 C944 33 1043 161 1043 353 C1043 609 857 780 579 780 C261 780 49 556 49 220 C49 -56 241 -240 529 -240 C625 -240 743 -218 825 -184 L809 -147 C727 -180 615 -202 529 -202 C267 -202 93 -33 93 220 C93 533 287 742 579 742 C831 742 999 586 999 353 C999 184 919 71 799 71 C755 71 726 95 726 131 L790 490 L747 490 Z M504 68 C418 68 360 130 360 222 C360 366 446 462 574 462 C660 462 718 404 718 318 C718 305 716 284 713 265 L713 263 L713 265 L711 256 C687 143 605 68 504 68 L504 68 Z " />
<glyph glyph-name="A" unicode="A" horiz-adv-x="664" d="M603 0 L654 0 L360 770 L303 770 L10 0 L59 0 L139 214 L524 214 L603 0 Z M155 256 L331 729 L333 729 L508 256 L155 256 Z " />
<glyph glyph-name="B" unicode="B" horiz-adv-x="698" d="M476 400 L476 402 C556 428 605 491 605 575 C605 692 517 770 385 770 L106 770 L106 0 L416 0 C555 0 647 82 647 206 C647 307 581 380 476 400 L476 400 Z M388 728 C491 728 559 666 559 572 C559 479 491 417 388 417 L151 417 L151 728 L388 728 Z M419 42 L151 42 L151 375 L419 375 C528 375 601 309 601 209 C601 109 528 42 419 42 L419 42 Z " />
<glyph glyph-name="C" unicode="C" horiz-adv-x="765" d="M396 -10 C562 -10 692 99 720 263 L673 263 C648 126 537 34 396 34 C219 34 101 174 101 385 C101 596 219 736 396 736 C537 736 648 648 673 515 L720 515 C692 674 564 780 396 780 C191 780 55 622 55 385 C55 148 191 -10 396 -10 L396 -10 Z " />
<glyph glyph-name="D" unicode="D" horiz-adv-x="712" d="M106 0 L308 0 C517 0 657 154 657 385 C657 616 517 770 308 770 L106 770 L106 0 Z M151 42 L151 728 L313 728 C492 728 611 591 611 385 C611 179 492 42 313 42 L151 42 Z " />
<glyph glyph-name="E" unicode="E" horiz-adv-x="633" d="M151 42 L151 378 L534 378 L534 420 L151 420 L151 728 L570 728 L570 770 L106 770 L106 0 L582 0 L582 42 L151 42 Z " />
<glyph glyph-name="F" unicode="F" horiz-adv-x="591" d="M565 728 L565 770 L106 770 L106 0 L151 0 L151 373 L510 373 L510 415 L151 415 L151 728 L565 728 Z " />
<glyph glyph-name="G" unicode="G" horiz-adv-x="777" d="M374 391 L374 349 L674 349 C663 159 554 34 396 34 C219 34 101 174 101 385 C101 596 219 736 396 736 C534 736 643 650 668 520 L716 520 C688 676 560 780 396 780 C191 780 55 622 55 385 C55 148 191 -10 396 -10 C592 -10 722 143 722 372 L722 391 L374 391 Z " />
<glyph glyph-name="H" unicode="H" horiz-adv-x="741" d="M590 770 L590 413 L151 413 L151 770 L106 770 L106 0 L151 0 L151 371 L590 371 L590 0 L635 0 L635 770 L590 770 Z " />
<glyph glyph-name="I" unicode="I" horiz-adv-x="257" d="M106 0 L151 0 L151 770 L106 770 L106 0 Z " />
<glyph glyph-name="J" unicode="J" horiz-adv-x="552" d="M248 -10 C372 -10 454 82 454 221 L454 770 L409 770 L409 215 C409 106 344 34 247 34 C153 34 83 118 71 245 L28 245 C39 92 127 -10 248 -10 L248 -10 Z " />
<glyph glyph-name="K" unicode="K" horiz-adv-x="677" d="M106 0 L151 0 L151 770 L106 770 L106 0 Z M240 401 L648 770 L593 770 L179 398 L622 0 L682 0 L240 401 Z " />
<glyph glyph-name="L" unicode="L" horiz-adv-x="544" d="M151 42 L151 770 L106 770 L106 0 L524 0 L524 42 L151 42 Z " />
<glyph glyph-name="M" unicode="M" horiz-adv-x="946" d="M772 770 L470 54 L467 54 L174 770 L106 770 L106 0 L149 0 L149 713 L151 713 L442 0 L492 0 L793 713 L795 713 L795 0 L840 0 L840 770 L772 770 Z " />
<glyph glyph-name="N" unicode="N" horiz-adv-x="741" d="M592 770 L592 77 L590 77 L154 770 L106 770 L106 0 L151 0 L151 691 L153 691 L589 0 L635 0 L635 770 L592 770 Z " />
<glyph glyph-name="O" unicode="O" horiz-adv-x="798" d="M399 -10 C605 -10 743 148 743 385 C743 622 605 780 399 780 C193 780 55 622 55 385 C55 148 193 -10 399 -10 L399 -10 Z M399 34 C220 34 101 174 101 385 C101 596 220 736 399 736 C578 736 697 596 697 385 C697 174 578 34 399 34 L399 34 Z " />
<glyph glyph-name="P" unicode="P" horiz-adv-x="648" d="M375 770 L106 770 L106 0 L151 0 L151 319 L374 319 C518 319 614 409 614 545 C614 680 518 770 375 770 L375 770 Z M378 360 L151 360 L151 728 L379 728 C492 728 568 655 568 545 C568 434 492 360 378 360 L378 360 Z " />
<glyph glyph-name="Q" unicode="Q" horiz-adv-x="797" d="M743 385 C743 622 605 780 399 780 C193 780 55 622 55 385 C55 148 193 -10 399 -10 C460 -10 514 4 561 29 L640 -64 L669 -38 L595 50 C688 116 743 235 743 385 L743 385 Z M399 34 C220 34 101 174 101 385 C101 596 220 736 399 736 C578 736 697 596 697 385 C697 249 648 143 565 85 L481 184 L451 159 L531 64 C493 45 448 34 399 34 L399 34 Z " />
<glyph glyph-name="R" unicode="R" horiz-adv-x="692" d="M648 0 L452 348 C560 371 628 452 628 564 C628 688 530 770 383 770 L106 770 L106 0 L151 0 L151 341 L384 341 C391 341 397 341 404 342 L596 0 L648 0 Z M151 383 L151 728 L388 728 C504 728 582 661 582 561 C582 454 505 383 389 383 L151 383 Z " />
<glyph glyph-name="S" unicode="S" horiz-adv-x="660" d="M328 -10 C498 -10 611 77 611 207 C611 372 471 400 339 422 C223 441 115 464 115 575 C115 672 200 736 328 736 C451 736 536 654 542 530 L590 530 C584 680 479 780 328 780 C173 780 69 698 69 575 C69 432 198 405 323 383 C445 362 565 337 565 207 C565 103 470 34 328 34 C195 34 103 121 96 252 L48 252 C55 95 167 -10 328 -10 L328 -10 Z " />
<glyph glyph-name="T" unicode="T" horiz-adv-x="573" d="M556 770 L17 770 L17 728 L264 728 L264 0 L309 0 L309 728 L556 728 L556 770 Z " />
<glyph glyph-name="U" unicode="U" horiz-adv-x="724" d="M362 -10 C521 -10 627 101 627 267 L627 770 L584 770 L584 262 C584 125 495 34 362 34 C230 34 142 125 142 262 L142 770 L97 770 L97 267 C97 101 203 -10 362 -10 L362 -10 Z " />
<glyph glyph-name="V" unicode="V" horiz-adv-x="632" d="M569 770 L317 41 L315 41 L65 770 L14 770 L286 0 L347 0 L618 770 L569 770 Z " />
<glyph glyph-name="W" unicode="W" horiz-adv-x="989" d="M918 770 L721 44 L719 44 L524 770 L466 770 L269 44 L267 44 L72 770 L21 770 L238 0 L298 0 L492 724 L494 724 L690 0 L751 0 L967 770 L918 770 Z " />
<glyph glyph-name="X" unicode="X" horiz-adv-x="592" d="M16 0 L70 0 L294 356 L296 356 L520 0 L576 0 L324 396 L563 770 L510 770 L298 434 L296 434 L83 770 L29 770 L268 395 L16 0 Z " />
<glyph glyph-name="Y" unicode="Y" horiz-adv-x="641" d="M634 770 L582 770 L324 350 L322 350 L62 770 L7 770 L298 305 L298 0 L343 0 L343 304 L634 770 Z " />
<glyph glyph-name="Z" unicode="Z" horiz-adv-x="593" d="M81 42 L81 44 L552 724 L552 770 L51 770 L51 728 L498 728 L498 726 L27 46 L27 0 L559 0 L559 42 L81 42 Z " />
<glyph glyph-name="bracketleft" unicode="&#x5b;" horiz-adv-x="280" d="M244 729 L244 770 L105 770 L105 -230 L244 -230 L244 -189 L150 -189 L150 729 L244 729 Z " />
<glyph glyph-name="backslash" unicode="&#x5c;" horiz-adv-x="403" d="M325 -230 L369 -230 L77 770 L33 770 L325 -230 Z " />
<glyph glyph-name="bracketright" unicode="&#x5d;" horiz-adv-x="280" d="M175 770 L36 770 L36 729 L130 729 L130 -189 L36 -189 L36 -230 L175 -230 L175 770 Z " />
<glyph glyph-name="asciicircum" unicode="&#x5e;" horiz-adv-x="528" d="M281 770 L247 770 L44 403 L92 403 L263 712 L265 712 L436 403 L484 403 L281 770 Z " />
<glyph glyph-name="underscore" unicode="&#x5f;" horiz-adv-x="526" d="M43 -110 L483 -110 L483 -74 L43 -74 L43 -110 Z " />
<glyph glyph-name="grave" unicode="&#x60;" horiz-adv-x="213" d="M173 570 L82 730 L33 730 L137 570 L173 570 Z " />
<glyph glyph-name="a" unicode="a" horiz-adv-x="622" d="M485 510 L485 400 L483 400 C452 476 372 520 282 520 C145 520 53 414 53 255 C53 96 144 -10 281 -10 C372 -10 453 34 483 109 L485 109 L485 0 L528 0 L528 510 L485 510 Z M291 28 C175 28 97 119 97 255 C97 391 175 482 291 482 C407 482 485 391 485 255 C485 119 407 28 291 28 L291 28 Z " />
<glyph glyph-name="b" unicode="b" horiz-adv-x="622" d="M340 520 C250 520 170 476 139 400 L137 400 L137 770 L94 770 L94 0 L137 0 L137 109 L139 109 C169 34 250 -10 341 -10 C478 -10 569 96 569 255 C569 414 477 520 340 520 L340 520 Z M331 28 C215 28 137 119 137 255 C137 391 215 482 331 482 C447 482 525 391 525 255 C525 119 447 28 331 28 L331 28 Z " />
<glyph glyph-name="c" unicode="c" horiz-adv-x="555" d="M287 -10 C403 -10 493 58 513 161 L466 161 C450 81 378 28 287 28 C172 28 96 119 96 255 C96 391 172 481 287 481 C371 481 441 431 462 356 L508 356 C484 454 395 520 287 520 C146 520 52 414 52 255 C52 96 146 -10 287 -10 L287 -10 Z " />
<glyph glyph-name="d" unicode="d" horiz-adv-x="622" d="M485 770 L485 400 L483 400 C452 476 372 520 282 520 C145 520 53 414 53 255 C53 96 144 -10 281 -10 C372 -10 453 34 483 109 L485 109 L485 0 L528 0 L528 770 L485 770 Z M291 28 C175 28 97 119 97 255 C97 391 175 482 291 482 C407 482 485 391 485 255 C485 119 407 28 291 28 L291 28 Z " />
<glyph glyph-name="e" unicode="e" horiz-adv-x="577" d="M524 254 C524 414 430 520 288 520 C146 520 52 414 52 254 C52 96 146 -10 288 -10 C404 -10 498 63 523 173 L480 173 C458 86 381 28 288 28 C176 28 100 113 96 243 L524 243 L524 254 Z M288 481 C395 481 469 402 479 282 L97 282 C107 402 181 481 288 481 L288 481 Z " />
<glyph glyph-name="f" unicode="f" horiz-adv-x="361" d="M280 742 C311 742 347 735 372 725 L372 764 C350 774 315 780 286 780 C184 780 116 710 116 605 L116 510 L27 510 L27 474 L116 474 L116 0 L159 0 L159 474 L354 474 L354 510 L159 510 L159 609 C159 689 207 742 280 742 L280 742 Z " />
<glyph glyph-name="g" unicode="g" horiz-adv-x="622" d="M485 510 L485 400 L483 400 C452 476 372 520 282 520 C145 520 53 414 53 255 C53 96 144 -10 281 -10 C372 -10 453 34 483 109 L485 109 L485 -11 C485 -125 409 -201 294 -201 C190 -201 117 -135 111 -36 L70 -36 C74 -158 163 -240 294 -240 C434 -240 528 -146 528 -6 L528 510 L485 510 Z M291 28 C175 28 97 119 97 255 C97 391 175 482 291 482 C407 482 485 391 485 255 C485 119 407 28 291 28 L291 28 Z " />
<glyph glyph-name="h" unicode="h" horiz-adv-x="599" d="M323 520 C238 520 165 476 139 410 L137 410 L137 770 L94 770 L94 0 L137 0 L137 281 C137 401 208 481 314 481 C408 481 471 417 471 322 L471 0 L514 0 L514 317 C514 439 438 520 323 520 L323 520 Z " />
<glyph glyph-name="i" unicode="i" horiz-adv-x="239" d="M119 661 C139 661 152 673 152 692 C152 711 139 724 119 724 C100 724 87 711 87 692 C87 673 100 661 119 661 L119 661 Z M98 0 L141 0 L141 510 L98 510 L98 0 Z " />
<glyph glyph-name="j" unicode="j" horiz-adv-x="239" d="M119 661 C139 661 152 673 152 692 C152 711 139 724 119 724 C100 724 87 711 87 692 C87 673 100 661 119 661 L119 661 Z M98 -230 L141 -230 L141 510 L98 510 L98 -230 Z " />
<glyph glyph-name="k" unicode="k" horiz-adv-x="563" d="M94 0 L137 0 L137 770 L94 770 L94 0 Z M221 283 L520 510 L463 510 L159 281 L509 0 L567 0 L221 283 Z " />
<glyph glyph-name="l" unicode="l" horiz-adv-x="239" d="M98 0 L141 0 L141 770 L98 770 L98 0 Z " />
<glyph glyph-name="m" unicode="m" horiz-adv-x="936" d="M670 520 C587 520 515 472 485 398 L483 398 C459 473 397 520 313 520 C233 520 163 476 139 410 L137 410 L137 510 L94 510 L94 0 L137 0 L137 284 C137 402 203 481 303 481 C392 481 451 419 451 326 L451 0 L494 0 L494 284 C494 402 560 481 660 481 C749 481 808 419 808 326 L808 0 L851 0 L851 325 C851 442 779 520 670 520 L670 520 Z " />
<glyph glyph-name="n" unicode="n" horiz-adv-x="599" d="M323 520 C238 520 165 476 139 410 L137 410 L137 510 L94 510 L94 0 L137 0 L137 281 C137 401 208 481 314 481 C408 481 471 417 471 322 L471 0 L514 0 L514 317 C514 439 438 520 323 520 L323 520 Z " />
<glyph glyph-name="o" unicode="o" horiz-adv-x="580" d="M290 -10 C433 -10 528 96 528 255 C528 414 433 520 290 520 C147 520 52 414 52 255 C52 96 147 -10 290 -10 L290 -10 Z M290 28 C174 28 96 119 96 255 C96 391 174 482 290 482 C406 482 484 391 484 255 C484 119 406 28 290 28 L290 28 Z " />
<glyph glyph-name="p" unicode="p" horiz-adv-x="622" d="M341 520 C250 520 170 476 139 400 L137 400 L137 510 L94 510 L94 -230 L137 -230 L137 109 L139 109 C169 34 250 -10 340 -10 C477 -10 569 96 569 255 C569 414 478 520 341 520 L341 520 Z M331 28 C215 28 137 119 137 255 C137 391 215 482 331 482 C447 482 525 391 525 255 C525 119 447 28 331 28 L331 28 Z " />
<glyph glyph-name="q" unicode="q" horiz-adv-x="622" d="M485 510 L485 400 L483 400 C452 476 372 520 281 520 C144 520 53 414 53 255 C53 96 145 -10 282 -10 C372 -10 453 34 483 109 L485 109 L485 -230 L528 -230 L528 510 L485 510 Z M291 28 C175 28 97 119 97 255 C97 391 175 482 291 482 C407 482 485 391 485 255 C485 119 407 28 291 28 L291 28 Z " />
<glyph glyph-name="r" unicode="r" horiz-adv-x="409" d="M324 520 C245 520 171 472 139 401 L137 401 L137 510 L94 510 L94 0 L137 0 L137 267 C137 392 207 476 311 476 C341 476 375 471 396 464 L396 510 C378 516 349 520 324 520 L324 520 Z " />
<glyph glyph-name="s" unicode="s" horiz-adv-x="507" d="M253 -10 C377 -10 459 47 459 133 C459 246 355 267 261 285 C181 300 108 315 108 381 C108 441 166 481 253 481 C339 481 398 429 400 352 L444 352 C442 453 366 520 253 520 C140 520 64 465 64 382 C64 284 157 265 246 248 C332 232 415 215 415 133 C415 70 350 28 253 28 C156 28 91 82 89 162 L45 162 C47 59 130 -10 253 -10 L253 -10 Z " />
<glyph glyph-name="t" unicode="t" horiz-adv-x="363" d="M341 474 L341 510 L154 510 L154 660 L112 660 L112 510 L22 510 L22 474 L111 474 L111 130 C111 46 166 -10 248 -10 C280 -10 317 -3 341 8 L341 44 C319 34 287 28 261 28 C197 28 154 68 154 127 L154 474 L341 474 Z " />
<glyph glyph-name="u" unicode="u" horiz-adv-x="580" d="M290 -10 C413 -10 495 74 495 199 L495 510 L452 510 L452 204 C452 98 387 28 290 28 C193 28 128 98 128 204 L128 510 L85 510 L85 199 C85 74 167 -10 290 -10 L290 -10 Z " />
<glyph glyph-name="v" unicode="v" horiz-adv-x="526" d="M462 510 L264 43 L262 43 L66 510 L19 510 L237 0 L289 0 L507 510 L462 510 Z " />
<glyph glyph-name="w" unicode="w" horiz-adv-x="795" d="M727 510 L574 46 L572 46 L421 510 L376 510 L223 46 L221 46 L70 510 L23 510 L196 0 L248 0 L397 464 L399 464 L547 0 L599 0 L772 510 L727 510 Z " />
<glyph glyph-name="x" unicode="x" horiz-adv-x="490" d="M18 0 L69 0 L245 234 L247 234 L425 0 L473 0 L269 264 L457 510 L408 510 L245 294 L243 294 L79 510 L33 510 L221 264 L18 0 Z " />
<glyph glyph-name="y" unicode="y" horiz-adv-x="525" d="M461 510 L263 43 L261 43 L65 510 L18 510 L240 -6 L145 -230 L190 -230 L506 510 L461 510 Z " />
<glyph glyph-name="z" unicode="z" horiz-adv-x="462" d="M78 36 L78 38 L419 470 L419 510 L50 510 L50 473 L369 473 L369 471 L32 39 L32 0 L424 0 L424 36 L78 36 Z " />
<glyph glyph-name="braceleft" unicode="&#x7b;" horiz-adv-x="260" d="M149 366 L149 669 C149 704 171 727 203 727 L203 770 C144 770 104 728 104 666 L104 362 C104 319 77 291 37 291 L37 249 C77 249 104 221 104 178 L104 -126 C104 -188 144 -230 203 -230 L203 -187 C171 -187 149 -164 149 -129 L149 174 C149 218 129 251 95 269 L95 271 C129 289 149 322 149 366 L149 366 Z " />
<glyph glyph-name="bar" unicode="&#x7c;" horiz-adv-x="255" d="M105 -230 L150 -230 L150 870 L105 870 L105 -230 Z " />
<glyph glyph-name="braceright" unicode="&#x7d;" horiz-adv-x="260" d="M156 362 L156 666 C156 728 116 770 57 770 L57 727 C89 727 111 704 111 669 L111 366 C111 322 131 289 165 271 L165 269 C131 251 111 218 111 174 L111 -129 C111 -164 89 -187 57 -187 L57 -230 C116 -230 156 -188 156 -126 L156 178 C156 221 183 249 223 249 L223 291 C183 291 156 319 156 362 L156 362 Z " />
<glyph glyph-name="asciitilde" unicode="&#x7e;" horiz-adv-x="599" d="M75 190 L110 190 C114 238 141 267 184 267 C274 267 299 194 412 194 C483 194 524 237 524 310 L489 310 C485 262 458 233 415 233 C325 233 300 306 187 306 C116 306 75 263 75 190 L75 190 Z " />
<glyph glyph-name="uni00A0" unicode="&#xa0;" horiz-adv-x="268" d="" />
<glyph glyph-name="exclamdown" unicode="&#xa1;" horiz-adv-x="228" d="M115 452 C137 452 151 466 151 486 C151 506 137 520 115 520 C93 520 79 506 79 486 C79 466 93 452 115 452 L115 452 Z M91 -230 L138 -230 L129 345 L99 345 L91 -230 Z " />
<glyph glyph-name="cent" unicode="&#xa2;" horiz-adv-x="557" d="M513 270 L466 270 C451 197 390 146 310 138 L310 589 C384 581 443 533 462 465 L508 465 C486 556 407 619 310 628 L310 720 L267 720 L267 628 C137 619 52 515 52 364 C52 213 137 109 267 100 L267 0 L310 0 L310 100 C415 108 494 174 513 270 L513 270 Z M96 364 C96 492 163 579 267 589 L267 138 C163 148 96 236 96 364 L96 364 Z " />
<glyph glyph-name="sterling" unicode="&#xa3;" horiz-adv-x="624" d="M93 42 L93 44 C186 115 213 191 213 273 C213 295 209 317 203 339 L448 339 L448 381 L189 381 C167 443 137 506 137 569 C137 669 213 736 326 736 C438 736 517 654 524 531 L570 531 C563 680 466 780 326 780 C186 780 92 696 92 569 C92 505 121 442 143 381 L61 381 L61 339 L157 339 C163 317 167 295 167 273 C167 194 140 119 51 50 L51 0 L579 0 L579 42 L93 42 Z " />
<glyph glyph-name="currency" unicode="&#xa4;" horiz-adv-x="564" d="M476 337 C476 387 462 430 438 463 L499 525 L470 554 L409 494 C376 522 333 537 282 537 C231 537 187 521 154 494 L94 555 L66 525 L126 463 C101 430 88 387 88 337 C88 287 102 244 126 211 L65 149 L94 120 L154 180 C187 153 231 137 282 137 C333 137 377 153 410 180 L470 119 L498 149 L438 211 C463 244 476 287 476 337 L476 337 Z M282 175 C192 175 132 240 132 337 C132 434 192 499 282 499 C372 499 432 434 432 337 C432 240 372 175 282 175 L282 175 Z " />
<glyph glyph-name="yen" unicode="&#xa5;" horiz-adv-x="674" d="M650 770 L598 770 L340 350 L338 350 L78 770 L23 770 L312 308 L151 308 L151 267 L314 267 L314 208 L151 208 L151 167 L314 167 L314 0 L359 0 L359 167 L523 167 L523 208 L359 208 L359 267 L523 267 L523 308 L362 308 L650 770 Z " />
<glyph glyph-name="brokenbar" unicode="&#xa6;" horiz-adv-x="255" d="M105 420 L150 420 L150 870 L105 870 L105 420 Z M105 -230 L150 -230 L150 220 L105 220 L105 -230 Z " />
<glyph glyph-name="section" unicode="&#xa7;" horiz-adv-x="656" d="M527 107 C570 147 595 203 595 270 C595 408 490 500 333 500 C284 500 240 491 203 474 C151 497 118 541 118 587 C118 677 200 737 322 737 C441 737 524 660 530 545 L575 545 C569 686 468 780 322 780 C172 780 72 703 72 587 C72 530 105 477 158 448 C103 408 72 346 72 270 C72 132 176 40 333 40 C393 40 446 54 488 78 C525 53 549 9 549 -36 C549 -133 458 -197 322 -197 C194 -197 104 -116 97 6 L52 6 C59 -142 167 -240 322 -240 C486 -240 595 -158 595 -36 C595 21 568 75 527 107 L527 107 Z M118 270 C118 382 204 457 333 457 C463 457 549 382 549 270 C549 158 463 83 333 83 C204 83 118 158 118 270 L118 270 Z " />
<glyph glyph-name="dieresis" unicode="&#xa8;" horiz-adv-x="317" d="M91 623 C111 623 124 635 124 653 C124 672 111 685 91 685 C72 685 59 672 59 653 C59 635 72 623 91 623 L91 623 Z M225 623 C245 623 258 635 258 653 C258 672 245 685 225 685 C206 685 193 672 193 653 C193 635 206 623 225 623 L225 623 Z " />
<glyph glyph-name="copyright" unicode="&#xa9;" horiz-adv-x="868" d="M434 -10 C662 -10 814 148 814 386 C814 622 662 780 434 780 C206 780 54 622 54 386 C54 148 206 -10 434 -10 L434 -10 Z M434 30 C233 30 99 172 99 386 C99 599 233 741 434 741 C635 741 769 599 769 386 C769 172 635 30 434 30 L434 30 Z M437 196 C516 196 580 246 596 322 L554 322 C542 267 495 231 437 231 C363 231 313 293 313 387 C313 481 363 543 437 543 C491 543 537 509 551 457 L593 457 C575 530 513 579 437 579 C337 579 271 502 271 387 C271 272 337 196 437 196 L437 196 Z " />
<glyph glyph-name="ordfeminine" unicode="&#xaa;" horiz-adv-x="403" d="M328 505 C317 505 309 514 309 528 L309 690 C309 744 261 780 190 780 C120 780 72 741 70 683 L110 680 C111 722 143 750 190 750 C237 750 269 726 269 691 L269 664 C118 635 58 620 58 550 C58 503 95 472 151 472 C202 472 246 494 268 531 L269 531 L269 518 C269 490 287 472 313 472 C324 472 337 475 345 479 L345 509 C339 507 332 505 328 505 L328 505 Z M269 592 C269 547 228 503 160 503 C123 503 98 523 98 552 C98 607 165 614 269 635 L269 592 Z " />
<glyph glyph-name="guillemotleft" unicode="&#xab;" horiz-adv-x="445" d="M221 117 L101 260 L221 403 L173 403 L50 260 L173 117 L221 117 Z M371 117 L251 260 L371 403 L323 403 L200 260 L323 117 L371 117 Z " />
<glyph glyph-name="logicalnot" unicode="&#xac;" horiz-adv-x="520" d="M85 330 L85 294 L402 294 L402 175 L445 175 L445 330 L85 330 Z " />
<glyph glyph-name="uni00AD" unicode="&#xad;" horiz-adv-x="386" d="M73 241 L313 241 L313 277 L73 277 L73 241 Z " />
<glyph glyph-name="registered" unicode="&#xae;" horiz-adv-x="500" d="M250 780 C133 780 55 704 55 590 C55 476 133 400 250 400 C367 400 445 476 445 590 C445 704 367 780 250 780 L250 780 Z M250 429 C152 429 87 493 87 590 C87 687 152 751 250 751 C348 751 413 687 413 590 C413 493 348 429 250 429 L250 429 Z M330 629 C330 664 302 687 260 687 L174 687 L174 493 L205 493 L205 569 L257 569 L302 493 L336 493 L288 573 C314 581 330 602 330 629 L330 629 Z M205 663 L262 663 C283 663 297 649 297 628 C297 606 283 592 262 592 L205 592 L205 663 Z " />
<glyph glyph-name="macron" unicode="&#xaf;" horiz-adv-x="300" d="M25 637 L275 637 L275 673 L25 673 L25 637 Z " />
<glyph glyph-name="degree" unicode="&#xb0;" horiz-adv-x="312" d="M156 580 C218 580 259 620 259 680 C259 740 218 780 156 780 C94 780 53 740 53 680 C53 620 94 580 156 580 L156 580 Z M156 615 C119 615 95 641 95 680 C95 719 119 745 156 745 C193 745 217 719 217 680 C217 641 193 615 156 615 L156 615 Z " />
<glyph glyph-name="plusminus" unicode="&#xb1;" horiz-adv-x="502" d="M272 328 L272 490 L229 490 L229 328 L71 328 L71 292 L229 292 L229 130 L272 130 L272 292 L431 292 L431 328 L272 328 Z M71 0 L431 0 L431 36 L71 36 L71 0 Z " />
<glyph glyph-name="acute" unicode="&#xb4;" horiz-adv-x="213" d="M40 570 L76 570 L180 730 L131 730 L40 570 Z " />
<glyph glyph-name="paragraph" unicode="&#xb6;" horiz-adv-x="611" d="M497 770 L246 770 C117 770 31 684 31 555 C31 426 117 340 246 340 L246 -230 L289 -230 L289 734 L454 734 L454 -230 L497 -230 L497 770 Z " />
<glyph glyph-name="periodcentered" unicode="&#xb7;" horiz-adv-x="218" d="M109 228 C131 228 145 242 145 262 C145 282 131 296 109 296 C87 296 73 282 73 262 C73 242 87 228 109 228 L109 228 Z " />
<glyph glyph-name="cedilla" unicode="&#xb8;" horiz-adv-x="244" d="M138 -69 C129 -69 118 -71 106 -75 L104 -73 L152 0 L118 21 L34 -113 L62 -130 C74 -114 100 -103 125 -103 C157 -103 178 -122 178 -150 C178 -184 144 -206 93 -206 C63 -206 27 -195 3 -178 L3 -215 C25 -230 61 -240 92 -240 C169 -240 221 -204 221 -150 C221 -101 188 -69 138 -69 L138 -69 Z " />
<glyph glyph-name="ordmasculine" unicode="&#xba;" horiz-adv-x="391" d="M196 472 C281 472 338 534 338 626 C338 718 281 780 196 780 C110 780 53 718 53 626 C53 534 110 472 196 472 L196 472 Z M196 506 C135 506 95 554 95 626 C95 698 135 746 196 746 C256 746 296 698 296 626 C296 554 256 506 196 506 L196 506 Z " />
<glyph glyph-name="guillemotright" unicode="&#xbb;" horiz-adv-x="445" d="M74 117 L122 117 L245 260 L122 403 L74 403 L194 260 L74 117 Z M224 117 L272 117 L395 260 L272 403 L224 403 L344 260 L224 117 Z " />
<glyph glyph-name="onequarter" unicode="&#xbc;" horiz-adv-x="730" d="M542 770 L38 0 L85 0 L589 770 L542 770 Z M133 338 L176 338 L176 770 L147 770 C133 727 107 713 50 713 L50 682 L133 682 L133 338 Z M695 148 L637 148 L637 432 L583 432 L378 152 L378 112 L594 112 L594 0 L637 0 L637 112 L695 112 L695 148 Z M594 388 L595 388 L595 148 L420 148 L420 149 L594 388 Z " />
<glyph glyph-name="onehalf" unicode="&#xbd;" horiz-adv-x="756" d="M540 770 L36 0 L83 0 L587 770 L540 770 Z M131 338 L174 338 L174 770 L145 770 C131 727 105 713 48 713 L48 682 L131 682 L131 338 Z M467 36 L467 37 C612 112 708 211 708 312 C708 391 656 438 567 438 C480 438 427 386 422 298 L464 298 C467 363 506 401 567 401 C627 401 663 368 663 313 C663 220 572 124 417 41 L417 0 L719 0 L719 36 L467 36 Z " />
<glyph glyph-name="threequarters" unicode="&#xbe;" horiz-adv-x="863" d="M338 453 C338 508 304 547 243 561 L243 562 C296 578 325 612 325 661 C325 733 274 776 187 776 C106 776 54 726 50 640 L91 640 C94 703 130 740 187 740 C246 740 281 709 281 658 C281 607 243 577 178 577 L170 577 L170 543 L183 543 C253 543 294 511 294 456 C294 401 254 368 187 368 C124 368 86 406 83 468 L42 468 C46 382 99 332 187 332 C282 332 338 377 338 453 L338 453 Z M675 770 L171 0 L218 0 L722 770 L675 770 Z M828 148 L770 148 L770 432 L716 432 L511 152 L511 112 L727 112 L727 0 L770 0 L770 112 L828 112 L828 148 Z M727 388 L728 388 L728 148 L553 148 L553 149 L727 388 Z " />
<glyph glyph-name="questiondown" unicode="&#xbf;" horiz-adv-x="500" d="M277 452 C299 452 313 466 313 486 C313 506 299 520 277 520 C255 520 241 506 241 486 C241 466 255 452 277 452 L277 452 Z M248 -240 C383 -240 476 -155 482 -27 L438 -27 C432 -129 356 -197 248 -197 C140 -197 68 -139 68 -53 C68 4 116 45 166 95 C229 158 297 227 297 339 L297 345 L259 345 C259 245 195 180 132 116 C78 62 22 15 22 -53 C22 -165 112 -240 248 -240 L248 -240 Z " />
<glyph glyph-name="Agrave" unicode="&#xc0;" horiz-adv-x="664" d="M358 840 L267 1000 L218 1000 L322 840 L358 840 Z M603 0 L654 0 L360 770 L303 770 L10 0 L59 0 L139 214 L524 214 L603 0 Z M155 256 L331 729 L333 729 L508 256 L155 256 Z " />
<glyph glyph-name="Aacute" unicode="&#xc1;" horiz-adv-x="664" d="M445 1000 L396 1000 L305 840 L341 840 L445 1000 Z M603 0 L654 0 L360 770 L303 770 L10 0 L59 0 L139 214 L524 214 L603 0 Z M155 256 L331 729 L333 729 L508 256 L155 256 Z " />
<glyph glyph-name="Acircumflex" unicode="&#xc2;" horiz-adv-x="664" d="M331 964 L333 964 L431 840 L476 840 L359 990 L305 990 L188 840 L233 840 L331 964 Z M603 0 L654 0 L360 770 L303 770 L10 0 L59 0 L139 214 L524 214 L603 0 Z M155 256 L331 729 L333 729 L508 256 L155 256 Z " />
<glyph glyph-name="Atilde" unicode="&#xc3;" horiz-adv-x="664" d="M259 922 C308 922 332 849 403 849 C459 849 492 892 492 965 L457 965 C454 917 434 888 403 888 C354 888 330 961 259 961 C203 961 170 918 170 845 L205 845 C208 893 228 922 259 922 L259 922 Z M603 0 L654 0 L360 770 L303 770 L10 0 L59 0 L139 214 L524 214 L603 0 Z M155 256 L331 729 L333 729 L508 256 L155 256 Z " />
<glyph glyph-name="Adieresis" unicode="&#xc4;" horiz-adv-x="664" d="M264 843 C284 843 297 855 297 873 C297 892 284 905 264 905 C245 905 232 892 232 873 C232 855 245 843 264 843 L264 843 Z M398 843 C418 843 431 855 431 873 C431 892 418 905 398 905 C379 905 366 892 366 873 C366 855 379 843 398 843 L398 843 Z M603 0 L654 0 L360 770 L303 770 L10 0 L59 0 L139 214 L524 214 L603 0 Z M155 256 L331 729 L333 729 L508 256 L155 256 Z " />
<glyph glyph-name="Aring" unicode="&#xc5;" horiz-adv-x="664" d="M332 832 C397 832 440 874 440 936 C440 998 397 1040 332 1040 C267 1040 224 998 224 936 C224 874 267 832 332 832 L332 832 Z M332 1006 C373 1006 400 978 400 936 C400 894 373 866 332 866 C291 866 264 894 264 936 C264 978 291 1006 332 1006 L332 1006 Z M603 0 L654 0 L360 770 L303 770 L10 0 L59 0 L139 214 L524 214 L603 0 Z M155 256 L331 729 L333 729 L508 256 L155 256 Z " />
<glyph glyph-name="AE" unicode="&#xc6;" horiz-adv-x="1055" d="M614 42 L534 379 L956 379 L956 421 L524 421 L452 728 L992 728 L992 770 L379 770 L-12 0 L37 0 L145 213 L525 213 L573 0 L1003 0 L1003 42 L614 42 Z M166 255 L407 730 L409 730 L516 255 L166 255 Z " />
<glyph glyph-name="Ccedilla" unicode="&#xc7;" horiz-adv-x="765" d="M396 34 C219 34 101 174 101 385 C101 596 219 736 396 736 C537 736 648 648 673 515 L720 515 C692 674 564 780 396 780 C191 780 55 622 55 385 C55 158 180 4 370 -9 L305 -113 L333 -130 C345 -114 371 -103 396 -103 C428 -103 449 -122 449 -150 C449 -184 415 -206 364 -206 C334 -206 298 -195 274 -178 L274 -215 C296 -230 332 -240 363 -240 C440 -240 492 -204 492 -150 C492 -101 459 -69 409 -69 C400 -69 389 -71 377 -75 L375 -73 L417 -9 C573 -1 693 106 720 263 L673 263 C648 126 537 34 396 34 L396 34 Z " />
<glyph glyph-name="Egrave" unicode="&#xc8;" horiz-adv-x="633" d="M362 840 L271 1000 L222 1000 L326 840 L362 840 Z M151 42 L151 378 L534 378 L534 420 L151 420 L151 728 L570 728 L570 770 L106 770 L106 0 L582 0 L582 42 L151 42 Z " />
<glyph glyph-name="Eacute" unicode="&#xc9;" horiz-adv-x="633" d="M449 1000 L400 1000 L309 840 L345 840 L449 1000 Z M151 42 L151 378 L534 378 L534 420 L151 420 L151 728 L570 728 L570 770 L106 770 L106 0 L582 0 L582 42 L151 42 Z " />
<glyph glyph-name="Ecircumflex" unicode="&#xca;" horiz-adv-x="633" d="M335 964 L337 964 L435 840 L480 840 L363 990 L309 990 L192 840 L237 840 L335 964 Z M151 42 L151 378 L534 378 L534 420 L151 420 L151 728 L570 728 L570 770 L106 770 L106 0 L582 0 L582 42 L151 42 Z " />
<glyph glyph-name="Edieresis" unicode="&#xcb;" horiz-adv-x="633" d="M268 843 C288 843 301 855 301 873 C301 892 288 905 268 905 C249 905 236 892 236 873 C236 855 249 843 268 843 L268 843 Z M402 843 C422 843 435 855 435 873 C435 892 422 905 402 905 C383 905 370 892 370 873 C370 855 383 843 402 843 L402 843 Z M151 42 L151 378 L534 378 L534 420 L151 420 L151 728 L570 728 L570 770 L106 770 L106 0 L582 0 L582 42 L151 42 Z " />
<glyph glyph-name="Igrave" unicode="&#xcc;" horiz-adv-x="257" d="M155 840 L64 1000 L15 1000 L119 840 L155 840 Z M106 0 L151 0 L151 770 L106 770 L106 0 Z " />
<glyph glyph-name="Iacute" unicode="&#xcd;" horiz-adv-x="257" d="M102 840 L138 840 L242 1000 L193 1000 L102 840 Z M106 0 L151 0 L151 770 L106 770 L106 0 Z " />
<glyph glyph-name="Icircumflex" unicode="&#xce;" horiz-adv-x="257" d="M156 990 L102 990 L-15 840 L30 840 L128 964 L130 964 L228 840 L273 840 L156 990 Z M106 0 L151 0 L151 770 L106 770 L106 0 Z " />
<glyph glyph-name="Idieresis" unicode="&#xcf;" horiz-adv-x="257" d="M61 843 C81 843 94 855 94 873 C94 892 81 905 61 905 C42 905 29 892 29 873 C29 855 42 843 61 843 L61 843 Z M195 843 C215 843 228 855 228 873 C228 892 215 905 195 905 C176 905 163 892 163 873 C163 855 176 843 195 843 L195 843 Z M106 0 L151 0 L151 770 L106 770 L106 0 Z " />
<glyph glyph-name="Eth" unicode="&#xd0;" horiz-adv-x="718" d="M314 770 L112 770 L112 408 L41 408 L41 372 L112 372 L112 0 L314 0 C523 0 663 154 663 385 C663 616 523 770 314 770 L314 770 Z M319 42 L157 42 L157 372 L356 372 L356 408 L157 408 L157 728 L319 728 C498 728 617 591 617 385 C617 179 498 42 319 42 L319 42 Z " />
<glyph glyph-name="Ntilde" unicode="&#xd1;" horiz-adv-x="741" d="M298 922 C347 922 371 849 442 849 C498 849 531 892 531 965 L496 965 C493 917 473 888 442 888 C393 888 369 961 298 961 C242 961 209 918 209 845 L244 845 C247 893 267 922 298 922 L298 922 Z M592 770 L592 77 L590 77 L154 770 L106 770 L106 0 L151 0 L151 691 L153 691 L589 0 L635 0 L635 770 L592 770 Z " />
<glyph glyph-name="Ograve" unicode="&#xd2;" horiz-adv-x="798" d="M425 840 L334 1000 L285 1000 L389 840 L425 840 Z M399 -10 C605 -10 743 148 743 385 C743 622 605 780 399 780 C193 780 55 622 55 385 C55 148 193 -10 399 -10 L399 -10 Z M399 34 C220 34 101 174 101 385 C101 596 220 736 399 736 C578 736 697 596 697 385 C697 174 578 34 399 34 L399 34 Z " />
<glyph glyph-name="Oacute" unicode="&#xd3;" horiz-adv-x="798" d="M372 840 L408 840 L512 1000 L463 1000 L372 840 Z M399 -10 C605 -10 743 148 743 385 C743 622 605 780 399 780 C193 780 55 622 55 385 C55 148 193 -10 399 -10 L399 -10 Z M399 34 C220 34 101 174 101 385 C101 596 220 736 399 736 C578 736 697 596 697 385 C697 174 578 34 399 34 L399 34 Z " />
<glyph glyph-name="Ocircumflex" unicode="&#xd4;" horiz-adv-x="798" d="M398 964 L400 964 L498 840 L543 840 L426 990 L372 990 L255 840 L300 840 L398 964 Z M399 780 C193 780 55 622 55 385 C55 148 193 -10 399 -10 C605 -10 743 148 743 385 C743 622 605 780 399 780 L399 780 Z M399 34 C220 34 101 174 101 385 C101 596 220 736 399 736 C578 736 697 596 697 385 C697 174 578 34 399 34 L399 34 Z " />
<glyph glyph-name="Otilde" unicode="&#xd5;" horiz-adv-x="798" d="M237 845 L272 845 C275 893 295 922 326 922 C375 922 399 849 470 849 C526 849 559 892 559 965 L524 965 C521 917 501 888 470 888 C421 888 397 961 326 961 C270 961 237 918 237 845 L237 845 Z M399 -10 C605 -10 743 148 743 385 C743 622 605 780 399 780 C193 780 55 622 55 385 C55 148 193 -10 399 -10 L399 -10 Z M399 34 C220 34 101 174 101 385 C101 596 220 736 399 736 C578 736 697 596 697 385 C697 174 578 34 399 34 L399 34 Z " />
<glyph glyph-name="Odieresis" unicode="&#xd6;" horiz-adv-x="798" d="M331 843 C351 843 364 855 364 873 C364 892 351 905 331 905 C312 905 299 892 299 873 C299 855 312 843 331 843 L331 843 Z M465 843 C485 843 498 855 498 873 C498 892 485 905 465 905 C446 905 433 892 433 873 C433 855 446 843 465 843 L465 843 Z M399 -10 C605 -10 743 148 743 385 C743 622 605 780 399 780 C193 780 55 622 55 385 C55 148 193 -10 399 -10 L399 -10 Z M399 34 C220 34 101 174 101 385 C101 596 220 736 399 736 C578 736 697 596 697 385 C697 174 578 34 399 34 L399 34 Z " />
<glyph glyph-name="multiply" unicode="&#xd7;" horiz-adv-x="492" d="M423 394 L394 423 L246 275 L97 423 L69 394 L217 246 L69 98 L97 69 L246 217 L394 69 L423 98 L275 246 L423 394 Z " />
<glyph glyph-name="Oslash" unicode="&#xd8;" horiz-adv-x="794" d="M615 703 L661 780 L620 806 L576 732 C525 763 465 780 397 780 C191 780 53 622 53 385 C53 247 100 136 179 67 L133 -11 L174 -36 L218 38 C269 7 329 -10 397 -10 C603 -10 741 148 741 385 C741 523 694 634 615 703 L615 703 Z M99 385 C99 596 218 736 397 736 C456 736 509 721 552 693 L203 107 C137 168 99 265 99 385 L99 385 Z M397 34 C338 34 285 49 242 77 L591 663 C657 601 695 505 695 385 C695 174 576 34 397 34 L397 34 Z " />
<glyph glyph-name="Ugrave" unicode="&#xd9;" horiz-adv-x="724" d="M388 840 L297 1000 L248 1000 L352 840 L388 840 Z M362 -10 C521 -10 627 101 627 267 L627 770 L584 770 L584 262 C584 125 495 34 362 34 C230 34 142 125 142 262 L142 770 L97 770 L97 267 C97 101 203 -10 362 -10 L362 -10 Z " />
<glyph glyph-name="Uacute" unicode="&#xda;" horiz-adv-x="724" d="M335 840 L371 840 L475 1000 L426 1000 L335 840 Z M362 -10 C521 -10 627 101 627 267 L627 770 L584 770 L584 262 C584 125 495 34 362 34 C230 34 142 125 142 262 L142 770 L97 770 L97 267 C97 101 203 -10 362 -10 L362 -10 Z " />
<glyph glyph-name="Ucircumflex" unicode="&#xdb;" horiz-adv-x="724" d="M361 964 L363 964 L461 840 L506 840 L389 990 L335 990 L218 840 L263 840 L361 964 Z M584 770 L584 262 C584 125 495 34 362 34 C230 34 142 125 142 262 L142 770 L97 770 L97 267 C97 101 203 -10 362 -10 C521 -10 627 101 627 267 L627 770 L584 770 Z " />
<glyph glyph-name="Udieresis" unicode="&#xdc;" horiz-adv-x="724" d="M294 843 C314 843 327 855 327 873 C327 892 314 905 294 905 C275 905 262 892 262 873 C262 855 275 843 294 843 L294 843 Z M428 843 C448 843 461 855 461 873 C461 892 448 905 428 905 C409 905 396 892 396 873 C396 855 409 843 428 843 L428 843 Z M362 -10 C521 -10 627 101 627 267 L627 770 L584 770 L584 262 C584 125 495 34 362 34 C230 34 142 125 142 262 L142 770 L97 770 L97 267 C97 101 203 -10 362 -10 L362 -10 Z " />
<glyph glyph-name="Yacute" unicode="&#xdd;" horiz-adv-x="641" d="M434 1000 L385 1000 L294 840 L330 840 L434 1000 Z M634 770 L582 770 L324 350 L322 350 L62 770 L7 770 L298 305 L298 0 L343 0 L343 304 L634 770 Z " />
<glyph glyph-name="Thorn" unicode="&#xde;" horiz-adv-x="641" d="M355 624 L151 624 L151 770 L106 770 L106 0 L151 0 L151 173 L354 173 C498 173 594 263 594 399 C594 534 498 624 355 624 L355 624 Z M358 214 L151 214 L151 582 L359 582 C472 582 548 509 548 399 C548 288 472 214 358 214 L358 214 Z " />
<glyph glyph-name="germandbls" unicode="&#xdf;" horiz-adv-x="634" d="M379 435 L379 437 C472 463 529 524 529 606 C529 710 446 780 322 780 C185 780 94 696 94 571 L94 0 L137 0 L137 573 C137 674 211 742 322 742 C420 742 485 686 485 603 C485 511 400 449 272 449 L272 413 L317 413 C451 413 541 336 541 221 C541 105 460 28 339 28 C307 28 268 32 242 39 L242 2 C265 -5 303 -10 338 -10 C486 -10 585 81 585 218 C585 334 505 416 379 435 L379 435 Z " />
<glyph glyph-name="agrave" unicode="&#xe0;" horiz-adv-x="622" d="M324 609 L233 769 L184 769 L288 609 L324 609 Z M485 510 L485 400 L483 400 C452 476 372 520 282 520 C145 520 53 414 53 255 C53 96 144 -10 281 -10 C372 -10 453 34 483 109 L485 109 L485 0 L528 0 L528 510 L485 510 Z M291 28 C175 28 97 119 97 255 C97 391 175 482 291 482 C407 482 485 391 485 255 C485 119 407 28 291 28 L291 28 Z " />
<glyph glyph-name="aacute" unicode="&#xe1;" horiz-adv-x="622" d="M411 769 L362 769 L271 609 L307 609 L411 769 Z M485 510 L485 400 L483 400 C452 476 372 520 282 520 C145 520 53 414 53 255 C53 96 144 -10 281 -10 C372 -10 453 34 483 109 L485 109 L485 0 L528 0 L528 510 L485 510 Z M291 28 C175 28 97 119 97 255 C97 391 175 482 291 482 C407 482 485 391 485 255 C485 119 407 28 291 28 L291 28 Z " />
<glyph glyph-name="acircumflex" unicode="&#xe2;" horiz-adv-x="622" d="M297 743 L299 743 L397 619 L442 619 L325 769 L271 769 L154 619 L199 619 L297 743 Z M485 510 L485 400 L483 400 C452 476 372 520 282 520 C145 520 53 414 53 255 C53 96 144 -10 281 -10 C372 -10 453 34 483 109 L485 109 L485 0 L528 0 L528 510 L485 510 Z M291 28 C175 28 97 119 97 255 C97 391 175 482 291 482 C407 482 485 391 485 255 C485 119 407 28 291 28 L291 28 Z " />
<glyph glyph-name="atilde" unicode="&#xe3;" horiz-adv-x="622" d="M225 701 C274 701 298 628 369 628 C425 628 458 671 458 744 L423 744 C420 696 400 667 369 667 C320 667 296 740 225 740 C169 740 136 697 136 624 L171 624 C174 672 194 701 225 701 L225 701 Z M485 510 L485 400 L483 400 C452 476 372 520 282 520 C145 520 53 414 53 255 C53 96 144 -10 281 -10 C372 -10 453 34 483 109 L485 109 L485 0 L528 0 L528 510 L485 510 Z M291 28 C175 28 97 119 97 255 C97 391 175 482 291 482 C407 482 485 391 485 255 C485 119 407 28 291 28 L291 28 Z " />
<glyph glyph-name="adieresis" unicode="&#xe4;" horiz-adv-x="622" d="M230 662 C250 662 263 674 263 692 C263 711 250 724 230 724 C211 724 198 711 198 692 C198 674 211 662 230 662 L230 662 Z M364 662 C384 662 397 674 397 692 C397 711 384 724 364 724 C345 724 332 711 332 692 C332 674 345 662 364 662 L364 662 Z M485 510 L485 400 L483 400 C452 476 372 520 282 520 C145 520 53 414 53 255 C53 96 144 -10 281 -10 C372 -10 453 34 483 109 L485 109 L485 0 L528 0 L528 510 L485 510 Z M291 28 C175 28 97 119 97 255 C97 391 175 482 291 482 C407 482 485 391 485 255 C485 119 407 28 291 28 L291 28 Z " />
<glyph glyph-name="aring" unicode="&#xe5;" horiz-adv-x="622" d="M298 571 C363 571 406 613 406 675 C406 737 363 779 298 779 C233 779 190 737 190 675 C190 613 233 571 298 571 L298 571 Z M298 745 C339 745 366 717 366 675 C366 633 339 605 298 605 C257 605 230 633 230 675 C230 717 257 745 298 745 L298 745 Z M485 510 L485 400 L483 400 C452 476 372 520 282 520 C145 520 53 414 53 255 C53 96 144 -10 281 -10 C372 -10 453 34 483 109 L485 109 L485 0 L528 0 L528 510 L485 510 Z M291 28 C175 28 97 119 97 255 C97 391 175 482 291 482 C407 482 485 391 485 255 C485 119 407 28 291 28 L291 28 Z " />
<glyph glyph-name="ae" unicode="&#xe6;" horiz-adv-x="928" d="M875 254 C875 414 782 520 643 520 C554 520 484 472 449 392 L447 392 C436 470 364 520 260 520 C146 520 69 452 66 351 L110 351 C113 429 173 481 261 481 C352 481 412 437 412 370 L412 317 C143 268 47 239 47 123 C47 43 110 -10 205 -10 C326 -10 408 44 437 138 L439 138 C469 44 541 -10 643 -10 C758 -10 850 63 874 173 L829 173 C808 86 734 28 644 28 C534 28 460 113 456 243 L875 243 L875 254 Z M644 481 C748 481 820 402 830 282 L457 282 C467 402 539 481 644 481 L644 481 Z M206 28 C137 28 91 66 91 122 C91 228 215 239 412 280 L412 197 C412 114 335 28 206 28 L206 28 Z " />
<glyph glyph-name="ccedilla" unicode="&#xe7;" horiz-adv-x="555" d="M513 161 L466 161 C450 81 378 28 287 28 C172 28 96 119 96 255 C96 391 172 481 287 481 C371 481 441 431 462 356 L508 356 C484 454 395 520 287 520 C146 520 52 414 52 255 C52 106 135 3 261 -9 L196 -113 L224 -130 C236 -114 262 -103 287 -103 C319 -103 340 -122 340 -150 C340 -184 306 -206 255 -206 C225 -206 189 -195 165 -178 L165 -215 C187 -230 223 -240 254 -240 C331 -240 383 -204 383 -150 C383 -101 350 -69 300 -69 C291 -69 280 -71 268 -75 L266 -73 L308 -9 C414 -2 494 64 513 161 L513 161 Z " />
<glyph glyph-name="egrave" unicode="&#xe8;" horiz-adv-x="577" d="M314 610 L223 770 L174 770 L278 610 L314 610 Z M524 254 C524 414 430 520 288 520 C146 520 52 414 52 254 C52 96 146 -10 288 -10 C404 -10 498 63 523 173 L480 173 C458 86 381 28 288 28 C176 28 100 113 96 243 L524 243 L524 254 Z M288 481 C395 481 469 402 479 282 L97 282 C107 402 181 481 288 481 L288 481 Z " />
<glyph glyph-name="eacute" unicode="&#xe9;" horiz-adv-x="577" d="M401 770 L352 770 L261 610 L297 610 L401 770 Z M524 254 C524 414 430 520 288 520 C146 520 52 414 52 254 C52 96 146 -10 288 -10 C404 -10 498 63 523 173 L480 173 C458 86 381 28 288 28 C176 28 100 113 96 243 L524 243 L524 254 Z M288 481 C395 481 469 402 479 282 L97 282 C107 402 181 481 288 481 L288 481 Z " />
<glyph glyph-name="ecircumflex" unicode="&#xea;" horiz-adv-x="577" d="M287 744 L289 744 L387 620 L432 620 L315 770 L261 770 L144 620 L189 620 L287 744 Z M524 254 C524 414 430 520 288 520 C146 520 52 414 52 254 C52 96 146 -10 288 -10 C404 -10 498 63 523 173 L480 173 C458 86 381 28 288 28 C176 28 100 113 96 243 L524 243 L524 254 Z M288 481 C395 481 469 402 479 282 L97 282 C107 402 181 481 288 481 L288 481 Z " />
<glyph glyph-name="edieresis" unicode="&#xeb;" horiz-adv-x="577" d="M220 663 C240 663 253 675 253 693 C253 712 240 725 220 725 C201 725 188 712 188 693 C188 675 201 663 220 663 L220 663 Z M354 663 C374 663 387 675 387 693 C387 712 374 725 354 725 C335 725 322 712 322 693 C322 675 335 663 354 663 L354 663 Z M524 254 C524 414 430 520 288 520 C146 520 52 414 52 254 C52 96 146 -10 288 -10 C404 -10 498 63 523 173 L480 173 C458 86 381 28 288 28 C176 28 100 113 96 243 L524 243 L524 254 Z M288 481 C395 481 469 402 479 282 L97 282 C107 402 181 481 288 481 L288 481 Z " />
<glyph glyph-name="igrave" unicode="&#xec;" horiz-adv-x="239" d="M146 610 L55 770 L6 770 L110 610 L146 610 Z M98 0 L141 0 L141 510 L98 510 L98 0 Z " />
<glyph glyph-name="iacute" unicode="&#xed;" horiz-adv-x="239" d="M93 610 L129 610 L233 770 L184 770 L93 610 Z M98 0 L141 0 L141 510 L98 510 L98 0 Z " />
<glyph glyph-name="icircumflex" unicode="&#xee;" horiz-adv-x="239" d="M147 770 L93 770 L-24 620 L21 620 L119 744 L121 744 L219 620 L264 620 L147 770 Z M98 0 L141 0 L141 510 L98 510 L98 0 Z " />
<glyph glyph-name="idieresis" unicode="&#xef;" horiz-adv-x="239" d="M52 663 C72 663 85 675 85 693 C85 712 72 725 52 725 C33 725 20 712 20 693 C20 675 33 663 52 663 L52 663 Z M186 663 C206 663 219 675 219 693 C219 712 206 725 186 725 C167 725 154 712 154 693 C154 675 167 663 186 663 L186 663 Z M98 0 L141 0 L141 510 L98 510 L98 0 Z " />
<glyph glyph-name="eth" unicode="&#xf0;" horiz-adv-x="594" d="M306 696 L415 749 L396 780 L268 717 C225 740 177 761 121 780 L107 746 C152 731 191 714 227 697 L107 638 L126 607 L267 676 C393 605 458 517 482 398 C446 474 377 520 288 520 C146 520 52 414 52 255 C52 96 147 -10 290 -10 C433 -10 528 100 528 265 C528 467 468 598 306 696 L306 696 Z M290 28 C174 28 96 119 96 255 C96 391 174 482 290 482 C406 482 484 391 484 255 C484 119 406 28 290 28 L290 28 Z " />
<glyph glyph-name="ntilde" unicode="&#xf1;" horiz-adv-x="599" d="M231 702 C280 702 304 629 375 629 C431 629 464 672 464 745 L429 745 C426 697 406 668 375 668 C326 668 302 741 231 741 C175 741 142 698 142 625 L177 625 C180 673 200 702 231 702 L231 702 Z M323 520 C238 520 165 476 139 410 L137 410 L137 510 L94 510 L94 0 L137 0 L137 281 C137 401 208 481 314 481 C408 481 471 417 471 322 L471 0 L514 0 L514 317 C514 439 438 520 323 520 L323 520 Z " />
<glyph glyph-name="ograve" unicode="&#xf2;" horiz-adv-x="580" d="M316 610 L225 770 L176 770 L280 610 L316 610 Z M290 -10 C433 -10 528 96 528 255 C528 414 433 520 290 520 C147 520 52 414 52 255 C52 96 147 -10 290 -10 L290 -10 Z M290 28 C174 28 96 119 96 255 C96 391 174 482 290 482 C406 482 484 391 484 255 C484 119 406 28 290 28 L290 28 Z " />
<glyph glyph-name="oacute" unicode="&#xf3;" horiz-adv-x="580" d="M263 610 L299 610 L403 770 L354 770 L263 610 Z M290 -10 C433 -10 528 96 528 255 C528 414 433 520 290 520 C147 520 52 414 52 255 C52 96 147 -10 290 -10 L290 -10 Z M290 28 C174 28 96 119 96 255 C96 391 174 482 290 482 C406 482 484 391 484 255 C484 119 406 28 290 28 L290 28 Z " />
<glyph glyph-name="ocircumflex" unicode="&#xf4;" horiz-adv-x="580" d="M289 744 L291 744 L389 620 L434 620 L317 770 L263 770 L146 620 L191 620 L289 744 Z M290 520 C147 520 52 414 52 255 C52 96 147 -10 290 -10 C433 -10 528 96 528 255 C528 414 433 520 290 520 L290 520 Z M290 28 C174 28 96 119 96 255 C96 391 174 482 290 482 C406 482 484 391 484 255 C484 119 406 28 290 28 L290 28 Z " />
<glyph glyph-name="otilde" unicode="&#xf5;" horiz-adv-x="580" d="M128 625 L163 625 C166 673 186 702 217 702 C266 702 290 629 361 629 C417 629 450 672 450 745 L415 745 C412 697 392 668 361 668 C312 668 288 741 217 741 C161 741 128 698 128 625 L128 625 Z M290 -10 C433 -10 528 96 528 255 C528 414 433 520 290 520 C147 520 52 414 52 255 C52 96 147 -10 290 -10 L290 -10 Z M290 28 C174 28 96 119 96 255 C96 391 174 482 290 482 C406 482 484 391 484 255 C484 119 406 28 290 28 L290 28 Z " />
<glyph glyph-name="odieresis" unicode="&#xf6;" horiz-adv-x="580" d="M222 663 C242 663 255 675 255 693 C255 712 242 725 222 725 C203 725 190 712 190 693 C190 675 203 663 222 663 L222 663 Z M356 663 C376 663 389 675 389 693 C389 712 376 725 356 725 C337 725 324 712 324 693 C324 675 337 663 356 663 L356 663 Z M290 -10 C433 -10 528 96 528 255 C528 414 433 520 290 520 C147 520 52 414 52 255 C52 96 147 -10 290 -10 L290 -10 Z M290 28 C174 28 96 119 96 255 C96 391 174 482 290 482 C406 482 484 391 484 255 C484 119 406 28 290 28 L290 28 Z " />
<glyph glyph-name="divide" unicode="&#xf7;" horiz-adv-x="510" d="M255 340 C275 340 288 352 288 370 C288 389 275 402 255 402 C236 402 223 389 223 370 C223 352 236 340 255 340 L255 340 Z M75 234 L435 234 L435 270 L75 270 L75 234 Z M255 102 C275 102 288 114 288 132 C288 151 275 164 255 164 C236 164 223 151 223 132 C223 114 236 102 255 102 L255 102 Z " />
<glyph glyph-name="oslash" unicode="&#xf8;" horiz-adv-x="580" d="M452 459 L493 521 L455 545 L416 486 C381 508 338 520 290 520 C147 520 52 414 52 255 C52 169 80 98 128 52 L87 -10 L125 -35 L164 24 C199 2 242 -10 290 -10 C433 -10 528 96 528 255 C528 341 500 412 452 459 L452 459 Z M96 255 C96 391 174 482 290 482 C329 482 364 471 394 452 L152 88 C116 128 96 185 96 255 L96 255 Z M290 28 C251 28 215 39 186 58 L428 423 C463 383 484 325 484 255 C484 119 406 28 290 28 L290 28 Z " />
<glyph glyph-name="ugrave" unicode="&#xf9;" horiz-adv-x="580" d="M318 610 L227 770 L178 770 L282 610 L318 610 Z M290 -10 C413 -10 495 74 495 199 L495 510 L452 510 L452 204 C452 98 387 28 290 28 C193 28 128 98 128 204 L128 510 L85 510 L85 199 C85 74 167 -10 290 -10 L290 -10 Z " />
<glyph glyph-name="uacute" unicode="&#xfa;" horiz-adv-x="580" d="M265 610 L301 610 L405 770 L356 770 L265 610 Z M290 -10 C413 -10 495 74 495 199 L495 510 L452 510 L452 204 C452 98 387 28 290 28 C193 28 128 98 128 204 L128 510 L85 510 L85 199 C85 74 167 -10 290 -10 L290 -10 Z " />
<glyph glyph-name="ucircumflex" unicode="&#xfb;" horiz-adv-x="580" d="M291 744 L293 744 L391 620 L436 620 L319 770 L265 770 L148 620 L193 620 L291 744 Z M452 510 L452 204 C452 98 387 28 290 28 C193 28 128 98 128 204 L128 510 L85 510 L85 199 C85 74 167 -10 290 -10 C413 -10 495 74 495 199 L495 510 L452 510 Z " />
<glyph glyph-name="udieresis" unicode="&#xfc;" horiz-adv-x="580" d="M224 663 C244 663 257 675 257 693 C257 712 244 725 224 725 C205 725 192 712 192 693 C192 675 205 663 224 663 L224 663 Z M358 663 C378 663 391 675 391 693 C391 712 378 725 358 725 C339 725 326 712 326 693 C326 675 339 663 358 663 L358 663 Z M290 -10 C413 -10 495 74 495 199 L495 510 L452 510 L452 204 C452 98 387 28 290 28 C193 28 128 98 128 204 L128 510 L85 510 L85 199 C85 74 167 -10 290 -10 L290 -10 Z " />
<glyph glyph-name="yacute" unicode="&#xfd;" horiz-adv-x="525" d="M378 770 L329 770 L238 610 L274 610 L378 770 Z M461 510 L263 43 L261 43 L65 510 L18 510 L240 -6 L145 -230 L190 -230 L506 510 L461 510 Z " />
<glyph glyph-name="thorn" unicode="&#xfe;" horiz-adv-x="622" d="M341 520 C250 520 170 476 139 400 L137 400 L137 770 L94 770 L94 -230 L137 -230 L137 109 L139 109 C169 34 250 -10 340 -10 C477 -10 569 96 569 255 C569 414 478 520 341 520 L341 520 Z M331 28 C215 28 137 119 137 255 C137 391 215 481 331 481 C447 481 525 391 525 255 C525 119 447 28 331 28 L331 28 Z " />
<glyph glyph-name="ydieresis" unicode="&#xff;" horiz-adv-x="525" d="M197 663 C217 663 230 675 230 693 C230 712 217 725 197 725 C178 725 165 712 165 693 C165 675 178 663 197 663 L197 663 Z M331 663 C351 663 364 675 364 693 C364 712 351 725 331 725 C312 725 299 712 299 693 C299 675 312 663 331 663 L331 663 Z M461 510 L263 43 L261 43 L65 510 L18 510 L240 -6 L145 -230 L190 -230 L506 510 L461 510 Z " />
<glyph glyph-name="Amacron" unicode="&#x100;" horiz-adv-x="664" d="M457 883 L207 883 L207 847 L457 847 L457 883 Z M603 0 L654 0 L360 770 L303 770 L10 0 L59 0 L139 214 L524 214 L603 0 Z M155 256 L331 729 L333 729 L508 256 L155 256 Z " />
<glyph glyph-name="amacron" unicode="&#x101;" horiz-adv-x="622" d="M423 702 L173 702 L173 666 L423 666 L423 702 Z M485 510 L485 400 L483 400 C452 476 372 520 282 520 C145 520 53 414 53 255 C53 96 144 -10 281 -10 C372 -10 453 34 483 109 L485 109 L485 0 L528 0 L528 510 L485 510 Z M291 28 C175 28 97 119 97 255 C97 391 175 482 291 482 C407 482 485 391 485 255 C485 119 407 28 291 28 L291 28 Z " />
<glyph glyph-name="Abreve" unicode="&#x102;" horiz-adv-x="664" d="M332 837 C411 837 464 898 464 990 L425 990 C425 919 388 872 332 872 C276 872 239 919 239 990 L200 990 C200 898 253 837 332 837 L332 837 Z M603 0 L654 0 L360 770 L303 770 L10 0 L59 0 L139 214 L524 214 L603 0 Z M155 256 L331 729 L333 729 L508 256 L155 256 Z " />
<glyph glyph-name="abreve" unicode="&#x103;" horiz-adv-x="622" d="M298 616 C377 616 430 677 430 769 L391 769 C391 698 354 651 298 651 C242 651 205 698 205 769 L166 769 C166 677 219 616 298 616 L298 616 Z M485 510 L485 400 L483 400 C452 476 372 520 282 520 C145 520 53 414 53 255 C53 96 144 -10 281 -10 C372 -10 453 34 483 109 L485 109 L485 0 L528 0 L528 510 L485 510 Z M291 28 C175 28 97 119 97 255 C97 391 175 482 291 482 C407 482 485 391 485 255 C485 119 407 28 291 28 L291 28 Z " />
<glyph glyph-name="Aogonek" unicode="&#x104;" horiz-adv-x="664" d="M557 -158 C557 -123 596 -60 654 0 L360 770 L303 770 L10 0 L59 0 L139 214 L524 214 L603 0 L608 0 C551 -63 514 -127 514 -164 C514 -210 548 -240 598 -240 C616 -240 638 -235 654 -227 L654 -193 C640 -201 621 -206 606 -206 C577 -206 557 -187 557 -158 L557 -158 Z M155 256 L331 729 L333 729 L508 256 L155 256 Z " />
<glyph glyph-name="aogonek" unicode="&#x105;" horiz-adv-x="622" d="M528 510 L485 510 L485 400 L483 400 C452 476 372 520 282 520 C145 520 53 414 53 255 C53 96 144 -10 281 -10 C372 -10 453 34 483 109 L485 109 L485 3 C426 -61 388 -126 388 -164 C388 -210 422 -240 472 -240 C490 -240 512 -235 528 -227 L528 -193 C514 -201 495 -206 480 -206 C451 -206 431 -187 431 -158 C431 -123 470 -60 528 0 L528 510 Z M291 28 C175 28 97 119 97 255 C97 391 175 482 291 482 C407 482 485 391 485 255 C485 119 407 28 291 28 L291 28 Z " />
<glyph glyph-name="Cacute" unicode="&#x106;" horiz-adv-x="765" d="M369 840 L405 840 L509 1000 L460 1000 L369 840 Z M396 -10 C562 -10 692 99 720 263 L673 263 C648 126 537 34 396 34 C219 34 101 174 101 385 C101 596 219 736 396 736 C537 736 648 648 673 515 L720 515 C692 674 564 780 396 780 C191 780 55 622 55 385 C55 148 191 -10 396 -10 L396 -10 Z " />
<glyph glyph-name="cacute" unicode="&#x107;" horiz-adv-x="555" d="M260 610 L296 610 L400 770 L351 770 L260 610 Z M287 -10 C403 -10 493 58 513 161 L466 161 C450 81 378 28 287 28 C172 28 96 119 96 255 C96 391 172 481 287 481 C371 481 441 431 462 356 L508 356 C484 454 395 520 287 520 C146 520 52 414 52 255 C52 96 146 -10 287 -10 L287 -10 Z " />
<glyph glyph-name="Cdotaccent" unicode="&#x10a;" horiz-adv-x="765" d="M395 841 C415 841 428 853 428 872 C428 891 415 904 395 904 C376 904 363 891 363 872 C363 853 376 841 395 841 L395 841 Z M396 -10 C562 -10 692 99 720 263 L673 263 C648 126 537 34 396 34 C219 34 101 174 101 385 C101 596 219 736 396 736 C537 736 648 648 673 515 L720 515 C692 674 564 780 396 780 C191 780 55 622 55 385 C55 148 191 -10 396 -10 L396 -10 Z " />
<glyph glyph-name="cdotaccent" unicode="&#x10b;" horiz-adv-x="555" d="M286 661 C306 661 319 673 319 692 C319 711 306 724 286 724 C267 724 254 711 254 692 C254 673 267 661 286 661 L286 661 Z M287 -10 C403 -10 493 58 513 161 L466 161 C450 81 378 28 287 28 C172 28 96 119 96 255 C96 391 172 481 287 481 C371 481 441 431 462 356 L508 356 C484 454 395 520 287 520 C146 520 52 414 52 255 C52 96 146 -10 287 -10 L287 -10 Z " />
<glyph glyph-name="Ccaron" unicode="&#x10c;" horiz-adv-x="765" d="M369 840 L423 840 L540 990 L495 990 L397 866 L395 866 L297 990 L252 990 L369 840 Z M396 34 C219 34 101 174 101 385 C101 596 219 736 396 736 C537 736 648 648 673 515 L720 515 C692 674 564 780 396 780 C191 780 55 622 55 385 C55 148 191 -10 396 -10 C562 -10 692 99 720 263 L673 263 C648 126 537 34 396 34 L396 34 Z " />
<glyph glyph-name="ccaron" unicode="&#x10d;" horiz-adv-x="555" d="M260 620 L314 620 L431 770 L386 770 L288 646 L286 646 L188 770 L143 770 L260 620 Z M466 161 C450 81 378 28 287 28 C172 28 96 119 96 255 C96 391 172 481 287 481 C371 481 441 431 462 356 L508 356 C484 454 395 520 287 520 C146 520 52 414 52 255 C52 96 146 -10 287 -10 C403 -10 493 58 513 161 L466 161 Z " />
<glyph glyph-name="Dcaron" unicode="&#x10e;" horiz-adv-x="712" d="M280 840 L334 840 L451 990 L406 990 L308 866 L306 866 L208 990 L163 990 L280 840 Z M308 770 L106 770 L106 0 L308 0 C517 0 657 154 657 385 C657 616 517 770 308 770 L308 770 Z M313 42 L151 42 L151 728 L313 728 C492 728 611 591 611 385 C611 179 492 42 313 42 L313 42 Z " />
<glyph glyph-name="dcaron" unicode="&#x10f;" horiz-adv-x="622" d="M626 779 L571 560 L605 551 L666 769 L626 779 Z M485 400 L483 400 C452 476 372 520 282 520 C145 520 53 414 53 255 C53 96 144 -10 281 -10 C372 -10 453 34 483 109 L485 109 L485 0 L528 0 L528 770 L485 770 L485 400 Z M291 28 C175 28 97 119 97 255 C97 391 175 482 291 482 C407 482 485 391 485 255 C485 119 407 28 291 28 L291 28 Z " />
<glyph glyph-name="Dcroat" unicode="&#x110;" horiz-adv-x="718" d="M314 770 L112 770 L112 408 L41 408 L41 372 L112 372 L112 0 L314 0 C523 0 663 154 663 385 C663 616 523 770 314 770 L314 770 Z M319 42 L157 42 L157 372 L356 372 L356 408 L157 408 L157 728 L319 728 C498 728 617 591 617 385 C617 179 498 42 319 42 L319 42 Z " />
<glyph glyph-name="dcroat" unicode="&#x111;" horiz-adv-x="622" d="M603 653 L528 653 L528 770 L485 770 L485 653 L288 653 L288 617 L485 617 L485 400 L483 400 C452 476 372 520 282 520 C145 520 53 414 53 255 C53 96 144 -10 281 -10 C372 -10 453 34 483 109 L485 109 L485 0 L528 0 L528 617 L603 617 L603 653 Z M291 28 C175 28 97 119 97 255 C97 391 175 482 291 482 C407 482 485 391 485 255 C485 119 407 28 291 28 L291 28 Z " />
<glyph glyph-name="Emacron" unicode="&#x112;" horiz-adv-x="633" d="M461 883 L211 883 L211 847 L461 847 L461 883 Z M151 42 L151 378 L534 378 L534 420 L151 420 L151 728 L570 728 L570 770 L106 770 L106 0 L582 0 L582 42 L151 42 Z " />
<glyph glyph-name="emacron" unicode="&#x113;" horiz-adv-x="577" d="M413 703 L163 703 L163 667 L413 667 L413 703 Z M524 254 C524 414 430 520 288 520 C146 520 52 414 52 254 C52 96 146 -10 288 -10 C404 -10 498 63 523 173 L480 173 C458 86 381 28 288 28 C176 28 100 113 96 243 L524 243 L524 254 Z M288 481 C395 481 469 402 479 282 L97 282 C107 402 181 481 288 481 L288 481 Z " />
<glyph glyph-name="Edotaccent" unicode="&#x116;" horiz-adv-x="633" d="M335 841 C355 841 368 853 368 872 C368 891 355 904 335 904 C316 904 303 891 303 872 C303 853 316 841 335 841 L335 841 Z M151 42 L151 378 L534 378 L534 420 L151 420 L151 728 L570 728 L570 770 L106 770 L106 0 L582 0 L582 42 L151 42 Z " />
<glyph glyph-name="edotaccent" unicode="&#x117;" horiz-adv-x="577" d="M287 661 C307 661 320 673 320 692 C320 711 307 724 287 724 C268 724 255 711 255 692 C255 673 268 661 287 661 L287 661 Z M524 254 C524 414 430 520 288 520 C146 520 52 414 52 254 C52 96 146 -10 288 -10 C404 -10 498 63 523 173 L480 173 C458 86 381 28 288 28 C176 28 100 113 96 243 L524 243 L524 254 Z M288 481 C395 481 469 402 479 282 L97 282 C107 402 181 481 288 481 L288 481 Z " />
<glyph glyph-name="Eogonek" unicode="&#x118;" horiz-adv-x="633" d="M151 42 L151 378 L534 378 L534 420 L151 420 L151 728 L570 728 L570 770 L106 770 L106 0 L472 0 C415 -63 378 -127 378 -164 C378 -210 412 -240 462 -240 C480 -240 502 -235 518 -227 L518 -193 C504 -201 485 -206 470 -206 C441 -206 421 -187 421 -158 C421 -123 460 -60 518 0 L582 0 L582 42 L151 42 Z " />
<glyph glyph-name="eogonek" unicode="&#x119;" horiz-adv-x="577" d="M524 254 C524 414 430 520 288 520 C146 520 52 414 52 254 C52 96 146 -10 288 -10 C296 -10 304 -10 312 -9 C260 -69 226 -129 226 -164 C226 -210 260 -240 310 -240 C328 -240 350 -235 366 -227 L366 -193 C352 -201 333 -206 318 -206 C289 -206 269 -187 269 -158 C269 -123 308 -60 366 0 L364 1 C444 26 504 88 523 173 L480 173 C458 86 381 28 288 28 C176 28 100 113 96 243 L524 243 L524 254 Z M288 481 C395 481 469 402 479 282 L97 282 C107 402 181 481 288 481 L288 481 Z " />
<glyph glyph-name="Ecaron" unicode="&#x11a;" horiz-adv-x="633" d="M309 840 L363 840 L480 990 L435 990 L337 866 L335 866 L237 990 L192 990 L309 840 Z M151 42 L151 378 L534 378 L534 420 L151 420 L151 728 L570 728 L570 770 L106 770 L106 0 L582 0 L582 42 L151 42 Z " />
<glyph glyph-name="ecaron" unicode="&#x11b;" horiz-adv-x="577" d="M261 620 L315 620 L432 770 L387 770 L289 646 L287 646 L189 770 L144 770 L261 620 Z M524 254 C524 414 430 520 288 520 C146 520 52 414 52 254 C52 96 146 -10 288 -10 C404 -10 498 63 523 173 L480 173 C458 86 381 28 288 28 C176 28 100 113 96 243 L524 243 L524 254 Z M288 481 C395 481 469 402 479 282 L97 282 C107 402 181 481 288 481 L288 481 Z " />
<glyph glyph-name="Gbreve" unicode="&#x11e;" horiz-adv-x="777" d="M398 837 C477 837 530 898 530 990 L491 990 C491 919 454 872 398 872 C342 872 305 919 305 990 L266 990 C266 898 319 837 398 837 L398 837 Z M374 391 L374 349 L674 349 C663 159 554 34 396 34 C219 34 101 174 101 385 C101 596 219 736 396 736 C534 736 643 650 668 520 L716 520 C688 676 560 780 396 780 C191 780 55 622 55 385 C55 148 191 -10 396 -10 C592 -10 722 143 722 372 L722 391 L374 391 Z " />
<glyph glyph-name="gbreve" unicode="&#x11f;" horiz-adv-x="622" d="M298 616 C377 616 430 677 430 769 L391 769 C391 698 354 651 298 651 C242 651 205 698 205 769 L166 769 C166 677 219 616 298 616 L298 616 Z M485 510 L485 400 L483 400 C452 476 372 520 282 520 C145 520 53 414 53 255 C53 96 144 -10 281 -10 C372 -10 453 34 483 109 L485 109 L485 -11 C485 -125 409 -201 294 -201 C190 -201 117 -135 111 -36 L70 -36 C74 -158 163 -240 294 -240 C434 -240 528 -146 528 -6 L528 510 L485 510 Z M291 28 C175 28 97 119 97 255 C97 391 175 482 291 482 C407 482 485 391 485 255 C485 119 407 28 291 28 L291 28 Z " />
<glyph glyph-name="Gdotaccent" unicode="&#x120;" horiz-adv-x="777" d="M397 841 C417 841 430 853 430 872 C430 891 417 904 397 904 C378 904 365 891 365 872 C365 853 378 841 397 841 L397 841 Z M374 391 L374 349 L674 349 C663 159 554 34 396 34 C219 34 101 174 101 385 C101 596 219 736 396 736 C534 736 643 650 668 520 L716 520 C688 676 560 780 396 780 C191 780 55 622 55 385 C55 148 191 -10 396 -10 C592 -10 722 143 722 372 L722 391 L374 391 Z " />
<glyph glyph-name="gdotaccent" unicode="&#x121;" horiz-adv-x="622" d="M297 660 C317 660 330 672 330 691 C330 710 317 723 297 723 C278 723 265 710 265 691 C265 672 278 660 297 660 L297 660 Z M485 510 L485 400 L483 400 C452 476 372 520 282 520 C145 520 53 414 53 255 C53 96 144 -10 281 -10 C372 -10 453 34 483 109 L485 109 L485 -11 C485 -125 409 -201 294 -201 C190 -201 117 -135 111 -36 L70 -36 C74 -158 163 -240 294 -240 C434 -240 528 -146 528 -6 L528 510 L485 510 Z M291 28 C175 28 97 119 97 255 C97 391 175 482 291 482 C407 482 485 391 485 255 C485 119 407 28 291 28 L291 28 Z " />
<glyph glyph-name="Gcommaaccent" unicode="&#x122;" horiz-adv-x="777" d="M374 391 L374 349 L674 349 C663 159 554 34 396 34 C219 34 101 174 101 385 C101 596 219 736 396 736 C534 736 643 650 668 520 L716 520 C688 676 560 780 396 780 C191 780 55 622 55 385 C55 148 191 -10 396 -10 C592 -10 722 143 722 372 L722 391 L374 391 Z M398 -77 C379 -77 366 -90 366 -109 C366 -126 378 -137 395 -137 C399 -137 402 -137 406 -136 C404 -172 390 -205 370 -223 L375 -240 C409 -220 432 -173 432 -123 C432 -95 418 -77 398 -77 L398 -77 Z " />
<glyph glyph-name="gcommaaccent" unicode="&#x123;" horiz-adv-x="622" d="M298 622 C317 622 330 635 330 654 C330 671 319 682 302 682 C298 682 294 681 290 681 C292 713 306 742 326 758 L316 775 C285 750 264 707 264 668 C264 640 278 622 298 622 L298 622 Z M485 510 L485 400 L483 400 C452 476 372 520 282 520 C145 520 53 414 53 255 C53 96 144 -10 281 -10 C372 -10 453 34 483 109 L485 109 L485 -11 C485 -125 409 -201 294 -201 C190 -201 117 -135 111 -36 L70 -36 C74 -158 163 -240 294 -240 C434 -240 528 -146 528 -6 L528 510 L485 510 Z M291 28 C175 28 97 119 97 255 C97 391 175 482 291 482 C407 482 485 391 485 255 C485 119 407 28 291 28 L291 28 Z " />
<glyph glyph-name="Hbar" unicode="&#x126;" horiz-adv-x="743" d="M711 627 L636 627 L636 770 L591 770 L591 627 L152 627 L152 770 L107 770 L107 627 L32 627 L32 590 L107 590 L107 0 L152 0 L152 371 L591 371 L591 0 L636 0 L636 590 L711 590 L711 627 Z M591 413 L152 413 L152 590 L591 590 L591 413 Z " />
<glyph glyph-name="hbar" unicode="&#x127;" horiz-adv-x="599" d="M323 520 C238 520 165 476 139 410 L137 410 L137 617 L333 617 L333 653 L137 653 L137 770 L94 770 L94 653 L18 653 L18 617 L94 617 L94 0 L137 0 L137 281 C137 401 208 481 314 481 C408 481 471 417 471 322 L471 0 L514 0 L514 317 C514 439 438 520 323 520 L323 520 Z " />
<glyph glyph-name="Imacron" unicode="&#x12a;" horiz-adv-x="257" d="M4 847 L254 847 L254 883 L4 883 L4 847 Z M106 0 L151 0 L151 770 L106 770 L106 0 Z " />
<glyph glyph-name="imacron" unicode="&#x12b;" horiz-adv-x="239" d="M5 703 L5 667 L235 667 L235 703 L5 703 Z M98 0 L141 0 L141 510 L98 510 L98 0 Z " />
<glyph glyph-name="Iogonek" unicode="&#x12e;" horiz-adv-x="257" d="M151 770 L106 770 L106 1 C48 -62 11 -127 11 -164 C11 -210 45 -240 95 -240 C113 -240 135 -235 151 -227 L151 -193 C137 -201 118 -206 103 -206 C74 -206 54 -187 54 -158 C54 -123 93 -60 151 0 L151 770 Z " />
<glyph glyph-name="iogonek" unicode="&#x12f;" horiz-adv-x="239" d="M119 724 C100 724 87 711 87 692 C87 673 100 661 119 661 C139 661 152 673 152 692 C152 711 139 724 119 724 L119 724 Z M98 3 C39 -61 1 -126 1 -164 C1 -210 35 -240 85 -240 C103 -240 125 -235 141 -227 L141 -193 C127 -201 108 -206 93 -206 C64 -206 44 -187 44 -158 C44 -123 83 -60 141 0 L141 510 L98 510 L98 3 Z " />
<glyph glyph-name="Idotaccent" unicode="&#x130;" horiz-adv-x="257" d="M128 841 C148 841 161 853 161 872 C161 891 148 904 128 904 C109 904 96 891 96 872 C96 853 109 841 128 841 L128 841 Z M106 0 L151 0 L151 770 L106 770 L106 0 Z " />
<glyph glyph-name="dotlessi" unicode="&#x131;" horiz-adv-x="239" d="M98 0 L141 0 L141 510 L98 510 L98 0 Z " />
<glyph glyph-name="Kcommaaccent" unicode="&#x136;" horiz-adv-x="677" d="M106 0 L151 0 L151 770 L106 770 L106 0 Z M240 401 L648 770 L593 770 L179 398 L622 0 L682 0 L240 401 Z M364 -77 C345 -77 332 -90 332 -109 C332 -126 344 -137 361 -137 C365 -137 368 -137 372 -136 C370 -172 356 -205 336 -223 L341 -240 C375 -220 398 -173 398 -123 C398 -95 384 -77 364 -77 L364 -77 Z " />
<glyph glyph-name="kcommaaccent" unicode="&#x137;" horiz-adv-x="563" d="M94 0 L137 0 L137 770 L94 770 L94 0 Z M221 283 L520 510 L463 510 L159 281 L509 0 L567 0 L221 283 Z M269 -77 C250 -77 237 -90 237 -109 C237 -126 249 -137 266 -137 C270 -137 273 -137 277 -136 C275 -172 261 -205 241 -223 L246 -240 C280 -220 303 -173 303 -123 C303 -95 289 -77 269 -77 L269 -77 Z " />
<glyph glyph-name="Lacute" unicode="&#x139;" horiz-adv-x="544" d="M242 1000 L193 1000 L102 840 L138 840 L242 1000 Z M151 42 L151 770 L106 770 L106 0 L524 0 L524 42 L151 42 Z " />
<glyph glyph-name="lacute" unicode="&#x13a;" horiz-adv-x="239" d="M93 840 L129 840 L233 1000 L184 1000 L93 840 Z M98 0 L141 0 L141 770 L98 770 L98 0 Z " />
<glyph glyph-name="Lcommaaccent" unicode="&#x13b;" horiz-adv-x="544" d="M151 42 L151 770 L106 770 L106 0 L524 0 L524 42 L151 42 Z M267 -77 C248 -77 235 -90 235 -109 C235 -126 247 -137 264 -137 C268 -137 271 -137 275 -136 C273 -172 259 -205 239 -223 L244 -240 C278 -220 301 -173 301 -123 C301 -95 287 -77 267 -77 L267 -77 Z " />
<glyph glyph-name="lcommaaccent" unicode="&#x13c;" horiz-adv-x="239" d="M141 770 L98 770 L98 0 L141 0 L141 770 Z M120 -77 C101 -77 88 -90 88 -109 C88 -126 100 -137 117 -137 C121 -137 124 -137 128 -136 C126 -172 112 -205 92 -223 L97 -240 C131 -220 154 -173 154 -123 C154 -95 140 -77 120 -77 L120 -77 Z " />
<glyph glyph-name="Lcaron" unicode="&#x13d;" horiz-adv-x="544" d="M337 769 L297 779 L242 560 L276 551 L337 769 Z M151 42 L151 770 L106 770 L106 0 L524 0 L524 42 L151 42 Z " />
<glyph glyph-name="lcaron" unicode="&#x13e;" horiz-adv-x="235" d="M220 551 L281 769 L241 779 L186 560 L220 551 Z M98 0 L141 0 L141 770 L98 770 L98 0 Z " />
<glyph glyph-name="Lslash" unicode="&#x141;" horiz-adv-x="551" d="M158 42 L158 343 L323 450 L323 500 L158 393 L158 770 L113 770 L113 367 L34 316 L34 266 L113 317 L113 0 L531 0 L531 42 L158 42 Z " />
<glyph glyph-name="lslash" unicode="&#x142;" horiz-adv-x="276" d="M227 500 L159 434 L159 770 L116 770 L116 393 L48 326 L48 276 L116 343 L116 0 L159 0 L159 384 L227 450 L227 500 Z " />
<glyph glyph-name="Nacute" unicode="&#x143;" horiz-adv-x="741" d="M484 1000 L435 1000 L344 840 L380 840 L484 1000 Z M592 770 L592 77 L590 77 L154 770 L106 770 L106 0 L151 0 L151 691 L153 691 L589 0 L635 0 L635 770 L592 770 Z " />
<glyph glyph-name="nacute" unicode="&#x144;" horiz-adv-x="599" d="M417 770 L368 770 L277 610 L313 610 L417 770 Z M323 520 C238 520 165 476 139 410 L137 410 L137 510 L94 510 L94 0 L137 0 L137 281 C137 401 208 481 314 481 C408 481 471 417 471 322 L471 0 L514 0 L514 317 C514 439 438 520 323 520 L323 520 Z " />
<glyph glyph-name="Ncommaaccent" unicode="&#x145;" horiz-adv-x="741" d="M592 770 L592 77 L590 77 L154 770 L106 770 L106 0 L151 0 L151 691 L153 691 L589 0 L635 0 L635 770 L592 770 Z M371 -77 C352 -77 339 -90 339 -109 C339 -126 351 -137 368 -137 C372 -137 375 -137 379 -136 C377 -172 363 -205 343 -223 L348 -240 C382 -220 405 -173 405 -123 C405 -95 391 -77 371 -77 L371 -77 Z " />
<glyph glyph-name="ncommaaccent" unicode="&#x146;" horiz-adv-x="599" d="M323 520 C238 520 165 476 139 410 L137 410 L137 510 L94 510 L94 0 L137 0 L137 281 C137 401 208 481 314 481 C408 481 471 417 471 322 L471 0 L514 0 L514 317 C514 439 438 520 323 520 L323 520 Z M304 -77 C285 -77 272 -90 272 -109 C272 -126 284 -137 301 -137 C305 -137 308 -137 312 -136 C310 -172 296 -205 276 -223 L281 -240 C315 -220 338 -173 338 -123 C338 -95 324 -77 304 -77 L304 -77 Z " />
<glyph glyph-name="Ncaron" unicode="&#x147;" horiz-adv-x="741" d="M344 840 L398 840 L515 990 L470 990 L372 866 L370 866 L272 990 L227 990 L344 840 Z M592 770 L592 77 L590 77 L154 770 L106 770 L106 0 L151 0 L151 691 L153 691 L589 0 L635 0 L635 770 L592 770 Z " />
<glyph glyph-name="ncaron" unicode="&#x148;" horiz-adv-x="599" d="M277 620 L331 620 L448 770 L403 770 L305 646 L303 646 L205 770 L160 770 L277 620 Z M323 520 C238 520 165 476 139 410 L137 410 L137 510 L94 510 L94 0 L137 0 L137 281 C137 401 208 481 314 481 C408 481 471 417 471 322 L471 0 L514 0 L514 317 C514 439 438 520 323 520 L323 520 Z " />
<glyph glyph-name="Eng" unicode="&#x14a;" horiz-adv-x="741" d="M592 770 L592 77 L590 77 L154 770 L106 770 L106 0 L151 0 L151 691 L153 691 L590 -3 L590 -20 C590 -126 526 -196 430 -196 C403 -196 371 -190 351 -180 L341 -220 C366 -232 402 -240 430 -240 C553 -240 635 -150 635 -15 L635 770 L592 770 Z " />
<glyph glyph-name="eng" unicode="&#x14b;" horiz-adv-x="599" d="M323 520 C238 520 165 476 139 410 L137 410 L137 510 L94 510 L94 0 L137 0 L137 281 C137 401 208 481 314 481 C408 481 471 417 471 322 L471 -73 C471 -150 426 -202 358 -202 C330 -202 296 -196 272 -186 L261 -222 C284 -233 321 -240 353 -240 C450 -240 514 -172 514 -69 L514 317 C514 439 438 520 323 520 L323 520 Z " />
<glyph glyph-name="Omacron" unicode="&#x14c;" horiz-adv-x="798" d="M274 847 L524 847 L524 883 L274 883 L274 847 Z M399 -10 C605 -10 743 148 743 385 C743 622 605 780 399 780 C193 780 55 622 55 385 C55 148 193 -10 399 -10 L399 -10 Z M399 34 C220 34 101 174 101 385 C101 596 220 736 399 736 C578 736 697 596 697 385 C697 174 578 34 399 34 L399 34 Z " />
<glyph glyph-name="omacron" unicode="&#x14d;" horiz-adv-x="580" d="M165 667 L415 667 L415 703 L165 703 L165 667 Z M290 -10 C433 -10 528 96 528 255 C528 414 433 520 290 520 C147 520 52 414 52 255 C52 96 147 -10 290 -10 L290 -10 Z M290 28 C174 28 96 119 96 255 C96 391 174 482 290 482 C406 482 484 391 484 255 C484 119 406 28 290 28 L290 28 Z " />
<glyph glyph-name="Ohungarumlaut" unicode="&#x150;" horiz-adv-x="798" d="M320 840 L356 840 L450 1000 L401 1000 L320 840 Z M437 840 L473 840 L567 1000 L518 1000 L437 840 Z M399 -10 C605 -10 743 148 743 385 C743 622 605 780 399 780 C193 780 55 622 55 385 C55 148 193 -10 399 -10 L399 -10 Z M399 34 C220 34 101 174 101 385 C101 596 220 736 399 736 C578 736 697 596 697 385 C697 174 578 34 399 34 L399 34 Z " />
<glyph glyph-name="ohungarumlaut" unicode="&#x151;" horiz-adv-x="580" d="M211 610 L247 610 L341 770 L292 770 L211 610 Z M328 610 L364 610 L458 770 L409 770 L328 610 Z M290 -10 C433 -10 528 96 528 255 C528 414 433 520 290 520 C147 520 52 414 52 255 C52 96 147 -10 290 -10 L290 -10 Z M290 28 C174 28 96 119 96 255 C96 391 174 482 290 482 C406 482 484 391 484 255 C484 119 406 28 290 28 L290 28 Z " />
<glyph glyph-name="OE" unicode="&#x152;" horiz-adv-x="1205" d="M735 42 L735 378 L1107 378 L1107 420 L735 420 L735 728 L1143 728 L1143 770 L694 770 L694 575 L692 575 C641 703 535 780 396 780 C192 780 56 622 56 385 C56 148 192 -10 396 -10 C535 -10 641 67 692 195 L694 195 L694 0 L1154 0 L1154 42 L735 42 Z M396 34 C220 34 102 174 102 385 C102 596 220 736 396 736 C572 736 690 596 690 385 C690 174 572 34 396 34 L396 34 Z " />
<glyph glyph-name="oe" unicode="&#x153;" horiz-adv-x="990" d="M937 254 C937 414 844 520 705 520 C603 520 528 457 498 355 L496 355 C467 456 390 520 286 520 C146 520 53 414 53 255 C53 96 146 -10 286 -10 C389 -10 466 53 495 154 L497 154 C527 53 603 -10 705 -10 C820 -10 912 63 936 173 L891 173 C870 86 796 28 706 28 C596 28 522 113 518 243 L937 243 L937 254 Z M286 28 C173 28 97 119 97 255 C97 391 173 481 286 481 C399 481 475 391 475 255 C475 119 399 28 286 28 L286 28 Z M706 481 C810 481 882 402 892 282 L519 282 C529 402 601 481 706 481 L706 481 Z " />
<glyph glyph-name="Racute" unicode="&#x154;" horiz-adv-x="692" d="M440 1000 L391 1000 L300 840 L336 840 L440 1000 Z M648 0 L452 348 C560 371 628 452 628 564 C628 688 530 770 383 770 L106 770 L106 0 L151 0 L151 341 L384 341 C391 341 397 341 404 342 L596 0 L648 0 Z M151 383 L151 728 L388 728 C504 728 582 661 582 561 C582 454 505 383 389 383 L151 383 Z " />
<glyph glyph-name="racute" unicode="&#x155;" horiz-adv-x="409" d="M316 769 L267 769 L176 609 L212 609 L316 769 Z M324 520 C245 520 171 472 139 401 L137 401 L137 510 L94 510 L94 0 L137 0 L137 267 C137 392 207 476 311 476 C341 476 375 471 396 464 L396 510 C378 516 349 520 324 520 L324 520 Z " />
<glyph glyph-name="Rcommaaccent" unicode="&#x156;" horiz-adv-x="692" d="M648 0 L452 348 C560 371 628 452 628 564 C628 688 530 770 383 770 L106 770 L106 0 L151 0 L151 341 L384 341 C391 341 397 341 404 342 L596 0 L648 0 Z M151 383 L151 728 L388 728 C504 728 582 661 582 561 C582 454 505 383 389 383 L151 383 Z M358 -77 C339 -77 326 -90 326 -109 C326 -126 338 -137 355 -137 C359 -137 362 -137 366 -136 C364 -172 350 -205 330 -223 L335 -240 C369 -220 392 -173 392 -123 C392 -95 378 -77 358 -77 L358 -77 Z " />
<glyph glyph-name="rcommaaccent" unicode="&#x157;" horiz-adv-x="409" d="M324 520 C245 520 171 472 139 401 L137 401 L137 510 L94 510 L94 0 L137 0 L137 267 C137 392 207 476 311 476 C341 476 375 471 396 464 L396 510 C378 516 349 520 324 520 L324 520 Z M119 -77 C100 -77 87 -90 87 -109 C87 -126 99 -137 116 -137 C120 -137 123 -137 127 -136 C125 -172 111 -205 91 -223 L96 -240 C130 -220 153 -173 153 -123 C153 -95 139 -77 119 -77 L119 -77 Z " />
<glyph glyph-name="Rcaron" unicode="&#x158;" horiz-adv-x="692" d="M300 840 L354 840 L471 990 L426 990 L328 866 L326 866 L228 990 L183 990 L300 840 Z M648 0 L452 348 C560 371 628 452 628 564 C628 688 530 770 383 770 L106 770 L106 0 L151 0 L151 341 L384 341 C391 341 397 341 404 342 L596 0 L648 0 Z M151 383 L151 728 L388 728 C504 728 582 661 582 561 C582 454 505 383 389 383 L151 383 Z " />
<glyph glyph-name="rcaron" unicode="&#x159;" horiz-adv-x="409" d="M176 619 L230 619 L347 769 L302 769 L204 645 L202 645 L104 769 L59 769 L176 619 Z M324 520 C245 520 171 472 139 401 L137 401 L137 510 L94 510 L94 0 L137 0 L137 267 C137 392 207 476 311 476 C341 476 375 471 396 464 L396 510 C378 516 349 520 324 520 L324 520 Z " />
<glyph glyph-name="Sacute" unicode="&#x15a;" horiz-adv-x="660" d="M301 840 L337 840 L441 1000 L392 1000 L301 840 Z M328 -10 C498 -10 611 77 611 207 C611 372 471 400 339 422 C223 441 115 464 115 575 C115 672 200 736 328 736 C451 736 536 654 542 530 L590 530 C584 680 479 780 328 780 C173 780 69 698 69 575 C69 432 198 405 323 383 C445 362 565 337 565 207 C565 103 470 34 328 34 C195 34 103 121 96 252 L48 252 C55 95 167 -10 328 -10 L328 -10 Z " />
<glyph glyph-name="sacute" unicode="&#x15b;" horiz-adv-x="507" d="M226 610 L262 610 L366 770 L317 770 L226 610 Z M253 -10 C377 -10 459 47 459 133 C459 246 355 267 261 285 C181 300 108 315 108 381 C108 441 166 481 253 481 C339 481 398 429 400 352 L444 352 C442 453 366 520 253 520 C140 520 64 465 64 382 C64 284 157 265 246 248 C332 232 415 215 415 133 C415 70 350 28 253 28 C156 28 91 82 89 162 L45 162 C47 59 130 -10 253 -10 L253 -10 Z " />
<glyph glyph-name="Scedilla" unicode="&#x15e;" horiz-adv-x="660" d="M611 207 C611 372 471 400 339 422 C223 441 115 464 115 575 C115 672 200 736 328 736 C451 736 536 654 542 530 L590 530 C584 680 479 780 328 780 C173 780 69 698 69 575 C69 432 198 405 323 383 C445 362 565 337 565 207 C565 103 470 34 328 34 C195 34 103 121 96 252 L48 252 C55 104 155 2 302 -9 L237 -113 L265 -130 C277 -114 303 -103 328 -103 C360 -103 381 -122 381 -150 C381 -184 347 -206 296 -206 C266 -206 230 -195 206 -178 L206 -215 C228 -230 264 -240 295 -240 C372 -240 424 -204 424 -150 C424 -101 391 -69 341 -69 C332 -69 321 -71 309 -75 L307 -73 L349 -10 C507 -3 611 82 611 207 L611 207 Z " />
<glyph glyph-name="scedilla" unicode="&#x15f;" horiz-adv-x="507" d="M459 133 C459 246 355 267 261 285 C181 300 108 315 108 381 C108 441 166 481 253 481 C339 481 398 429 400 352 L444 352 C442 453 366 520 253 520 C140 520 64 465 64 382 C64 284 157 265 246 248 C332 232 415 215 415 133 C415 70 350 28 253 28 C156 28 91 82 89 162 L45 162 C47 66 119 0 227 -9 L162 -113 L190 -130 C202 -114 228 -103 253 -103 C285 -103 306 -122 306 -150 C306 -184 272 -206 221 -206 C191 -206 155 -195 131 -178 L131 -215 C153 -230 189 -240 220 -240 C297 -240 349 -204 349 -150 C349 -101 316 -69 266 -69 C257 -69 246 -71 234 -75 L232 -73 L274 -9 C386 -3 459 52 459 133 L459 133 Z " />
<glyph glyph-name="Scaron" unicode="&#x160;" horiz-adv-x="660" d="M301 840 L355 840 L472 990 L427 990 L329 866 L327 866 L229 990 L184 990 L301 840 Z M339 422 C223 441 115 464 115 575 C115 672 200 736 328 736 C451 736 536 654 542 530 L590 530 C584 680 479 780 328 780 C173 780 69 698 69 575 C69 432 198 405 323 383 C445 362 565 337 565 207 C565 103 470 34 328 34 C195 34 103 121 96 252 L48 252 C55 95 167 -10 328 -10 C498 -10 611 77 611 207 C611 372 471 400 339 422 L339 422 Z " />
<glyph glyph-name="scaron" unicode="&#x161;" horiz-adv-x="507" d="M226 620 L280 620 L397 770 L352 770 L254 646 L252 646 L154 770 L109 770 L226 620 Z M261 285 C181 300 108 315 108 381 C108 441 166 481 253 481 C339 481 398 429 400 352 L444 352 C442 453 366 520 253 520 C140 520 64 465 64 382 C64 284 157 265 246 248 C332 232 415 215 415 133 C415 70 350 28 253 28 C156 28 91 82 89 162 L45 162 C47 59 130 -10 253 -10 C377 -10 459 47 459 133 C459 246 355 267 261 285 L261 285 Z " />
<glyph glyph-name="uni0162" unicode="&#x162;" horiz-adv-x="573" d="M309 728 L556 728 L556 770 L17 770 L17 728 L264 728 L264 3 L191 -113 L219 -130 C231 -114 257 -103 282 -103 C314 -103 335 -122 335 -150 C335 -184 301 -206 250 -206 C220 -206 184 -195 160 -178 L160 -215 C182 -230 218 -240 249 -240 C326 -240 378 -204 378 -150 C378 -101 345 -69 295 -69 C286 -69 275 -71 263 -75 L261 -73 L309 0 L309 728 Z " />
<glyph glyph-name="uni0163" unicode="&#x163;" horiz-adv-x="363" d="M341 474 L341 510 L154 510 L154 660 L112 660 L112 510 L22 510 L22 474 L111 474 L111 130 C111 78 132 36 169 12 L90 -113 L118 -130 C130 -114 156 -103 181 -103 C213 -103 234 -122 234 -150 C234 -184 200 -206 149 -206 C119 -206 83 -195 59 -178 L59 -215 C81 -230 117 -240 148 -240 C225 -240 277 -204 277 -150 C277 -101 244 -69 194 -69 C185 -69 174 -71 162 -75 L160 -73 L205 -4 C218 -8 233 -10 248 -10 C280 -10 317 -3 341 8 L341 44 C319 34 287 28 261 28 C197 28 154 68 154 127 L154 474 L341 474 Z " />
<glyph glyph-name="Tcaron" unicode="&#x164;" horiz-adv-x="573" d="M260 840 L314 840 L431 990 L386 990 L288 866 L286 866 L188 990 L143 990 L260 840 Z M556 770 L17 770 L17 728 L264 728 L264 0 L309 0 L309 728 L556 728 L556 770 Z " />
<glyph glyph-name="tcaron" unicode="&#x165;" horiz-adv-x="363" d="M314 769 L274 779 L219 560 L253 551 L314 769 Z M341 474 L341 510 L154 510 L154 660 L112 660 L112 510 L22 510 L22 474 L111 474 L111 130 C111 46 166 -10 248 -10 C280 -10 317 -3 341 8 L341 44 C319 34 287 28 261 28 C197 28 154 68 154 127 L154 474 L341 474 Z " />
<glyph glyph-name="Tbar" unicode="&#x166;" horiz-adv-x="600" d="M567 728 L567 770 L28 770 L28 728 L275 728 L275 404 L120 404 L120 368 L275 368 L275 0 L320 0 L320 368 L498 368 L498 404 L320 404 L320 728 L567 728 Z " />
<glyph glyph-name="tbar" unicode="&#x167;" horiz-adv-x="382" d="M353 474 L353 510 L166 510 L166 660 L124 660 L124 510 L34 510 L34 474 L123 474 L123 285 L34 285 L34 249 L123 249 L123 130 C123 46 178 -10 260 -10 C292 -10 329 -3 353 8 L353 44 C331 34 299 28 273 28 C209 28 166 68 166 127 L166 249 L353 249 L353 285 L166 285 L166 474 L353 474 Z " />
<glyph glyph-name="Umacron" unicode="&#x16a;" horiz-adv-x="724" d="M237 847 L487 847 L487 883 L237 883 L237 847 Z M362 -10 C521 -10 627 101 627 267 L627 770 L584 770 L584 262 C584 125 495 34 362 34 C230 34 142 125 142 262 L142 770 L97 770 L97 267 C97 101 203 -10 362 -10 L362 -10 Z " />
<glyph glyph-name="umacron" unicode="&#x16b;" horiz-adv-x="580" d="M167 667 L417 667 L417 703 L167 703 L167 667 Z M290 -10 C413 -10 495 74 495 199 L495 510 L452 510 L452 204 C452 98 387 28 290 28 C193 28 128 98 128 204 L128 510 L85 510 L85 199 C85 74 167 -10 290 -10 L290 -10 Z " />
<glyph glyph-name="Uring" unicode="&#x16e;" horiz-adv-x="724" d="M362 832 C427 832 470 874 470 936 C470 998 427 1040 362 1040 C297 1040 254 998 254 936 C254 874 297 832 362 832 L362 832 Z M362 866 C321 866 294 894 294 936 C294 978 321 1006 362 1006 C403 1006 430 978 430 936 C430 894 403 866 362 866 L362 866 Z M362 -10 C521 -10 627 101 627 267 L627 770 L584 770 L584 262 C584 125 495 34 362 34 C230 34 142 125 142 262 L142 770 L97 770 L97 267 C97 101 203 -10 362 -10 L362 -10 Z " />
<glyph glyph-name="uring" unicode="&#x16f;" horiz-adv-x="580" d="M292 572 C357 572 400 614 400 676 C400 738 357 780 292 780 C227 780 184 738 184 676 C184 614 227 572 292 572 L292 572 Z M292 606 C251 606 224 634 224 676 C224 718 251 746 292 746 C333 746 360 718 360 676 C360 634 333 606 292 606 L292 606 Z M290 -10 C413 -10 495 74 495 199 L495 510 L452 510 L452 204 C452 98 387 28 290 28 C193 28 128 98 128 204 L128 510 L85 510 L85 199 C85 74 167 -10 290 -10 L290 -10 Z " />
<glyph glyph-name="Uhungarumlaut" unicode="&#x170;" horiz-adv-x="724" d="M283 840 L319 840 L413 1000 L364 1000 L283 840 Z M400 840 L436 840 L530 1000 L481 1000 L400 840 Z M362 -10 C521 -10 627 101 627 267 L627 770 L584 770 L584 262 C584 125 495 34 362 34 C230 34 142 125 142 262 L142 770 L97 770 L97 267 C97 101 203 -10 362 -10 L362 -10 Z " />
<glyph glyph-name="uhungarumlaut" unicode="&#x171;" horiz-adv-x="580" d="M213 610 L249 610 L343 770 L294 770 L213 610 Z M330 610 L366 610 L460 770 L411 770 L330 610 Z M290 -10 C413 -10 495 74 495 199 L495 510 L452 510 L452 204 C452 98 387 28 290 28 C193 28 128 98 128 204 L128 510 L85 510 L85 199 C85 74 167 -10 290 -10 L290 -10 Z " />
<glyph glyph-name="Uogonek" unicode="&#x172;" horiz-adv-x="724" d="M584 770 L584 262 C584 125 495 34 362 34 C230 34 142 125 142 262 L142 770 L97 770 L97 267 C97 101 203 -10 362 -10 L378 -10 C325 -69 292 -129 292 -164 C292 -210 326 -240 376 -240 C394 -240 416 -235 432 -227 L432 -193 C418 -201 399 -206 384 -206 C355 -206 335 -187 335 -158 C335 -124 373 -62 429 -3 C550 24 627 126 627 267 L627 770 L584 770 Z " />
<glyph glyph-name="uogonek" unicode="&#x173;" horiz-adv-x="580" d="M452 510 L452 204 C452 98 387 28 290 28 C193 28 128 98 128 204 L128 510 L85 510 L85 199 C85 74 167 -10 290 -10 L300 -10 C248 -70 215 -129 215 -164 C215 -210 249 -240 299 -240 C317 -240 339 -235 355 -227 L355 -193 C341 -201 322 -206 307 -206 C278 -206 258 -187 258 -158 C258 -123 296 -61 353 -2 C440 22 495 97 495 199 L495 510 L452 510 Z " />
<glyph glyph-name="Wcircumflex" unicode="&#x174;" horiz-adv-x="989" d="M493 964 L495 964 L593 840 L638 840 L521 990 L467 990 L350 840 L395 840 L493 964 Z M918 770 L721 44 L719 44 L524 770 L466 770 L269 44 L267 44 L72 770 L21 770 L238 0 L298 0 L492 724 L494 724 L690 0 L751 0 L967 770 L918 770 Z " />
<glyph glyph-name="wcircumflex" unicode="&#x175;" horiz-adv-x="795" d="M397 744 L399 744 L497 620 L542 620 L425 770 L371 770 L254 620 L299 620 L397 744 Z M727 510 L574 46 L572 46 L421 510 L376 510 L223 46 L221 46 L70 510 L23 510 L196 0 L248 0 L397 464 L399 464 L547 0 L599 0 L772 510 L727 510 Z " />
<glyph glyph-name="Ycircumflex" unicode="&#x176;" horiz-adv-x="641" d="M320 964 L322 964 L420 840 L465 840 L348 990 L294 990 L177 840 L222 840 L320 964 Z M634 770 L582 770 L324 350 L322 350 L62 770 L7 770 L298 305 L298 0 L343 0 L343 304 L634 770 Z " />
<glyph glyph-name="ycircumflex" unicode="&#x177;" horiz-adv-x="525" d="M264 744 L266 744 L364 620 L409 620 L292 770 L238 770 L121 620 L166 620 L264 744 Z M461 510 L263 43 L261 43 L65 510 L18 510 L240 -6 L145 -230 L190 -230 L506 510 L461 510 Z " />
<glyph glyph-name="Ydieresis" unicode="&#x178;" horiz-adv-x="641" d="M253 843 C273 843 286 855 286 873 C286 892 273 905 253 905 C234 905 221 892 221 873 C221 855 234 843 253 843 L253 843 Z M387 843 C407 843 420 855 420 873 C420 892 407 905 387 905 C368 905 355 892 355 873 C355 855 368 843 387 843 L387 843 Z M634 770 L582 770 L324 350 L322 350 L62 770 L7 770 L298 305 L298 0 L343 0 L343 304 L634 770 Z " />
<glyph glyph-name="Zacute" unicode="&#x179;" horiz-adv-x="593" d="M411 1000 L362 1000 L271 840 L307 840 L411 1000 Z M81 42 L81 44 L552 724 L552 770 L51 770 L51 728 L498 728 L498 726 L27 46 L27 0 L559 0 L559 42 L81 42 Z " />
<glyph glyph-name="zacute" unicode="&#x17a;" horiz-adv-x="462" d="M341 770 L292 770 L201 610 L237 610 L341 770 Z M78 36 L78 38 L419 470 L419 510 L50 510 L50 473 L369 473 L369 471 L32 39 L32 0 L424 0 L424 36 L78 36 Z " />
<glyph glyph-name="Zdotaccent" unicode="&#x17b;" horiz-adv-x="593" d="M297 841 C317 841 330 853 330 872 C330 891 317 904 297 904 C278 904 265 891 265 872 C265 853 278 841 297 841 L297 841 Z M81 42 L81 44 L552 724 L552 770 L51 770 L51 728 L498 728 L498 726 L27 46 L27 0 L559 0 L559 42 L81 42 Z " />
<glyph glyph-name="zdotaccent" unicode="&#x17c;" horiz-adv-x="462" d="M227 661 C247 661 260 673 260 692 C260 711 247 724 227 724 C208 724 195 711 195 692 C195 673 208 661 227 661 L227 661 Z M78 36 L78 38 L419 470 L419 510 L50 510 L50 473 L369 473 L369 471 L32 39 L32 0 L424 0 L424 36 L78 36 Z " />
<glyph glyph-name="Zcaron" unicode="&#x17d;" horiz-adv-x="593" d="M271 840 L325 840 L442 990 L397 990 L299 866 L297 866 L199 990 L154 990 L271 840 Z M81 42 L81 44 L552 724 L552 770 L51 770 L51 728 L498 728 L498 726 L27 46 L27 0 L559 0 L559 42 L81 42 Z " />
<glyph glyph-name="zcaron" unicode="&#x17e;" horiz-adv-x="462" d="M201 620 L255 620 L372 770 L327 770 L229 646 L227 646 L129 770 L84 770 L201 620 Z M78 36 L78 38 L419 470 L419 510 L50 510 L50 473 L369 473 L369 471 L32 39 L32 0 L424 0 L424 36 L78 36 Z " />
<glyph glyph-name="florin" unicode="&#x192;" horiz-adv-x="653" d="M535 742 C569 742 603 735 628 726 L639 760 C611 773 572 780 533 780 C445 780 383 720 366 618 L332 416 L155 416 L155 380 L326 380 L290 169 C275 81 227 29 160 29 C126 29 92 35 67 45 L56 10 C84 -2 123 -10 162 -10 C250 -10 313 50 330 152 L368 380 L557 380 L557 416 L374 416 L405 600 C420 689 468 742 535 742 L535 742 Z " />
<glyph glyph-name="Scommaaccent" unicode="&#x218;" horiz-adv-x="660" d="M339 422 C223 441 115 464 115 575 C115 672 200 736 328 736 C451 736 536 654 542 530 L590 530 C584 680 479 780 328 780 C173 780 69 698 69 575 C69 432 198 405 323 383 C445 362 565 337 565 207 C565 103 470 34 328 34 C195 34 103 121 96 252 L48 252 C55 95 167 -10 328 -10 C498 -10 611 77 611 207 C611 372 471 400 339 422 L339 422 Z M328 -77 C309 -77 296 -90 296 -109 C296 -126 308 -137 325 -137 C329 -137 332 -137 336 -136 C334 -172 320 -205 300 -223 L305 -240 C339 -220 362 -173 362 -123 C362 -95 348 -77 328 -77 L328 -77 Z " />
<glyph glyph-name="scommaaccent" unicode="&#x219;" horiz-adv-x="507" d="M261 285 C181 300 108 315 108 381 C108 441 166 481 253 481 C339 481 398 429 400 352 L444 352 C442 453 366 520 253 520 C140 520 64 465 64 382 C64 284 157 265 246 248 C332 232 415 215 415 133 C415 70 350 28 253 28 C156 28 91 82 89 162 L45 162 C47 59 130 -10 253 -10 C377 -10 459 47 459 133 C459 246 355 267 261 285 L261 285 Z M253 -77 C234 -77 221 -90 221 -109 C221 -126 233 -137 250 -137 C254 -137 257 -137 261 -136 C259 -172 245 -205 225 -223 L230 -240 C264 -220 287 -173 287 -123 C287 -95 273 -77 253 -77 L253 -77 Z " />
<glyph glyph-name="uni021A" unicode="&#x21a;" horiz-adv-x="573" d="M17 770 L17 728 L264 728 L264 0 L309 0 L309 728 L556 728 L556 770 L17 770 Z M282 -77 C263 -77 250 -90 250 -109 C250 -126 262 -137 279 -137 C283 -137 286 -137 290 -136 C288 -172 274 -205 254 -223 L259 -240 C293 -220 316 -173 316 -123 C316 -95 302 -77 282 -77 L282 -77 Z " />
<glyph glyph-name="uni021B" unicode="&#x21b;" horiz-adv-x="363" d="M341 474 L341 510 L154 510 L154 660 L112 660 L112 510 L22 510 L22 474 L111 474 L111 130 C111 46 166 -10 248 -10 C280 -10 317 -3 341 8 L341 44 C319 34 287 28 261 28 C197 28 154 68 154 127 L154 474 L341 474 Z M181 -77 C162 -77 149 -90 149 -109 C149 -126 161 -137 178 -137 C182 -137 185 -137 189 -136 C187 -172 173 -205 153 -223 L158 -240 C192 -220 215 -173 215 -123 C215 -95 201 -77 181 -77 L181 -77 Z " />
<glyph glyph-name="uni0237" unicode="&#x237;" horiz-adv-x="239" d="M98 -230 L141 -230 L141 510 L98 510 L98 -230 Z " />
<glyph glyph-name="circumflex" unicode="&#x2c6;" horiz-adv-x="328" d="M191 720 L137 720 L20 570 L65 570 L163 694 L165 694 L263 570 L308 570 L191 720 Z " />
<glyph glyph-name="caron" unicode="&#x2c7;" horiz-adv-x="328" d="M263 720 L165 596 L163 596 L65 720 L20 720 L137 570 L191 570 L308 720 L263 720 Z " />
<glyph glyph-name="breve" unicode="&#x2d8;" horiz-adv-x="324" d="M162 567 C241 567 294 628 294 720 L255 720 C255 649 218 602 162 602 C106 602 69 649 69 720 L30 720 C30 628 83 567 162 567 L162 567 Z " />
<glyph glyph-name="dotaccent" unicode="&#x2d9;" horiz-adv-x="183" d="M91 622 C111 622 124 634 124 653 C124 672 111 685 91 685 C72 685 59 672 59 653 C59 634 72 622 91 622 L91 622 Z " />
<glyph glyph-name="ring" unicode="&#x2da;" horiz-adv-x="270" d="M135 552 C200 552 243 594 243 656 C243 718 200 760 135 760 C70 760 27 718 27 656 C27 594 70 552 135 552 L135 552 Z M135 586 C94 586 67 614 67 656 C67 698 94 726 135 726 C176 726 203 698 203 656 C203 614 176 586 135 586 L135 586 Z " />
<glyph glyph-name="ogonek" unicode="&#x2db;" horiz-adv-x="203" d="M116 -240 C134 -240 156 -235 172 -227 L172 -193 C158 -201 139 -206 124 -206 C95 -206 75 -187 75 -158 C75 -123 114 -60 172 0 L144 19 C77 -50 32 -123 32 -164 C32 -210 66 -240 116 -240 L116 -240 Z " />
<glyph glyph-name="tilde" unicode="&#x2dc;" horiz-adv-x="388" d="M33 590 L68 590 C71 638 91 667 122 667 C171 667 195 594 266 594 C322 594 355 637 355 710 L320 710 C317 662 297 633 266 633 C217 633 193 706 122 706 C66 706 33 663 33 590 L33 590 Z " />
<glyph glyph-name="hungarumlaut" unicode="&#x2dd;" horiz-adv-x="325" d="M39 570 L75 570 L169 730 L120 730 L39 570 Z M156 570 L192 570 L286 730 L237 730 L156 570 Z " />
<glyph glyph-name="gravecomb" unicode="&#x300;" d="M-40 610 L-131 770 L-180 770 L-76 610 L-40 610 Z " />
<glyph glyph-name="acutecomb" unicode="&#x301;" d="M-173 610 L-137 610 L-33 770 L-82 770 L-173 610 Z " />
<glyph glyph-name="uni0302" unicode="&#x302;" d="M-137 770 L-191 770 L-308 620 L-263 620 L-165 744 L-163 744 L-65 620 L-20 620 L-137 770 Z " />
<glyph glyph-name="tildecomb" unicode="&#x303;" d="M-355 625 L-320 625 C-317 673 -297 702 -266 702 C-217 702 -193 629 -122 629 C-66 629 -33 672 -33 745 L-68 745 C-71 697 -91 668 -122 668 C-171 668 -195 741 -266 741 C-322 741 -355 698 -355 625 L-355 625 Z " />
<glyph glyph-name="uni0304" unicode="&#x304;" d="M-275 667 L-25 667 L-25 703 L-275 703 L-275 667 Z " />
<glyph glyph-name="uni0306" unicode="&#x306;" d="M-162 617 C-83 617 -30 678 -30 770 L-69 770 C-69 699 -106 652 -162 652 C-218 652 -255 699 -255 770 L-294 770 C-294 678 -241 617 -162 617 L-162 617 Z " />
<glyph glyph-name="uni0307" unicode="&#x307;" d="M-92 661 C-72 661 -59 673 -59 692 C-59 711 -72 724 -92 724 C-111 724 -124 711 -124 692 C-124 673 -111 661 -92 661 L-92 661 Z " />
<glyph glyph-name="uni0308" unicode="&#x308;" d="M-226 663 C-206 663 -193 675 -193 693 C-193 712 -206 725 -226 725 C-245 725 -258 712 -258 693 C-258 675 -245 663 -226 663 L-226 663 Z M-92 663 C-72 663 -59 675 -59 693 C-59 712 -72 725 -92 725 C-111 725 -124 712 -124 693 C-124 675 -111 663 -92 663 L-92 663 Z " />
<glyph glyph-name="uni030A" unicode="&#x30a;" d="M-135 572 C-70 572 -27 614 -27 676 C-27 738 -70 780 -135 780 C-200 780 -243 738 -243 676 C-243 614 -200 572 -135 572 L-135 572 Z M-135 606 C-176 606 -203 634 -203 676 C-203 718 -176 746 -135 746 C-94 746 -67 718 -67 676 C-67 634 -94 606 -135 606 L-135 606 Z " />
<glyph glyph-name="uni030B" unicode="&#x30b;" d="M-286 610 L-250 610 L-156 770 L-205 770 L-286 610 Z M-169 610 L-133 610 L-39 770 L-88 770 L-169 610 Z " />
<glyph glyph-name="uni030C" unicode="&#x30c;" d="M-65 770 L-163 646 L-165 646 L-263 770 L-308 770 L-191 620 L-137 620 L-20 770 L-65 770 Z " />
<glyph glyph-name="uni0312" unicode="&#x312;" d="M-38 683 C-42 683 -46 682 -50 682 C-48 714 -34 743 -14 759 L-24 776 C-55 751 -76 708 -76 669 C-76 641 -62 623 -42 623 C-23 623 -10 636 -10 655 C-10 672 -21 683 -38 683 L-38 683 Z " />
<glyph glyph-name="uni0326" unicode="&#x326;" d="M-61 -77 C-80 -77 -93 -90 -93 -109 C-93 -126 -81 -137 -64 -137 C-60 -137 -57 -137 -53 -136 C-55 -172 -69 -205 -89 -223 L-84 -240 C-50 -220 -27 -173 -27 -123 C-27 -95 -41 -77 -61 -77 L-61 -77 Z " />
<glyph glyph-name="uni0327" unicode="&#x327;" d="M-106 -69 C-115 -69 -126 -71 -138 -75 L-140 -73 L-92 0 L-126 21 L-210 -113 L-182 -130 C-170 -114 -144 -103 -119 -103 C-87 -103 -66 -122 -66 -150 C-66 -184 -100 -206 -151 -206 C-181 -206 -217 -195 -241 -178 L-241 -215 C-219 -230 -183 -240 -152 -240 C-75 -240 -23 -204 -23 -150 C-23 -101 -56 -69 -106 -69 L-106 -69 Z " />
<glyph glyph-name="uni0328" unicode="&#x328;" d="M-87 -240 C-69 -240 -47 -235 -31 -227 L-31 -193 C-45 -201 -64 -206 -79 -206 C-108 -206 -128 -187 -128 -158 C-128 -123 -89 -60 -31 0 L-59 19 C-126 -50 -171 -123 -171 -164 C-171 -210 -137 -240 -87 -240 L-87 -240 Z " />
<glyph glyph-name="uni0335" unicode="&#x335;" d="M-360 330 L-45 330 L-45 366 L-360 366 L-360 330 Z " />
<glyph glyph-name="uni0336" unicode="&#x336;" d="M-744 378 L-65 378 L-65 415 L-744 415 L-744 378 Z " />
<glyph glyph-name="uni0337" unicode="&#x337;" d="M-387 -36 L-19 520 L-57 544 L-425 -11 L-387 -36 Z " />
<glyph glyph-name="uni0338" unicode="&#x338;" d="M-524 -37 L-37 779 L-78 805 L-565 -12 L-524 -37 Z " />
<glyph glyph-name="uni0394" unicode="&#x394;" horiz-adv-x="664" d="M360 770 L303 770 L10 0 L654 0 L360 770 Z M331 730 L333 730 L587 42 L75 42 L331 730 Z " />
<glyph glyph-name="uni03A9" unicode="&#x3a9;" horiz-adv-x="769" d="M705 398 C705 627 577 780 385 780 C193 780 65 627 65 398 C65 238 134 105 242 43 L73 44 L73 0 L312 0 L312 43 C191 79 111 221 111 396 C111 600 221 736 385 736 C549 736 659 600 659 396 C659 221 579 79 458 43 L458 0 L697 0 L697 44 L528 43 C636 105 705 238 705 398 L705 398 Z " />
<glyph glyph-name="uni03BC" unicode="&#x3bc;" horiz-adv-x="598" d="M461 510 L461 226 C461 107 392 28 289 28 C198 28 137 90 137 184 L137 510 L94 510 L94 -230 L137 -230 L137 51 C170 12 219 -10 280 -10 C363 -10 434 34 459 99 L461 99 L461 0 L504 0 L504 510 L461 510 Z " />
<glyph glyph-name="pi" unicode="&#x3c0;" horiz-adv-x="583" d="M558 490 L25 490 L25 454 L115 454 L115 0 L158 0 L158 454 L425 454 L425 0 L468 0 L468 454 L558 454 L558 490 Z " />
<glyph glyph-name="Wgrave" unicode="&#x1e80;" horiz-adv-x="989" d="M520 840 L429 1000 L380 1000 L484 840 L520 840 Z M918 770 L721 44 L719 44 L524 770 L466 770 L269 44 L267 44 L72 770 L21 770 L238 0 L298 0 L492 724 L494 724 L690 0 L751 0 L967 770 L918 770 Z " />
<glyph glyph-name="wgrave" unicode="&#x1e81;" horiz-adv-x="795" d="M424 610 L333 770 L284 770 L388 610 L424 610 Z M727 510 L574 46 L572 46 L421 510 L376 510 L223 46 L221 46 L70 510 L23 510 L196 0 L248 0 L397 464 L399 464 L547 0 L599 0 L772 510 L727 510 Z " />
<glyph glyph-name="Wacute" unicode="&#x1e82;" horiz-adv-x="989" d="M607 1000 L558 1000 L467 840 L503 840 L607 1000 Z M918 770 L721 44 L719 44 L524 770 L466 770 L269 44 L267 44 L72 770 L21 770 L238 0 L298 0 L492 724 L494 724 L690 0 L751 0 L967 770 L918 770 Z " />
<glyph glyph-name="wacute" unicode="&#x1e83;" horiz-adv-x="795" d="M511 770 L462 770 L371 610 L407 610 L511 770 Z M727 510 L574 46 L572 46 L421 510 L376 510 L223 46 L221 46 L70 510 L23 510 L196 0 L248 0 L397 464 L399 464 L547 0 L599 0 L772 510 L727 510 Z " />
<glyph glyph-name="Wdieresis" unicode="&#x1e84;" horiz-adv-x="989" d="M426 843 C446 843 459 855 459 873 C459 892 446 905 426 905 C407 905 394 892 394 873 C394 855 407 843 426 843 L426 843 Z M560 843 C580 843 593 855 593 873 C593 892 580 905 560 905 C541 905 528 892 528 873 C528 855 541 843 560 843 L560 843 Z M918 770 L721 44 L719 44 L524 770 L466 770 L269 44 L267 44 L72 770 L21 770 L238 0 L298 0 L492 724 L494 724 L690 0 L751 0 L967 770 L918 770 Z " />
<glyph glyph-name="wdieresis" unicode="&#x1e85;" horiz-adv-x="795" d="M330 663 C350 663 363 675 363 693 C363 712 350 725 330 725 C311 725 298 712 298 693 C298 675 311 663 330 663 L330 663 Z M464 663 C484 663 497 675 497 693 C497 712 484 725 464 725 C445 725 432 712 432 693 C432 675 445 663 464 663 L464 663 Z M727 510 L574 46 L572 46 L421 510 L376 510 L223 46 L221 46 L70 510 L23 510 L196 0 L248 0 L397 464 L399 464 L547 0 L599 0 L772 510 L727 510 Z " />
<glyph glyph-name="uni1E9E" unicode="&#x1e9e;" horiz-adv-x="800" d="M504 431 L709 724 L709 770 L106 770 L106 0 L151 0 L151 728 L657 728 L657 726 L459 440 L459 398 L481 395 C620 375 713 296 713 198 C713 100 641 34 534 34 C429 34 351 107 339 217 L295 217 C307 81 403 -10 535 -10 C669 -10 759 72 759 195 C759 316 657 409 504 431 L504 431 Z " />
<glyph glyph-name="Ygrave" unicode="&#x1ef2;" horiz-adv-x="641" d="M347 840 L256 1000 L207 1000 L311 840 L347 840 Z M634 770 L582 770 L324 350 L322 350 L62 770 L7 770 L298 305 L298 0 L343 0 L343 304 L634 770 Z " />
<glyph glyph-name="ygrave" unicode="&#x1ef3;" horiz-adv-x="525" d="M291 610 L200 770 L151 770 L255 610 L291 610 Z M461 510 L263 43 L261 43 L65 510 L18 510 L240 -6 L145 -230 L190 -230 L506 510 L461 510 Z " />
<glyph glyph-name="endash" unicode="&#x2013;" horiz-adv-x="562" d="M73 241 L489 241 L489 277 L73 277 L73 241 Z " />
<glyph glyph-name="emdash" unicode="&#x2014;" horiz-adv-x="846" d="M73 241 L773 241 L773 277 L73 277 L73 241 Z " />
<glyph glyph-name="quoteleft" unicode="&#x2018;" horiz-adv-x="201" d="M101 661 C97 661 92 661 88 660 C90 700 112 739 146 758 L141 780 C91 753 57 699 57 645 C57 614 73 593 96 593 C118 593 133 607 133 627 C133 647 120 661 101 661 L101 661 Z " />
<glyph glyph-name="quoteright" unicode="&#x2019;" horiz-adv-x="199" d="M111 780 C89 780 74 766 74 746 C74 726 87 712 106 712 C110 712 115 712 119 713 C117 673 95 634 61 615 L66 593 C116 620 150 674 150 728 C150 759 134 780 111 780 L111 780 Z " />
<glyph glyph-name="quotesinglbase" unicode="&#x201a;" horiz-adv-x="191" d="M96 58 C74 58 59 44 59 24 C59 4 72 -10 91 -10 C95 -10 100 -10 104 -9 C102 -49 80 -88 46 -107 L51 -129 C101 -102 135 -48 135 6 C135 37 119 58 96 58 L96 58 Z " />
<glyph glyph-name="quotedblleft" unicode="&#x201c;" horiz-adv-x="312" d="M146 758 L141 780 C91 753 57 699 57 645 C57 614 73 593 96 593 C118 593 133 607 133 627 C133 647 120 661 101 661 C97 661 92 661 88 660 C90 700 112 739 146 758 L146 758 Z M212 661 C208 661 203 661 199 660 C201 700 223 739 257 758 L252 780 C202 753 168 699 168 645 C168 614 184 593 207 593 C229 593 244 607 244 627 C244 647 231 661 212 661 L212 661 Z " />
<glyph glyph-name="quotedblright" unicode="&#x201d;" horiz-adv-x="310" d="M111 780 C89 780 74 766 74 746 C74 726 87 712 106 712 C110 712 115 712 119 713 C117 673 95 634 61 615 L66 593 C116 620 150 674 150 728 C150 759 134 780 111 780 L111 780 Z M222 780 C200 780 185 766 185 746 C185 726 198 712 217 712 C221 712 226 712 230 713 C228 673 206 634 172 615 L177 593 C227 620 261 674 261 728 C261 759 245 780 222 780 L222 780 Z " />
<glyph glyph-name="quotedblbase" unicode="&#x201e;" horiz-adv-x="302" d="M96 58 C74 58 59 44 59 24 C59 4 72 -10 91 -10 C95 -10 100 -10 104 -9 C102 -49 80 -88 46 -107 L51 -129 C101 -102 135 -48 135 6 C135 37 119 58 96 58 L96 58 Z M207 58 C185 58 170 44 170 24 C170 4 183 -10 202 -10 C206 -10 211 -10 215 -9 C213 -49 191 -88 157 -107 L162 -129 C212 -102 246 -48 246 6 C246 37 230 58 207 58 L207 58 Z " />
<glyph glyph-name="dagger" unicode="&#x2020;" horiz-adv-x="364" d="M314 655 L202 655 L202 770 L162 770 L162 655 L50 655 L50 621 L162 621 L162 374 L202 374 L202 621 L314 621 L314 655 Z " />
<glyph glyph-name="daggerdbl" unicode="&#x2021;" horiz-adv-x="386" d="M325 621 L325 655 L213 655 L213 770 L173 770 L173 655 L61 655 L61 621 L173 621 L173 523 L61 523 L61 489 L173 489 L173 374 L213 374 L213 489 L325 489 L325 523 L213 523 L213 621 L325 621 Z " />
<glyph glyph-name="bullet" unicode="&#x2022;" horiz-adv-x="344" d="M172 224 C218 224 249 252 249 295 C249 338 218 367 172 367 C126 367 95 338 95 295 C95 252 126 224 172 224 L172 224 Z " />
<glyph glyph-name="ellipsis" unicode="&#x2026;" horiz-adv-x="558" d="M109 -10 C131 -10 145 4 145 24 C145 44 131 58 109 58 C87 58 73 44 73 24 C73 4 87 -10 109 -10 L109 -10 Z M279 -10 C301 -10 315 4 315 24 C315 44 301 58 279 58 C257 58 243 44 243 24 C243 4 257 -10 279 -10 L279 -10 Z M449 -10 C471 -10 485 4 485 24 C485 44 471 58 449 58 C427 58 413 44 413 24 C413 4 427 -10 449 -10 L449 -10 Z " />
<glyph glyph-name="perthousand" unicode="&#x2030;" horiz-adv-x="997" d="M173 410 C251 410 303 484 303 595 C303 706 251 780 173 780 C95 780 43 706 43 595 C43 484 95 410 173 410 L173 410 Z M68 0 L115 0 L619 770 L572 770 L68 0 Z M173 445 C120 445 85 505 85 595 C85 685 120 745 173 745 C226 745 261 685 261 595 C261 505 226 445 173 445 L173 445 Z M516 -10 C594 -10 646 64 646 175 C646 286 594 360 516 360 C438 360 386 286 386 175 C386 64 438 -10 516 -10 L516 -10 Z M835 -10 C913 -10 965 64 965 175 C965 286 913 360 835 360 C757 360 705 286 705 175 C705 64 757 -10 835 -10 L835 -10 Z M516 25 C463 25 428 85 428 175 C428 265 463 325 516 325 C569 325 604 265 604 175 C604 85 569 25 516 25 L516 25 Z M835 25 C782 25 747 85 747 175 C747 265 782 325 835 325 C888 325 923 265 923 175 C923 85 888 25 835 25 L835 25 Z " />
<glyph glyph-name="guilsinglleft" unicode="&#x2039;" horiz-adv-x="295" d="M221 117 L101 260 L221 403 L173 403 L50 260 L173 117 L221 117 Z " />
<glyph glyph-name="guilsinglright" unicode="&#x203a;" horiz-adv-x="295" d="M74 117 L122 117 L245 260 L122 403 L74 403 L194 260 L74 117 Z " />
<glyph glyph-name="fraction" unicode="&#x2044;" horiz-adv-x="150" d="M-200 0 L-153 0 L351 770 L304 770 L-200 0 Z " />
<glyph glyph-name="Euro" unicode="&#x20ac;" horiz-adv-x="640" d="M587 115 C538 66 459 34 390 34 C261 34 170 141 148 307 L364 307 L387 350 L144 350 C143 362 143 374 143 386 C143 401 144 416 145 430 L429 430 L452 473 L149 473 C173 634 264 736 390 736 C454 736 525 714 569 680 L591 718 C543 755 462 780 390 780 C236 780 128 660 103 472 L34 472 L34 430 L98 430 C97 416 97 401 97 386 C97 373 97 361 98 349 L34 349 L34 307 L102 307 C125 114 234 -10 390 -10 C465 -10 552 25 608 77 L587 115 Z " />
<glyph glyph-name="trademark" unicode="&#x2122;" horiz-adv-x="677" d="M36 742 L127 742 L127 482 L162 482 L162 742 L253 742 L253 770 L36 770 L36 742 Z M545 770 L442 523 L441 523 L341 770 L293 770 L293 482 L325 482 L325 728 L326 728 L425 482 L455 482 L559 728 L560 728 L559 482 L593 482 L593 770 L545 770 Z " />
<glyph glyph-name="oneeighth" unicode="&#x215b;" horiz-adv-x="770" d="M540 770 L36 0 L83 0 L587 770 L540 770 Z M131 338 L174 338 L174 770 L145 770 C131 727 105 713 48 713 L48 682 L131 682 L131 338 Z M639 225 L639 226 C687 242 717 278 717 325 C717 393 661 438 578 438 C495 438 439 393 439 325 C439 278 469 242 517 226 L517 225 C460 209 425 169 425 116 C425 43 486 -6 578 -6 C670 -6 732 43 732 116 C732 169 696 209 639 225 L639 225 Z M483 322 C483 369 521 401 578 401 C635 401 673 369 673 322 C673 274 635 242 578 242 C521 242 483 274 483 322 L483 322 Z M578 31 C513 31 469 66 469 119 C469 172 513 207 578 207 C643 207 687 172 687 119 C687 66 643 31 578 31 L578 31 Z " />
<glyph glyph-name="threeeighths" unicode="&#x215c;" horiz-adv-x="902" d="M335 453 C335 508 301 547 240 561 L240 562 C293 578 322 612 322 661 C322 733 271 776 184 776 C103 776 51 726 47 640 L88 640 C91 703 127 740 184 740 C243 740 278 709 278 658 C278 607 240 577 175 577 L167 577 L167 543 L180 543 C250 543 291 511 291 456 C291 401 251 368 184 368 C121 368 83 406 80 468 L39 468 C43 382 96 332 184 332 C279 332 335 377 335 453 L335 453 Z M672 770 L168 0 L215 0 L719 770 L672 770 Z M771 225 L771 226 C819 242 849 278 849 325 C849 393 793 438 710 438 C627 438 571 393 571 325 C571 278 601 242 649 226 L649 225 C592 209 557 169 557 116 C557 43 618 -6 710 -6 C802 -6 864 43 864 116 C864 169 828 209 771 225 L771 225 Z M615 322 C615 369 653 401 710 401 C767 401 805 369 805 322 C805 274 767 242 710 242 C653 242 615 274 615 322 L615 322 Z M710 31 C645 31 601 66 601 119 C601 172 645 207 710 207 C775 207 819 172 819 119 C819 66 775 31 710 31 L710 31 Z " />
<glyph glyph-name="fiveeighths" unicode="&#x215d;" horiz-adv-x="907" d="M341 479 C341 571 290 625 203 625 C158 625 119 608 94 578 L93 579 L116 734 L307 734 L307 770 L77 770 L41 509 L84 509 C98 556 132 590 189 590 C257 590 297 549 297 479 C297 410 256 369 188 369 C130 369 90 400 81 452 L39 452 C49 376 104 332 188 332 C284 332 341 387 341 479 L341 479 Z M677 770 L173 0 L220 0 L724 770 L677 770 Z M776 225 L776 226 C824 242 854 278 854 325 C854 393 798 438 715 438 C632 438 576 393 576 325 C576 278 606 242 654 226 L654 225 C597 209 562 169 562 116 C562 43 623 -6 715 -6 C807 -6 869 43 869 116 C869 169 833 209 776 225 L776 225 Z M620 322 C620 369 658 401 715 401 C772 401 810 369 810 322 C810 274 772 242 715 242 C658 242 620 274 620 322 L620 322 Z M715 31 C650 31 606 66 606 119 C606 172 650 207 715 207 C780 207 824 172 824 119 C824 66 780 31 715 31 L715 31 Z " />
<glyph glyph-name="seveneighths" unicode="&#x215e;" horiz-adv-x="850" d="M291 733 C192 635 133 488 133 338 L179 338 C179 489 235 635 329 731 L329 770 L31 770 L31 734 L291 734 L291 733 Z M612 770 L108 0 L155 0 L659 770 L612 770 Z M711 225 L711 226 C759 242 789 278 789 325 C789 393 733 438 650 438 C567 438 511 393 511 325 C511 278 541 242 589 226 L589 225 C532 209 497 169 497 116 C497 43 558 -6 650 -6 C742 -6 804 43 804 116 C804 169 768 209 711 225 L711 225 Z M555 322 C555 369 593 401 650 401 C707 401 745 369 745 322 C745 274 707 242 650 242 C593 242 555 274 555 322 L555 322 Z M650 31 C585 31 541 66 541 119 C541 172 585 207 650 207 C715 207 759 172 759 119 C759 66 715 31 650 31 L650 31 Z " />
<glyph glyph-name="partialdiff" unicode="&#x2202;" horiz-adv-x="622" d="M299 750 C213 750 125 702 78 629 L112 606 C150 667 224 707 295 707 C422 707 509 590 520 410 C227 404 34 307 34 163 C34 59 120 -10 248 -10 C439 -10 567 142 567 371 C567 598 460 750 299 750 L299 750 Z M249 33 C148 33 80 84 80 160 C80 281 256 362 521 367 C519 167 411 33 249 33 L249 33 Z " />
<glyph glyph-name="emptyset" unicode="&#x2205;" horiz-adv-x="636" d="M520 424 L562 467 L529 499 L487 456 C443 491 386 510 319 510 C162 510 58 406 58 251 C58 181 79 122 116 78 L74 35 L107 3 L149 46 C193 11 251 -9 319 -9 C474 -9 578 95 578 251 C578 321 557 380 520 424 L520 424 Z M102 252 C102 383 189 470 319 470 C374 470 421 454 457 426 L147 109 C118 146 102 195 102 252 L102 252 Z M319 32 C263 32 216 48 179 77 L490 393 C518 357 534 308 534 252 C534 120 448 32 319 32 L319 32 Z " />
<glyph glyph-name="product" unicode="&#x220f;" horiz-adv-x="816" d="M790 770 L26 770 L26 732 L171 732 L171 -230 L214 -230 L214 732 L602 732 L602 -230 L645 -230 L645 732 L790 732 L790 770 Z " />
<glyph glyph-name="summation" unicode="&#x2211;" horiz-adv-x="584" d="M32 -230 L548 -230 L548 -189 L88 -189 L430 273 L96 729 L538 729 L538 770 L40 770 L40 734 L375 273 L32 -194 L32 -230 Z " />
<glyph glyph-name="minus" unicode="&#x2212;" horiz-adv-x="508" d="M74 234 L434 234 L434 270 L74 270 L74 234 Z " />
<glyph glyph-name="radical" unicode="&#x221a;" horiz-adv-x="601" d="M556 770 L269 -74 L149 295 L7 295 L7 254 L113 254 L240 -110 L297 -110 L607 770 L556 770 Z " />
<glyph glyph-name="infinity" unicode="&#x221e;" horiz-adv-x="806" d="M564 443 C486 443 427 399 403 328 C379 399 320 443 242 443 C132 443 59 366 59 251 C59 136 132 59 242 59 C320 59 379 103 403 174 C427 103 486 59 564 59 C674 59 747 136 747 251 C747 366 674 443 564 443 L564 443 Z M242 97 C159 97 103 159 103 251 C103 343 159 405 242 405 C325 405 381 343 381 251 C381 159 325 97 242 97 L242 97 Z M564 97 C481 97 425 159 425 251 C425 343 481 405 564 405 C647 405 703 343 703 251 C703 159 647 97 564 97 L564 97 Z " />
<glyph glyph-name="integral" unicode="&#x222b;" horiz-adv-x="427" d="M74 -240 C171 -240 235 -172 235 -69 L235 613 C235 690 280 742 348 742 C376 742 410 736 434 726 L445 762 C422 773 385 780 353 780 C256 780 192 712 192 609 L192 -73 C192 -150 147 -202 79 -202 C51 -202 17 -196 -7 -186 L-18 -222 C5 -233 42 -240 74 -240 L74 -240 Z " />
<glyph glyph-name="approxequal" unicode="&#x2248;" horiz-adv-x="599" d="M75 270 L110 270 C114 318 141 347 184 347 C274 347 299 274 412 274 C483 274 524 317 524 390 L489 390 C485 342 458 313 415 313 C325 313 300 386 187 386 C116 386 75 343 75 270 L75 270 Z M75 110 L110 110 C114 158 141 187 184 187 C274 187 299 114 412 114 C483 114 524 157 524 230 L489 230 C485 182 458 153 415 153 C325 153 300 226 187 226 C116 226 75 183 75 110 L75 110 Z " />
<glyph glyph-name="notequal" unicode="&#x2260;" horiz-adv-x="510" d="M435 294 L435 330 L299 330 L346 490 L306 490 L260 330 L75 330 L75 294 L249 294 L225 210 L75 210 L75 174 L214 174 L164 0 L203 0 L254 174 L435 174 L435 210 L264 210 L289 294 L435 294 Z " />
<glyph glyph-name="lessequal" unicode="&#x2264;" horiz-adv-x="506" d="M429 495 L69 334 L69 297 L429 137 L429 175 L103 316 L429 457 L429 495 Z M69 0 L429 0 L429 36 L69 36 L69 0 Z " />
<glyph glyph-name="greaterequal" unicode="&#x2265;" horiz-adv-x="506" d="M77 495 L77 457 L403 316 L77 175 L77 137 L437 297 L437 334 L77 495 Z M77 0 L437 0 L437 36 L77 36 L77 0 Z " />
<glyph glyph-name="lozenge" unicode="&#x25ca;" horiz-adv-x="458" d="M229 -10 L419 245 L229 500 L39 245 L229 -10 Z M229 44 L83 245 L229 446 L375 245 L229 44 Z " />
<glyph glyph-name="uniF8FF" unicode="&#xf8ff;" horiz-adv-x="1274" d="M76 -10 C82 -10 87 -9 93 -3 L433 337 L433 13 C433 3 434 -10 453 -10 C459 -10 464 -9 470 -3 L809 337 L809 13 C809 3 810 -10 829 -10 C835 -10 840 -9 846 -3 L1214 369 C1219 373 1220 379 1220 383 C1220 393 1213 402 1203 402 C1197 402 1191 399 1187 394 L847 56 L847 380 C847 389 846 402 829 402 C823 402 817 400 812 394 L473 56 L473 383 C473 394 464 403 453 403 L123 403 L464 743 C470 748 472 754 472 760 C472 779 459 780 449 780 L79 780 C67 780 59 773 59 761 L59 760 C59 748 67 741 79 741 L406 741 L66 399 C62 394 59 390 59 383 C59 366 72 364 82 364 L406 364 L64 23 C60 19 59 13 59 8 C59 -2 66 -10 76 -10 L76 -10 Z " />
<glyph glyph-name="fi" unicode="&#xfb01;" horiz-adv-x="579" d="M481 510 L159 510 L159 618 C159 692 205 742 273 742 C302 742 336 737 359 730 L359 769 C338 776 306 780 279 780 C181 780 116 714 116 614 L116 510 L28 510 L28 474 L116 474 L116 0 L159 0 L159 474 L438 474 L438 0 L481 0 L481 510 Z M459 724 C440 724 427 711 427 692 C427 673 440 661 459 661 C479 661 492 673 492 692 C492 711 479 724 459 724 L459 724 Z " />
<glyph glyph-name="fl" unicode="&#xfb02;" horiz-adv-x="599" d="M458 770 L458 510 L159 510 L159 609 C159 689 207 742 280 742 C311 742 347 735 372 725 L372 764 C350 774 315 780 286 780 C184 780 116 710 116 605 L116 510 L27 510 L27 474 L116 474 L116 0 L159 0 L159 474 L458 474 L458 0 L501 0 L501 770 L458 770 Z " />
</font>
</svg>
