<?xml version="1.0" encoding="UTF-8"?>
<svg xmlns="http://www.w3.org/2000/svg" xmlns:xlink="http://www.w3.org/1999/xlink" version="1.2" >
<font id="Bw Nista Geometric Bold">
<font-face  font-family="Bw Nista Geometric" units-per-em="1000" ascent="770" descent="-230" font-style="normal" font-weight="700" font-stretch="normal" cap-height="720" x-height="522" underline-position="-75" underline-thickness="50" />
<missing-glyph  horiz-adv-x="1274" d="M76 -10 C82 -10 87 -9 93 -3 L433 337 L433 13 C433 3 434 -10 453 -10 C459 -10 464 -9 470 -3 L809 337 L809 13 C809 3 810 -10 829 -10 C835 -10 840 -9 846 -3 L1214 369 C1219 373 1220 379 1220 383 C1220 393 1213 402 1203 402 C1197 402 1191 399 1187 394 L847 56 L847 380 C847 389 846 402 829 402 C823 402 817 400 812 394 L473 56 L473 383 C473 394 464 403 453 403 L123 403 L464 743 C470 748 472 754 472 760 C472 779 459 780 449 780 L79 780 C67 780 59 773 59 761 L59 760 C59 748 67 741 79 741 L406 741 L66 399 C62 394 59 390 59 383 C59 366 72 364 82 364 L406 364 L64 23 C60 19 59 13 59 8 C59 -2 66 -10 76 -10 L76 -10 Z " />
<glyph glyph-name="NULL" d="" />
<glyph glyph-name="&amp;#x0;" horiz-adv-x="236" d="" />
<glyph glyph-name="&amp;#xd;" unicode="&#xd;" horiz-adv-x="236" d="" />
<glyph glyph-name="space" unicode="&#x20;" horiz-adv-x="236" d="" />
<glyph glyph-name="exclam" unicode="&#x21;" horiz-adv-x="286" d="M98 238 L187 238 L214 770 L71 770 L98 238 Z M143 -10 C192 -10 224 22 224 69 C224 115 192 147 143 147 C94 147 61 115 61 69 C61 22 94 -10 143 -10 L143 -10 Z " />
<glyph glyph-name="quotedbl" unicode="&#x22;" horiz-adv-x="415" d="M58 538 L180 538 L180 770 L58 770 L58 538 Z M235 538 L357 538 L357 770 L235 770 L235 538 Z " />
<glyph glyph-name="numbersign" unicode="&#x23;" horiz-adv-x="793" d="M752 495 L763 599 L649 599 L667 770 L531 770 L513 599 L324 599 L344 770 L208 770 L189 599 L75 599 L64 495 L178 495 L155 292 L42 292 L31 188 L144 188 L123 0 L259 0 L279 188 L469 188 L449 0 L585 0 L605 188 L720 188 L732 292 L616 292 L638 495 L752 495 Z M288 290 L312 497 L503 497 L480 290 L288 290 Z " />
<glyph glyph-name="dollar" unicode="&#x24;" horiz-adv-x="695" d="M662 234 C662 402 508 433 378 453 C377 453 375 453 374 454 L374 667 C449 655 499 601 503 525 L640 525 C630 670 524 769 374 779 L374 880 L324 880 L324 779 C161 771 55 682 55 551 C55 392 199 362 324 343 L324 103 C236 113 176 172 171 257 L33 257 C44 104 160 0 324 -9 L324 -112 L374 -112 L374 -9 C548 -1 662 95 662 234 L662 234 Z M195 561 C195 622 245 663 324 668 L324 462 C251 477 195 499 195 561 L195 561 Z M374 102 L374 335 C456 320 522 296 522 220 C522 154 464 108 374 102 L374 102 Z " />
<glyph glyph-name="percent" unicode="&#x25;" horiz-adv-x="769" d="M185 410 C278 410 339 484 339 595 C339 706 278 780 185 780 C94 780 33 706 33 595 C33 484 94 410 185 410 L185 410 Z M76 0 L177 0 L691 770 L590 770 L76 0 Z M186 487 C151 487 128 530 128 595 C128 660 151 703 186 703 C221 703 244 660 244 595 C244 530 221 487 186 487 L186 487 Z M583 -10 C676 -10 737 64 737 175 C737 286 676 360 583 360 C492 360 431 286 431 175 C431 64 492 -10 583 -10 L583 -10 Z M583 67 C548 67 525 110 525 175 C525 240 548 283 583 283 C618 283 641 240 641 175 C641 110 618 67 583 67 L583 67 Z " />
<glyph glyph-name="ampersand" unicode="&#x26;" horiz-adv-x="791" d="M784 73 L647 191 C681 251 706 331 715 411 L601 411 C594 362 579 310 559 267 L389 413 C478 458 563 504 563 604 C563 709 473 780 338 780 C202 780 111 707 111 599 C111 548 151 487 212 426 C133 379 64 314 64 196 C64 73 159 -10 302 -10 C403 -10 508 36 574 108 L709 -10 L784 73 Z M239 596 C239 649 279 684 339 684 C399 684 439 651 439 602 C439 546 383 513 315 479 C268 525 239 566 239 596 L239 596 Z M319 94 C244 94 194 139 194 207 C194 277 234 322 288 357 L499 173 C453 124 385 94 319 94 L319 94 Z " />
<glyph glyph-name="quotesingle" unicode="&#x27;" horiz-adv-x="239" d="M58 538 L180 538 L180 770 L58 770 L58 538 Z " />
<glyph glyph-name="parenleft" unicode="&#x28;" horiz-adv-x="321" d="M182 -230 L305 -230 C218 -90 167 96 167 270 C167 442 218 628 305 770 L182 770 C94 634 42 448 42 270 C42 92 94 -94 182 -230 L182 -230 Z " />
<glyph glyph-name="parenright" unicode="&#x29;" horiz-adv-x="321" d="M139 -230 C227 -94 279 92 279 270 C279 448 227 634 139 770 L16 770 C103 628 154 442 154 270 C154 96 103 -90 16 -230 L139 -230 Z " />
<glyph glyph-name="asterisk" unicode="&#x2a;" horiz-adv-x="382" d="M343 634 L321 701 L223 667 L226 770 L156 770 L159 667 L62 701 L40 634 L139 605 L76 523 L133 483 L191 568 L249 483 L306 523 L244 605 L343 634 Z " />
<glyph glyph-name="plus" unicode="&#x2b;" horiz-adv-x="491" d="M451 302 L311 302 L311 458 L179 458 L179 302 L40 302 L40 202 L179 202 L179 46 L311 46 L311 202 L451 202 L451 302 Z " />
<glyph glyph-name="comma" unicode="&#x2c;" horiz-adv-x="256" d="M125 147 C76 147 43 115 43 67 C43 21 71 -10 113 -10 C127 -10 142 -7 156 -1 C143 -61 97 -102 32 -110 L39 -150 C144 -135 214 -59 214 41 C214 104 178 147 125 147 L125 147 Z " />
<glyph glyph-name="hyphen" unicode="&#x2d;" horiz-adv-x="423" d="M60 218 L363 218 L363 312 L60 312 L60 218 Z " />
<glyph glyph-name="period" unicode="&#x2e;" horiz-adv-x="262" d="M131 -10 C180 -10 212 22 212 69 C212 115 180 147 131 147 C82 147 49 115 49 69 C49 22 82 -10 131 -10 L131 -10 Z " />
<glyph glyph-name="slash" unicode="&#x2f;" horiz-adv-x="439" d="M124 -230 L415 770 L317 770 L25 -230 L124 -230 Z " />
<glyph glyph-name="zero" unicode="0" horiz-adv-x="685" d="M343 -10 C529 -10 639 137 639 385 C639 634 529 780 343 780 C157 780 46 634 46 385 C46 137 157 -10 343 -10 L343 -10 Z M343 101 C246 101 189 207 189 385 C189 563 246 669 343 669 C439 669 497 563 497 385 C497 207 439 101 343 101 L343 101 Z " />
<glyph glyph-name="one" unicode="1" horiz-adv-x="410" d="M231 770 C200 686 143 654 18 654 L18 562 L187 562 L187 0 L325 0 L325 770 L231 770 Z " />
<glyph glyph-name="two" unicode="2" horiz-adv-x="641" d="M189 108 L189 110 C399 213 583 374 583 549 C583 688 477 780 319 780 C167 780 58 679 47 527 L181 527 C187 612 241 669 317 669 C387 669 434 623 434 554 C434 412 288 254 39 116 L39 0 L602 0 L602 108 L189 108 Z " />
<glyph glyph-name="three" unicode="3" horiz-adv-x="637" d="M430 396 L430 398 C518 427 571 487 571 566 C571 694 467 780 311 780 C164 780 60 682 52 533 L182 533 C185 615 235 669 307 669 C380 669 429 625 429 557 C429 488 376 443 296 443 L280 443 L280 346 L301 346 C391 346 450 296 450 223 C450 149 394 101 309 101 C228 101 171 155 169 237 L36 237 C45 88 154 -10 307 -10 C479 -10 593 80 593 214 C593 301 531 367 430 396 L430 396 Z " />
<glyph glyph-name="four" unicode="4" horiz-adv-x="657" d="M625 285 L525 285 L525 770 L356 770 L20 292 L20 177 L387 177 L387 0 L525 0 L525 177 L625 177 L625 285 Z M388 634 L390 634 L390 285 L147 285 L147 287 L388 634 Z " />
<glyph glyph-name="five" unicode="5" horiz-adv-x="642" d="M373 511 C303 511 241 483 197 437 L196 438 L230 662 L552 662 L552 770 L108 770 L46 301 L181 301 C203 365 259 408 322 408 C408 408 466 347 466 255 C466 163 407 101 318 101 C241 101 185 145 176 211 L41 211 C54 78 166 -10 318 -10 C492 -10 609 96 609 255 C609 409 515 511 373 511 L373 511 Z " />
<glyph glyph-name="six" unicode="6" horiz-adv-x="677" d="M402 498 C300 498 226 459 188 391 L186 391 C190 565 252 669 356 669 C428 669 474 629 481 561 L615 561 C603 698 507 780 356 780 C161 780 47 630 47 375 C47 122 149 -10 348 -10 C523 -10 633 90 633 258 C633 409 548 498 402 498 L402 498 Z M348 101 C264 101 205 158 205 252 C205 341 258 393 348 393 C437 393 491 340 491 247 C491 156 437 101 348 101 L348 101 Z " />
<glyph glyph-name="seven" unicode="7" horiz-adv-x="577" d="M559 770 L14 770 L14 662 L441 662 L441 660 C272 491 172 247 172 0 L316 0 C316 249 406 492 559 655 L559 770 Z " />
<glyph glyph-name="eight" unicode="8" horiz-adv-x="660" d="M466 402 L466 404 C544 433 592 493 592 570 C592 696 487 780 330 780 C173 780 68 696 68 570 C68 493 116 434 194 404 L194 402 C100 371 43 304 43 216 C43 80 158 -10 330 -10 C502 -10 617 80 617 216 C617 304 559 371 466 402 L466 402 Z M330 669 C402 669 450 625 450 560 C450 494 402 450 330 450 C258 450 210 494 210 560 C210 625 258 669 330 669 L330 669 Z M330 101 C243 101 186 152 186 226 C186 301 243 352 330 352 C417 352 474 301 474 226 C474 152 417 101 330 101 L330 101 Z " />
<glyph glyph-name="nine" unicode="9" horiz-adv-x="679" d="M325 780 C154 780 46 685 46 523 C46 378 132 294 277 294 C380 294 454 330 491 396 L493 396 L493 395 C493 210 430 101 321 101 C244 101 195 149 187 230 L53 230 C65 79 165 -10 323 -10 C518 -10 632 140 632 395 C632 647 529 780 325 780 L325 780 Z M331 398 C242 398 188 448 188 534 C188 619 242 669 331 669 C415 669 474 612 474 529 C474 446 421 398 331 398 L331 398 Z " />
<glyph glyph-name="colon" unicode="&#x3a;" horiz-adv-x="275" d="M138 375 C187 375 219 407 219 454 C219 500 187 532 138 532 C89 532 56 500 56 454 C56 407 89 375 138 375 L138 375 Z M138 -10 C187 -10 219 22 219 69 C219 115 187 147 138 147 C89 147 56 115 56 69 C56 22 89 -10 138 -10 L138 -10 Z " />
<glyph glyph-name="semicolon" unicode="&#x3b;" horiz-adv-x="290" d="M144 375 C193 375 225 407 225 454 C225 500 193 532 144 532 C95 532 62 500 62 454 C62 407 95 375 144 375 L144 375 Z M144 147 C95 147 62 115 62 67 C62 21 90 -10 132 -10 C146 -10 161 -7 175 -1 C162 -61 116 -102 51 -110 L58 -150 C163 -135 233 -59 233 41 C233 104 197 147 144 147 L144 147 Z " />
<glyph glyph-name="less" unicode="&#x3c;" horiz-adv-x="508" d="M446 474 L35 299 L35 206 L446 32 L446 138 L149 253 L446 368 L446 474 Z " />
<glyph glyph-name="equal" unicode="&#x3d;" horiz-adv-x="536" d="M62 288 L473 288 L473 388 L62 388 L62 288 Z M62 116 L473 116 L473 216 L62 216 L62 116 Z " />
<glyph glyph-name="greater" unicode="&#x3e;" horiz-adv-x="508" d="M62 474 L62 368 L359 253 L62 138 L62 32 L473 206 L473 299 L62 474 Z " />
<glyph glyph-name="question" unicode="&#x3f;" horiz-adv-x="572" d="M209 237 L314 237 C314 303 364 346 416 391 C476 441 539 495 539 582 C539 701 439 780 287 780 C141 780 38 687 28 548 L159 548 C164 620 213 668 282 668 C348 668 393 629 393 570 C393 511 352 469 308 424 C260 375 209 323 209 244 L209 237 Z M261 -10 C311 -10 343 22 343 69 C343 115 311 147 261 147 C212 147 179 115 179 69 C179 22 212 -10 261 -10 L261 -10 Z " />
<glyph glyph-name="at" unicode="&#x40;" horiz-adv-x="1128" d="M707 503 L693 427 L692 427 C676 478 616 512 545 512 C397 512 297 394 297 216 C297 106 363 32 460 32 C532 32 603 66 637 118 L639 118 C650 67 713 33 798 33 C972 33 1088 161 1088 353 C1088 609 892 780 598 780 C260 780 36 558 36 226 C36 -54 240 -240 548 -240 C651 -240 779 -215 868 -177 L837 -95 C752 -131 636 -156 548 -156 C302 -156 138 -3 138 226 C138 507 322 696 598 696 C830 696 986 558 986 353 C986 212 922 117 827 117 C794 117 772 134 772 158 L834 503 L707 503 Z M528 132 C469 132 429 176 429 241 C429 343 489 412 577 412 C637 412 677 371 677 309 C677 298 675 284 673 273 L684 331 L673 272 C673 270 672 268 672 266 L673 272 L671 262 C654 184 597 132 528 132 L528 132 Z M673 273 L673 272 L673 273 Z " />
<glyph glyph-name="A" unicode="A" horiz-adv-x="719" d="M574 0 L721 0 L437 770 L283 770 L-2 0 L137 0 L198 177 L513 177 L574 0 Z M236 285 L355 630 L357 630 L476 285 L236 285 Z " />
<glyph glyph-name="B" unicode="B" horiz-adv-x="731" d="M533 398 L533 400 C611 429 658 487 658 562 C658 687 550 770 390 770 L83 770 L83 0 L415 0 C583 0 694 87 694 218 C694 306 633 371 533 398 L533 398 Z M397 662 C468 662 515 618 515 552 C515 486 468 443 397 443 L221 443 L221 662 L397 662 Z M422 108 L221 108 L221 346 L422 346 C499 346 551 298 551 227 C551 156 499 108 422 108 L422 108 Z " />
<glyph glyph-name="C" unicode="C" horiz-adv-x="802" d="M416 -10 C608 -10 749 106 769 280 L634 280 C619 173 532 101 416 101 C277 101 184 215 184 385 C184 555 277 669 416 669 C532 669 619 598 634 492 L769 492 C749 665 609 780 416 780 C191 780 41 622 41 385 C41 148 191 -10 416 -10 L416 -10 Z " />
<glyph glyph-name="D" unicode="D" horiz-adv-x="755" d="M83 0 L329 0 C560 0 714 154 714 385 C714 616 560 770 329 770 L83 770 L83 0 Z M221 108 L221 662 L337 662 C477 662 571 551 571 385 C571 219 477 108 337 108 L221 108 Z " />
<glyph glyph-name="E" unicode="E" horiz-adv-x="673" d="M221 108 L221 341 L582 341 L582 449 L221 449 L221 662 L618 662 L618 770 L83 770 L83 0 L630 0 L630 108 L221 108 Z " />
<glyph glyph-name="F" unicode="F" horiz-adv-x="624" d="M597 662 L597 770 L83 770 L83 0 L221 0 L221 333 L542 333 L542 441 L221 441 L221 662 L597 662 Z " />
<glyph glyph-name="G" unicode="G" horiz-adv-x="814" d="M406 405 L406 312 L633 312 C619 184 536 101 416 101 C277 101 184 215 184 385 C184 555 277 669 416 669 C530 669 616 601 632 500 L765 500 C745 668 606 780 416 780 C191 780 41 622 41 385 C41 148 191 -10 416 -10 C629 -10 771 142 771 370 L771 405 L406 405 Z " />
<glyph glyph-name="H" unicode="H" horiz-adv-x="778" d="M558 770 L558 445 L221 445 L221 770 L83 770 L83 0 L221 0 L221 336 L558 336 L558 0 L696 0 L696 770 L558 770 Z " />
<glyph glyph-name="I" unicode="I" horiz-adv-x="303" d="M83 0 L221 0 L221 770 L83 770 L83 0 Z " />
<glyph glyph-name="J" unicode="J" horiz-adv-x="593" d="M267 -10 C417 -10 517 91 517 243 L517 770 L379 770 L379 235 C379 155 335 101 271 101 C204 101 155 167 148 267 L19 267 C28 101 126 -10 267 -10 L267 -10 Z " />
<glyph glyph-name="K" unicode="K" horiz-adv-x="717" d="M83 0 L221 0 L221 770 L83 770 L83 0 Z M404 411 L691 770 L536 770 L240 400 L569 0 L732 0 L404 411 Z " />
<glyph glyph-name="L" unicode="L" horiz-adv-x="584" d="M221 112 L221 770 L83 770 L83 0 L565 0 L565 112 L221 112 Z " />
<glyph glyph-name="M" unicode="M" horiz-adv-x="985" d="M713 770 L489 163 L486 163 L272 770 L83 770 L83 0 L214 0 L210 605 L212 605 L428 0 L537 0 L766 605 L768 605 L764 0 L902 0 L902 770 L713 770 Z " />
<glyph glyph-name="N" unicode="N" horiz-adv-x="778" d="M565 770 L568 214 L566 214 L214 770 L83 770 L83 0 L214 0 L211 554 L213 554 L566 0 L696 0 L696 770 L565 770 Z " />
<glyph glyph-name="O" unicode="O" horiz-adv-x="837" d="M418 -10 C644 -10 795 148 795 385 C795 622 644 780 418 780 C192 780 41 622 41 385 C41 148 192 -10 418 -10 L418 -10 Z M418 101 C277 101 184 215 184 385 C184 555 277 669 418 669 C559 669 653 555 653 385 C653 215 559 101 418 101 L418 101 Z " />
<glyph glyph-name="P" unicode="P" horiz-adv-x="683" d="M376 770 L83 770 L83 0 L221 0 L221 288 L375 288 C545 288 658 384 658 529 C658 674 545 770 376 770 L376 770 Z M382 395 L221 395 L221 662 L382 662 C462 662 515 609 515 529 C515 449 462 395 382 395 L382 395 Z " />
<glyph glyph-name="Q" unicode="Q" horiz-adv-x="836" d="M795 385 C795 622 644 780 418 780 C192 780 41 622 41 385 C41 148 192 -10 418 -10 C460 -10 500 -4 536 6 L634 -91 L710 -6 L645 58 C739 126 795 241 795 385 L795 385 Z M418 101 C277 101 184 215 184 385 C184 555 277 669 418 669 C559 669 653 555 653 385 C653 280 617 196 556 147 L453 249 L376 165 L440 102 C433 101 425 101 418 101 L418 101 Z " />
<glyph glyph-name="R" unicode="R" horiz-adv-x="729" d="M548 0 L702 0 L520 336 C616 372 674 449 674 551 C674 682 559 770 388 770 L83 770 L83 0 L221 0 L221 313 L388 313 L548 0 Z M221 662 L395 662 C477 662 532 613 532 541 C532 465 477 415 395 415 L221 415 L221 662 Z " />
<glyph glyph-name="S" unicode="S" horiz-adv-x="700" d="M348 -10 C537 -10 662 88 662 234 C662 402 508 433 378 453 C280 468 195 485 195 561 C195 626 253 669 342 669 C435 669 499 611 503 525 L640 525 C629 678 512 780 348 780 C172 780 55 688 55 551 C55 391 201 362 327 343 C429 327 522 310 522 220 C522 149 454 101 351 101 C249 101 177 164 171 257 L33 257 C45 97 171 -10 348 -10 L348 -10 Z " />
<glyph glyph-name="T" unicode="T" horiz-adv-x="623" d="M607 770 L16 770 L16 662 L242 662 L242 0 L380 0 L380 662 L607 662 L607 770 Z " />
<glyph glyph-name="U" unicode="U" horiz-adv-x="750" d="M374 -10 C555 -10 675 106 675 278 L675 770 L544 770 L544 271 C544 169 477 101 378 101 C279 101 212 169 212 271 L212 770 L74 770 L74 278 C74 106 194 -10 374 -10 L374 -10 Z " />
<glyph glyph-name="V" unicode="V" horiz-adv-x="689" d="M547 770 L349 140 L347 140 L150 770 L3 770 L261 0 L428 0 L686 770 L547 770 Z " />
<glyph glyph-name="W" unicode="W" horiz-adv-x="1046" d="M898 770 L749 147 L747 147 L599 770 L456 770 L307 147 L305 147 L157 770 L10 770 L213 0 L380 0 L521 599 L523 599 L666 0 L833 0 L1036 770 L898 770 Z " />
<glyph glyph-name="X" unicode="X" horiz-adv-x="685" d="M-1 0 L157 0 L337 294 L339 294 L516 0 L686 0 L424 400 L667 770 L511 770 L348 504 L346 504 L185 770 L19 770 L261 398 L-1 0 Z " />
<glyph glyph-name="Y" unicode="Y" horiz-adv-x="710" d="M716 770 L566 770 L361 404 L359 404 L153 770 L-6 770 L283 277 L283 0 L421 0 L421 274 L716 770 Z " />
<glyph glyph-name="Z" unicode="Z" horiz-adv-x="654" d="M192 108 L192 110 L609 655 L609 770 L52 770 L52 662 L444 662 L444 660 L27 115 L27 0 L621 0 L621 108 L192 108 Z " />
<glyph glyph-name="bracketleft" unicode="&#x5b;" horiz-adv-x="351" d="M320 663 L320 770 L83 770 L83 -230 L320 -230 L320 -123 L221 -123 L221 663 L320 663 Z " />
<glyph glyph-name="backslash" unicode="&#x5c;" horiz-adv-x="439" d="M315 -230 L414 -230 L122 770 L24 770 L315 -230 Z " />
<glyph glyph-name="bracketright" unicode="&#x5d;" horiz-adv-x="351" d="M268 770 L31 770 L31 663 L130 663 L130 -123 L31 -123 L31 -230 L268 -230 L268 770 Z " />
<glyph glyph-name="asciicircum" unicode="&#x5e;" horiz-adv-x="561" d="M333 770 L228 770 L35 403 L148 403 L279 669 L281 669 L413 403 L526 403 L333 770 Z " />
<glyph glyph-name="underscore" unicode="&#x5f;" horiz-adv-x="595" d="M39 -110 L556 -110 L556 -37 L39 -37 L39 -110 Z " />
<glyph glyph-name="grave" unicode="&#x60;" horiz-adv-x="248" d="M217 571 L128 741 L-7 741 L118 571 L217 571 Z " />
<glyph glyph-name="a" unicode="a" horiz-adv-x="650" d="M448 522 L448 429 L446 429 C416 493 343 532 262 532 C129 532 39 424 39 261 C39 98 128 -10 261 -10 C343 -10 417 29 446 93 L448 93 L448 0 L580 0 L580 522 L448 522 Z M311 95 C229 95 174 162 174 261 C174 361 229 428 311 428 C393 428 448 361 448 261 C448 162 393 95 311 95 L311 95 Z " />
<glyph glyph-name="b" unicode="b" horiz-adv-x="650" d="M388 532 C307 532 234 493 204 429 L202 429 L202 770 L70 770 L70 0 L202 0 L202 93 L204 93 C233 29 307 -10 389 -10 C522 -10 610 98 610 261 C610 424 521 532 388 532 L388 532 Z M339 95 C257 95 202 162 202 261 C202 361 257 428 339 428 C421 428 476 361 476 261 C476 162 421 95 339 95 L339 95 Z " />
<glyph glyph-name="c" unicode="c" horiz-adv-x="596" d="M307 -10 C444 -10 547 70 565 190 L434 190 C423 133 372 95 307 95 C226 95 173 162 173 261 C173 361 226 427 307 427 C370 427 419 390 432 333 L562 333 C544 452 441 532 307 532 C145 532 38 424 38 261 C38 98 145 -10 307 -10 L307 -10 Z " />
<glyph glyph-name="d" unicode="d" horiz-adv-x="650" d="M448 770 L448 429 L446 429 C416 493 343 532 262 532 C129 532 39 424 39 261 C39 98 128 -10 261 -10 C343 -10 417 29 446 93 L448 93 L448 0 L580 0 L580 770 L448 770 Z M311 95 C229 95 174 162 174 261 C174 361 229 428 311 428 C393 428 448 361 448 261 C448 162 393 95 311 95 L311 95 Z " />
<glyph glyph-name="e" unicode="e" horiz-adv-x="610" d="M571 256 C571 422 465 532 306 532 C145 532 38 424 38 261 C38 99 145 -10 306 -10 C441 -10 546 66 569 181 L441 181 C426 123 371 85 306 85 C228 85 174 145 167 238 L571 238 L571 256 Z M306 441 C376 441 427 388 440 305 L169 305 C183 388 234 441 306 441 L306 441 Z " />
<glyph glyph-name="f" unicode="f" horiz-adv-x="410" d="M336 682 C361 682 395 676 418 665 L418 763 C394 773 351 780 312 780 C189 780 106 697 106 572 L106 522 L24 522 L24 429 L106 429 L106 0 L238 0 L238 429 L402 429 L402 522 L238 522 L238 580 C238 641 277 682 336 682 L336 682 Z " />
<glyph glyph-name="g" unicode="g" horiz-adv-x="650" d="M448 522 L448 429 L446 429 C416 493 343 532 262 532 C129 532 39 424 39 261 C39 98 128 -10 261 -10 C343 -10 417 29 446 93 L448 93 L448 -10 C448 -85 394 -135 313 -135 C243 -135 194 -96 187 -38 L61 -38 C71 -159 172 -240 313 -240 C473 -240 580 -145 580 -3 L580 522 L448 522 Z M311 95 C229 95 174 162 174 261 C174 361 229 428 311 428 C393 428 448 361 448 261 C448 162 393 95 311 95 L311 95 Z " />
<glyph glyph-name="h" unicode="h" horiz-adv-x="627" d="M385 532 C307 532 235 493 204 433 L202 433 L202 770 L70 770 L70 0 L202 0 L202 288 C202 372 251 427 323 427 C388 427 431 381 431 313 L431 0 L563 0 L563 333 C563 453 492 532 385 532 L385 532 Z " />
<glyph glyph-name="i" unicode="i" horiz-adv-x="276" d="M137 618 C183 618 213 647 213 690 C213 733 183 762 137 762 C91 762 60 733 60 690 C60 647 91 618 137 618 L137 618 Z M72 0 L204 0 L204 522 L72 522 L72 0 Z " />
<glyph glyph-name="j" unicode="j" horiz-adv-x="276" d="M137 618 C183 618 213 647 213 690 C213 733 183 762 137 762 C91 762 60 733 60 690 C60 647 91 618 137 618 L137 618 Z M72 -230 L204 -230 L204 522 L72 522 L72 -230 Z " />
<glyph glyph-name="k" unicode="k" horiz-adv-x="615" d="M70 0 L202 0 L202 770 L70 770 L70 0 Z M370 288 L587 522 L437 522 L217 284 L473 0 L627 0 L370 288 Z " />
<glyph glyph-name="l" unicode="l" horiz-adv-x="276" d="M72 0 L204 0 L204 770 L72 770 L72 0 Z " />
<glyph glyph-name="m" unicode="m" horiz-adv-x="947" d="M716 532 C637 532 565 488 531 421 L529 421 C505 490 450 532 375 532 C300 532 232 493 204 433 L202 433 L202 522 L70 522 L70 0 L202 0 L202 291 C202 373 246 427 312 427 C372 427 411 383 411 316 L411 0 L543 0 L543 291 C543 373 587 427 653 427 C712 427 751 383 751 316 L751 0 L883 0 L883 338 C883 454 816 532 716 532 L716 532 Z " />
<glyph glyph-name="n" unicode="n" horiz-adv-x="627" d="M385 532 C307 532 235 493 204 433 L202 433 L202 522 L70 522 L70 0 L202 0 L202 288 C202 372 251 427 323 427 C388 427 431 381 431 313 L431 0 L563 0 L563 333 C563 453 492 532 385 532 L385 532 Z " />
<glyph glyph-name="o" unicode="o" horiz-adv-x="619" d="M309 -10 C472 -10 581 98 581 261 C581 424 472 532 309 532 C146 532 38 424 38 261 C38 98 146 -10 309 -10 L309 -10 Z M309 95 C227 95 173 162 173 261 C173 361 227 428 309 428 C391 428 446 361 446 261 C446 162 391 95 309 95 L309 95 Z " />
<glyph glyph-name="p" unicode="p" horiz-adv-x="650" d="M389 532 C307 532 234 493 204 429 L202 429 L202 522 L70 522 L70 -230 L202 -230 L202 93 L204 93 C233 29 307 -10 388 -10 C521 -10 610 98 610 261 C610 424 522 532 389 532 L389 532 Z M339 95 C257 95 202 162 202 261 C202 361 257 428 339 428 C421 428 476 361 476 261 C476 162 421 95 339 95 L339 95 Z " />
<glyph glyph-name="q" unicode="q" horiz-adv-x="650" d="M448 522 L448 429 L446 429 C416 493 343 532 261 532 C128 532 39 424 39 261 C39 98 129 -10 262 -10 C343 -10 417 29 446 93 L448 93 L448 -230 L580 -230 L580 522 L448 522 Z M311 95 C229 95 174 162 174 261 C174 361 229 428 311 428 C393 428 448 361 448 261 C448 162 393 95 311 95 L311 95 Z " />
<glyph glyph-name="r" unicode="r" horiz-adv-x="448" d="M370 532 C297 532 231 485 204 414 L202 414 L202 522 L70 522 L70 0 L202 0 L202 244 C202 347 259 415 344 415 C376 415 412 409 435 400 L435 522 C418 528 392 532 370 532 L370 532 Z " />
<glyph glyph-name="s" unicode="s" horiz-adv-x="545" d="M271 -10 C414 -10 509 57 509 159 C509 275 395 300 302 316 C234 328 174 340 174 386 C174 424 213 449 271 449 C330 449 370 415 372 364 L496 364 C491 465 402 532 271 532 C137 532 48 470 48 375 C48 262 155 239 247 224 C318 213 383 200 383 145 C383 102 338 74 271 74 C203 74 157 110 155 163 L32 163 C37 60 132 -10 271 -10 L271 -10 Z " />
<glyph glyph-name="t" unicode="t" horiz-adv-x="417" d="M394 429 L394 522 L233 522 L233 673 L107 673 L107 522 L19 522 L19 429 L101 429 L101 152 C101 55 172 -10 279 -10 C317 -10 363 -1 394 13 L394 106 C375 96 345 90 321 90 C268 90 233 120 233 163 L233 429 L394 429 Z " />
<glyph glyph-name="u" unicode="u" horiz-adv-x="608" d="M304 -10 C449 -10 545 76 545 205 L545 522 L413 522 L413 218 C413 144 369 95 304 95 C239 95 195 144 195 218 L195 522 L63 522 L63 205 C63 76 160 -10 304 -10 L304 -10 Z " />
<glyph glyph-name="v" unicode="v" horiz-adv-x="574" d="M432 522 L290 121 L288 121 L146 522 L8 522 L210 0 L365 0 L566 522 L432 522 Z " />
<glyph glyph-name="w" unicode="w" horiz-adv-x="834" d="M689 522 L586 140 L584 140 L482 522 L356 522 L253 140 L251 140 L148 522 L11 522 L178 0 L317 0 L416 382 L418 382 L518 0 L656 0 L823 522 L689 522 Z " />
<glyph glyph-name="x" unicode="x" horiz-adv-x="547" d="M2 0 L144 0 L270 181 L272 181 L396 0 L546 0 L346 274 L527 522 L387 522 L277 363 L275 363 L166 522 L21 522 L202 272 L2 0 Z " />
<glyph glyph-name="y" unicode="y" horiz-adv-x="574" d="M432 522 L290 121 L288 121 L145 522 L8 522 L222 -32 L148 -230 L276 -230 L566 522 L432 522 Z " />
<glyph glyph-name="z" unicode="z" horiz-adv-x="516" d="M182 99 L182 101 L472 417 L472 522 L47 522 L47 423 L316 423 L316 421 L30 105 L30 0 L483 0 L483 99 L182 99 Z " />
<glyph glyph-name="braceleft" unicode="&#x7b;" horiz-adv-x="340" d="M231 399 L231 593 C231 633 257 660 295 660 L295 770 C174 770 93 696 93 586 L93 391 C93 351 68 325 30 325 L30 215 C68 215 93 189 93 149 L93 -46 C93 -156 174 -230 295 -230 L295 -120 C257 -120 231 -93 231 -53 L231 141 C231 196 205 241 160 269 L160 271 C205 299 231 344 231 399 L231 399 Z " />
<glyph glyph-name="bar" unicode="&#x7c;" horiz-adv-x="265" d="M83 -230 L182 -230 L182 870 L83 870 L83 -230 Z " />
<glyph glyph-name="braceright" unicode="&#x7d;" horiz-adv-x="340" d="M247 391 L247 586 C247 696 166 770 45 770 L45 660 C83 660 109 633 109 593 L109 399 C109 344 135 299 180 271 L180 269 C135 241 109 196 109 141 L109 -53 C109 -93 83 -120 45 -120 L45 -230 C166 -230 247 -156 247 -46 L247 149 C247 189 272 215 310 215 L310 325 C272 325 247 351 247 391 L247 391 Z " />
<glyph glyph-name="asciitilde" unicode="&#x7e;" horiz-adv-x="610" d="M56 168 L115 168 C119 203 140 224 174 224 C258 224 301 172 409 172 C498 172 551 230 552 327 L494 327 C490 293 468 272 434 272 C351 272 308 323 199 323 C111 323 57 266 56 168 L56 168 Z " />
<glyph glyph-name="uni00A0" unicode="&#xa0;" horiz-adv-x="236" d="" />
<glyph glyph-name="exclamdown" unicode="&#xa1;" horiz-adv-x="269" d="M135 375 C185 375 217 407 217 454 C217 501 185 532 135 532 C86 532 53 501 53 454 C53 407 86 375 135 375 L135 375 Z M63 -230 L207 -230 L179 294 L90 294 L63 -230 Z " />
<glyph glyph-name="cent" unicode="&#xa2;" horiz-adv-x="605" d="M570 293 L439 293 C430 244 390 209 338 200 L338 528 C388 519 426 485 437 436 L567 436 C550 547 459 624 338 634 L338 720 L288 720 L288 634 C140 624 43 519 43 364 C43 209 140 104 288 94 L288 0 L338 0 L338 94 C462 103 553 181 570 293 L570 293 Z M178 364 C178 454 221 516 288 528 L288 200 C221 212 178 275 178 364 L178 364 Z " />
<glyph glyph-name="sterling" unicode="&#xa3;" horiz-adv-x="664" d="M196 108 L196 110 C289 174 316 242 317 311 L506 311 L506 412 L288 412 C263 462 232 512 232 560 C232 625 279 669 349 669 C424 669 478 612 485 527 L619 527 C608 679 499 780 348 780 C189 780 84 695 84 566 C84 513 112 461 136 412 L59 412 L59 311 L169 311 L169 308 C169 233 139 168 44 116 L44 0 L627 0 L627 108 L196 108 Z " />
<glyph glyph-name="currency" unicode="&#xa4;" horiz-adv-x="609" d="M525 337 C525 375 517 410 502 439 L560 498 L478 581 L419 522 C387 539 348 548 305 548 C262 548 223 539 190 522 L131 582 L48 498 L108 437 C94 408 86 375 86 337 C86 299 94 265 108 236 L49 176 L131 93 L190 152 C223 135 261 126 305 126 C348 126 387 135 419 152 L478 92 L560 176 L502 235 C517 265 525 299 525 337 L525 337 Z M305 216 C238 216 194 264 194 337 C194 410 238 458 305 458 C371 458 416 410 416 337 C416 264 371 216 305 216 L305 216 Z " />
<glyph glyph-name="yen" unicode="&#xa5;" horiz-adv-x="758" d="M741 770 L591 770 L386 404 L384 404 L178 770 L19 770 L304 285 L160 285 L160 239 L308 239 L308 185 L160 185 L160 139 L308 139 L308 0 L446 0 L446 139 L600 139 L600 185 L446 185 L446 239 L600 239 L600 285 L452 285 L741 770 Z " />
<glyph glyph-name="brokenbar" unicode="&#xa6;" horiz-adv-x="265" d="M83 420 L182 420 L182 870 L83 870 L83 420 Z M83 -230 L182 -230 L182 220 L83 220 L83 -230 Z " />
<glyph glyph-name="section" unicode="&#xa7;" horiz-adv-x="697" d="M575 113 C622 153 649 208 649 274 C649 412 531 504 355 504 C322 504 292 501 264 495 C225 514 201 542 201 573 C201 631 256 670 338 670 C425 670 486 618 492 540 L628 540 C615 684 502 780 345 780 C174 780 61 693 61 563 C61 508 91 466 140 440 C90 400 61 342 61 274 C61 136 178 44 355 44 C393 44 429 48 461 57 C491 36 509 7 509 -23 C509 -87 444 -130 348 -130 C254 -130 185 -73 176 11 L40 11 C54 -140 176 -240 345 -240 C527 -240 649 -147 649 -9 C649 44 622 86 575 113 L575 113 Z M201 274 C201 346 262 394 355 394 C447 394 509 346 509 274 C509 202 447 154 355 154 C262 154 201 202 201 274 L201 274 Z " />
<glyph glyph-name="dieresis" unicode="&#xa8;" horiz-adv-x="446" d="M127 599 C170 599 199 627 199 668 C199 709 170 737 127 737 C83 737 54 709 54 668 C54 627 83 599 127 599 L127 599 Z M319 599 C362 599 391 627 391 668 C391 709 362 737 319 737 C276 737 247 709 247 668 C247 627 276 599 319 599 L319 599 Z " />
<glyph glyph-name="copyright" unicode="&#xa9;" horiz-adv-x="878" d="M439 -10 C677 -10 836 148 836 385 C836 622 677 780 439 780 C201 780 42 622 42 385 C42 148 201 -10 439 -10 L439 -10 Z M439 70 C255 70 132 196 132 385 C132 575 255 701 439 701 C623 701 746 575 746 385 C746 196 623 70 439 70 L439 70 Z M442 189 C540 189 613 248 625 337 L519 337 C511 300 481 275 442 275 C394 275 361 319 361 385 C361 451 394 495 442 495 C480 495 510 470 518 432 L624 432 C611 521 539 581 442 581 C327 581 251 502 251 385 C251 267 327 189 442 189 L442 189 Z " />
<glyph glyph-name="ordfeminine" unicode="&#xaa;" horiz-adv-x="409" d="M351 533 C341 533 334 541 334 554 L334 676 C334 738 280 780 199 780 C115 780 58 740 56 680 L141 675 C142 704 163 724 196 724 C226 724 246 707 246 681 L246 665 C115 636 41 627 41 547 C41 497 80 465 139 465 C186 465 227 484 249 517 L250 511 C255 483 277 465 309 465 C329 465 351 469 366 475 L366 536 C361 534 355 533 351 533 L351 533 Z M171 522 C145 522 128 535 128 554 C128 591 179 599 246 613 L246 585 C246 549 218 522 171 522 L171 522 Z " />
<glyph glyph-name="guillemotleft" unicode="&#xab;" horiz-adv-x="556" d="M287 101 L173 260 L287 419 L155 419 L36 260 L155 101 L287 101 Z M500 101 L386 260 L500 419 L368 419 L249 260 L368 101 L500 101 Z " />
<glyph glyph-name="logicalnot" unicode="&#xac;" horiz-adv-x="537" d="M62 374 L62 275 L341 275 L341 137 L473 137 L473 374 L62 374 Z " />
<glyph glyph-name="uni00AD" unicode="&#xad;" horiz-adv-x="423" d="M60 218 L363 218 L363 312 L60 312 L60 218 Z " />
<glyph glyph-name="registered" unicode="&#xae;" horiz-adv-x="511" d="M256 780 C127 780 42 699 42 579 C42 458 127 377 256 377 C384 377 469 458 469 579 C469 699 384 780 256 780 L256 780 Z M256 419 C157 419 90 483 90 579 C90 675 157 738 256 738 C355 738 421 675 421 579 C421 483 355 419 256 419 L256 419 Z M346 614 C346 651 313 676 263 676 L165 676 L165 482 L219 482 L219 553 L257 553 L299 482 L356 482 L308 561 C332 571 346 590 346 614 L346 614 Z M219 635 L266 635 C281 635 290 626 290 612 C290 597 281 588 266 588 L219 588 L219 635 Z " />
<glyph glyph-name="macron" unicode="&#xaf;" horiz-adv-x="360" d="M19 620 L341 620 L341 717 L19 717 L19 620 Z " />
<glyph glyph-name="degree" unicode="&#xb0;" horiz-adv-x="343" d="M171 530 C252 530 306 580 306 655 C306 730 252 780 171 780 C90 780 36 730 36 655 C36 580 90 530 171 530 L171 530 Z M171 597 C140 597 119 620 119 655 C119 690 140 713 171 713 C202 713 223 690 223 655 C223 620 202 597 171 597 L171 597 Z " />
<glyph glyph-name="plusminus" unicode="&#xb1;" horiz-adv-x="529" d="M330 388 L330 505 L198 505 L198 388 L59 388 L59 288 L198 288 L198 171 L330 171 L330 288 L470 288 L470 388 L330 388 Z M59 0 L470 0 L470 100 L59 100 L59 0 Z " />
<glyph glyph-name="acute" unicode="&#xb4;" horiz-adv-x="259" d="M31 571 L130 571 L255 741 L120 741 L31 571 Z " />
<glyph glyph-name="paragraph" unicode="&#xb6;" horiz-adv-x="708" d="M612 770 L258 770 C119 770 27 678 27 540 C27 402 119 309 258 309 L258 -230 L364 -230 L364 671 L505 671 L505 -230 L612 -230 L612 770 Z " />
<glyph glyph-name="periodcentered" unicode="&#xb7;" horiz-adv-x="267" d="M133 192 C182 192 214 224 214 271 C214 317 182 349 133 349 C84 349 51 317 51 271 C51 224 84 192 133 192 L133 192 Z " />
<glyph glyph-name="cedilla" unicode="&#xb8;" horiz-adv-x="290" d="M169 -56 C160 -56 150 -57 139 -61 L137 -60 L175 0 L121 33 L45 -101 L87 -128 C97 -116 116 -107 135 -107 C159 -107 175 -121 175 -143 C175 -169 146 -187 102 -187 C74 -187 38 -176 11 -160 L11 -216 C36 -231 78 -240 116 -240 C205 -240 264 -200 264 -140 C264 -89 226 -56 169 -56 L169 -56 Z " />
<glyph glyph-name="ordmasculine" unicode="&#xba;" horiz-adv-x="400" d="M201 465 C299 465 364 528 364 622 C364 717 299 780 201 780 C101 780 36 717 36 622 C36 528 101 465 201 465 L201 465 Z M201 537 C158 537 130 571 130 622 C130 673 158 707 201 707 C242 707 270 673 270 622 C270 571 242 537 201 537 L201 537 Z " />
<glyph glyph-name="guillemotright" unicode="&#xbb;" horiz-adv-x="556" d="M56 101 L188 101 L307 260 L188 419 L56 419 L170 260 L56 101 Z M269 101 L401 101 L520 260 L401 419 L269 419 L383 260 L269 101 Z " />
<glyph glyph-name="onequarter" unicode="&#xbc;" horiz-adv-x="864" d="M127 338 L223 338 L223 770 L158 770 C140 721 107 701 36 701 L36 638 L127 638 L127 338 Z M590 770 L76 0 L177 0 L691 770 L590 770 Z M833 166 L775 166 L775 432 L658 432 L471 171 L471 93 L679 93 L679 0 L775 0 L775 93 L833 93 L833 166 Z M681 339 L682 339 L682 166 L557 166 L557 167 L681 339 Z " />
<glyph glyph-name="onehalf" unicode="&#xbd;" horiz-adv-x="884" d="M126 338 L222 338 L222 770 L157 770 C139 721 106 701 35 701 L35 638 L126 638 L126 338 Z M589 770 L75 0 L176 0 L690 770 L589 770 Z M617 73 L617 74 C728 123 838 210 838 307 C838 389 780 438 681 438 C586 438 527 385 520 295 L613 295 C616 337 641 362 679 362 C714 362 735 342 735 308 C735 236 654 152 516 78 L516 0 L849 0 L849 73 L617 73 Z " />
<glyph glyph-name="threequarters" unicode="&#xbe;" horiz-adv-x="981" d="M364 460 C364 509 334 544 279 560 L279 561 C326 578 352 610 352 653 C352 730 295 776 197 776 C107 776 50 725 43 637 L133 637 C136 677 159 701 195 701 C232 701 253 681 253 647 C253 612 229 591 189 591 L180 591 L180 526 L191 526 C237 526 265 504 265 467 C265 429 240 407 196 407 C154 407 128 432 126 472 L34 472 C41 384 100 332 195 332 C302 332 364 380 364 460 L364 460 Z M707 770 L193 0 L294 0 L808 770 L707 770 Z M951 166 L893 166 L893 432 L776 432 L589 171 L589 93 L797 93 L797 0 L893 0 L893 93 L951 93 L951 166 Z M799 339 L800 339 L800 166 L675 166 L675 167 L799 339 Z " />
<glyph glyph-name="questiondown" unicode="&#xbf;" horiz-adv-x="522" d="M286 375 C335 375 367 407 367 454 C367 501 335 532 286 532 C236 532 204 501 204 454 C204 407 236 375 286 375 L286 375 Z M260 -240 C406 -240 509 -153 519 -23 L388 -23 C383 -87 334 -130 266 -130 C199 -130 154 -95 154 -43 C154 2 195 39 236 83 C287 139 338 203 338 287 L338 293 L233 293 C233 229 181 178 128 125 C73 71 8 20 8 -50 C8 -164 109 -240 260 -240 L260 -240 Z " />
<glyph glyph-name="Agrave" unicode="&#xc0;" horiz-adv-x="719" d="M425 828 L336 998 L201 998 L326 828 L425 828 Z M574 0 L721 0 L437 770 L283 770 L-2 0 L137 0 L198 177 L513 177 L574 0 Z M236 285 L355 630 L357 630 L476 285 L236 285 Z " />
<glyph glyph-name="Aacute" unicode="&#xc1;" horiz-adv-x="719" d="M518 998 L383 998 L294 828 L393 828 L518 998 Z M574 0 L721 0 L437 770 L283 770 L-2 0 L137 0 L198 177 L513 177 L574 0 Z M236 285 L355 630 L357 630 L476 285 L236 285 Z " />
<glyph glyph-name="Acircumflex" unicode="&#xc2;" horiz-adv-x="719" d="M359 926 L361 926 L431 828 L534 828 L422 994 L297 994 L185 828 L288 828 L359 926 Z M574 0 L721 0 L437 770 L283 770 L-2 0 L137 0 L198 177 L513 177 L574 0 Z M236 285 L355 630 L357 630 L476 285 L236 285 Z " />
<glyph glyph-name="Atilde" unicode="&#xc3;" horiz-adv-x="719" d="M282 888 C329 888 359 837 425 837 C500 837 546 894 547 991 L489 991 C485 957 466 936 437 936 C390 936 361 987 295 987 C219 987 174 930 173 833 L231 833 C235 867 253 888 282 888 L282 888 Z M574 0 L721 0 L437 770 L283 770 L-2 0 L137 0 L198 177 L513 177 L574 0 Z M236 285 L355 630 L357 630 L476 285 L236 285 Z " />
<glyph glyph-name="Adieresis" unicode="&#xc4;" horiz-adv-x="719" d="M264 824 C307 824 336 852 336 893 C336 934 307 962 264 962 C220 962 191 934 191 893 C191 852 220 824 264 824 L264 824 Z M456 824 C499 824 528 852 528 893 C528 934 499 962 456 962 C413 962 384 934 384 893 C384 852 413 824 456 824 L456 824 Z M574 0 L721 0 L437 770 L283 770 L-2 0 L137 0 L198 177 L513 177 L574 0 Z M236 285 L355 630 L357 630 L476 285 L236 285 Z " />
<glyph glyph-name="Aring" unicode="&#xc5;" horiz-adv-x="719" d="M359 821 C437 821 489 868 489 939 C489 1009 437 1056 359 1056 C281 1056 230 1009 230 939 C230 868 281 821 359 821 L359 821 Z M359 995 C391 995 412 972 412 939 C412 905 391 883 359 883 C327 883 307 905 307 939 C307 972 327 995 359 995 L359 995 Z M574 0 L721 0 L437 770 L283 770 L-2 0 L137 0 L198 177 L513 177 L574 0 Z M236 285 L355 630 L357 630 L476 285 L236 285 Z " />
<glyph glyph-name="AE" unicode="&#xc6;" horiz-adv-x="1105" d="M676 108 L630 342 L1014 342 L1014 450 L608 450 L566 662 L1050 662 L1050 770 L365 770 L-18 0 L121 0 L210 177 L519 177 L550 0 L1061 0 L1061 108 L676 108 Z M264 285 L437 630 L439 630 L500 285 L264 285 Z " />
<glyph glyph-name="Ccedilla" unicode="&#xc7;" horiz-adv-x="802" d="M416 101 C277 101 184 215 184 385 C184 555 277 669 416 669 C532 669 619 598 634 492 L769 492 C749 665 609 780 416 780 C191 780 41 622 41 385 C41 163 173 10 375 -8 L322 -101 L364 -128 C374 -116 393 -107 412 -107 C436 -107 452 -121 452 -143 C452 -169 423 -187 379 -187 C351 -187 315 -176 288 -160 L288 -216 C313 -231 355 -240 393 -240 C482 -240 541 -200 541 -140 C541 -89 503 -56 446 -56 C437 -56 427 -57 416 -61 L414 -60 L446 -9 C623 3 750 115 769 280 L634 280 C619 173 532 101 416 101 L416 101 Z " />
<glyph glyph-name="Egrave" unicode="&#xc8;" horiz-adv-x="673" d="M416 828 L327 998 L192 998 L317 828 L416 828 Z M221 108 L221 341 L582 341 L582 449 L221 449 L221 662 L618 662 L618 770 L83 770 L83 0 L630 0 L630 108 L221 108 Z " />
<glyph glyph-name="Eacute" unicode="&#xc9;" horiz-adv-x="673" d="M509 998 L374 998 L285 828 L384 828 L509 998 Z M221 108 L221 341 L582 341 L582 449 L221 449 L221 662 L618 662 L618 770 L83 770 L83 0 L630 0 L630 108 L221 108 Z " />
<glyph glyph-name="Ecircumflex" unicode="&#xca;" horiz-adv-x="673" d="M350 926 L352 926 L422 828 L525 828 L413 994 L288 994 L176 828 L279 828 L350 926 Z M221 108 L221 341 L582 341 L582 449 L221 449 L221 662 L618 662 L618 770 L83 770 L83 0 L630 0 L630 108 L221 108 Z " />
<glyph glyph-name="Edieresis" unicode="&#xcb;" horiz-adv-x="673" d="M255 824 C298 824 327 852 327 893 C327 934 298 962 255 962 C211 962 182 934 182 893 C182 852 211 824 255 824 L255 824 Z M447 824 C490 824 519 852 519 893 C519 934 490 962 447 962 C404 962 375 934 375 893 C375 852 404 824 447 824 L447 824 Z M221 108 L221 341 L582 341 L582 449 L221 449 L221 662 L618 662 L618 770 L83 770 L83 0 L630 0 L630 108 L221 108 Z " />
<glyph glyph-name="Igrave" unicode="&#xcc;" horiz-adv-x="303" d="M217 828 L128 998 L-7 998 L118 828 L217 828 Z M83 0 L221 0 L221 770 L83 770 L83 0 Z " />
<glyph glyph-name="Iacute" unicode="&#xcd;" horiz-adv-x="303" d="M86 828 L185 828 L310 998 L175 998 L86 828 Z M83 0 L221 0 L221 770 L83 770 L83 0 Z " />
<glyph glyph-name="Icircumflex" unicode="&#xce;" horiz-adv-x="303" d="M214 994 L89 994 L-23 828 L80 828 L151 926 L153 926 L223 828 L326 828 L214 994 Z M83 0 L221 0 L221 770 L83 770 L83 0 Z " />
<glyph glyph-name="Idieresis" unicode="&#xcf;" horiz-adv-x="303" d="M56 824 C99 824 128 852 128 893 C128 934 99 962 56 962 C12 962 -17 934 -17 893 C-17 852 12 824 56 824 L56 824 Z M248 824 C291 824 320 852 320 893 C320 934 291 962 248 962 C205 962 176 934 176 893 C176 852 205 824 248 824 L248 824 Z M83 0 L221 0 L221 770 L83 770 L83 0 Z " />
<glyph glyph-name="Eth" unicode="&#xd0;" horiz-adv-x="764" d="M338 770 L92 770 L92 438 L28 438 L28 344 L92 344 L92 0 L338 0 C569 0 723 154 723 385 C723 616 569 770 338 770 L338 770 Z M346 108 L230 108 L230 344 L396 344 L396 438 L230 438 L230 662 L346 662 C486 662 580 551 580 385 C580 219 486 108 346 108 L346 108 Z " />
<glyph glyph-name="Ntilde" unicode="&#xd1;" horiz-adv-x="778" d="M312 888 C359 888 389 837 455 837 C530 837 576 894 577 991 L519 991 C515 957 496 936 467 936 C420 936 391 987 325 987 C249 987 204 930 203 833 L261 833 C265 867 283 888 312 888 L312 888 Z M565 770 L568 214 L566 214 L214 770 L83 770 L83 0 L214 0 L211 554 L213 554 L566 0 L696 0 L696 770 L565 770 Z " />
<glyph glyph-name="Ograve" unicode="&#xd2;" horiz-adv-x="837" d="M484 828 L395 998 L260 998 L385 828 L484 828 Z M418 -10 C644 -10 795 148 795 385 C795 622 644 780 418 780 C192 780 41 622 41 385 C41 148 192 -10 418 -10 L418 -10 Z M418 101 C277 101 184 215 184 385 C184 555 277 669 418 669 C559 669 653 555 653 385 C653 215 559 101 418 101 L418 101 Z " />
<glyph glyph-name="Oacute" unicode="&#xd3;" horiz-adv-x="837" d="M353 828 L452 828 L577 998 L442 998 L353 828 Z M418 -10 C644 -10 795 148 795 385 C795 622 644 780 418 780 C192 780 41 622 41 385 C41 148 192 -10 418 -10 L418 -10 Z M418 101 C277 101 184 215 184 385 C184 555 277 669 418 669 C559 669 653 555 653 385 C653 215 559 101 418 101 L418 101 Z " />
<glyph glyph-name="Ocircumflex" unicode="&#xd4;" horiz-adv-x="837" d="M418 926 L420 926 L490 828 L593 828 L481 994 L356 994 L244 828 L347 828 L418 926 Z M418 780 C192 780 41 622 41 385 C41 148 192 -10 418 -10 C644 -10 795 148 795 385 C795 622 644 780 418 780 L418 780 Z M418 101 C277 101 184 215 184 385 C184 555 277 669 418 669 C559 669 653 555 653 385 C653 215 559 101 418 101 L418 101 Z " />
<glyph glyph-name="Otilde" unicode="&#xd5;" horiz-adv-x="837" d="M232 833 L290 833 C294 867 312 888 341 888 C388 888 418 837 484 837 C559 837 605 894 606 991 L548 991 C544 957 525 936 496 936 C449 936 420 987 354 987 C278 987 233 930 232 833 L232 833 Z M418 -10 C644 -10 795 148 795 385 C795 622 644 780 418 780 C192 780 41 622 41 385 C41 148 192 -10 418 -10 L418 -10 Z M418 101 C277 101 184 215 184 385 C184 555 277 669 418 669 C559 669 653 555 653 385 C653 215 559 101 418 101 L418 101 Z " />
<glyph glyph-name="Odieresis" unicode="&#xd6;" horiz-adv-x="837" d="M323 824 C366 824 395 852 395 893 C395 934 366 962 323 962 C279 962 250 934 250 893 C250 852 279 824 323 824 L323 824 Z M515 824 C558 824 587 852 587 893 C587 934 558 962 515 962 C472 962 443 934 443 893 C443 852 472 824 515 824 L515 824 Z M418 -10 C644 -10 795 148 795 385 C795 622 644 780 418 780 C192 780 41 622 41 385 C41 148 192 -10 418 -10 L418 -10 Z M418 101 C277 101 184 215 184 385 C184 555 277 669 418 669 C559 669 653 555 653 385 C653 215 559 101 418 101 L418 101 Z " />
<glyph glyph-name="multiply" unicode="&#xd7;" horiz-adv-x="515" d="M468 378 L382 464 L258 340 L134 464 L47 378 L171 254 L47 130 L134 43 L258 167 L382 43 L468 130 L344 254 L468 378 Z " />
<glyph glyph-name="Oslash" unicode="&#xd8;" horiz-adv-x="834" d="M649 708 L694 781 L646 809 L602 738 C549 765 486 780 417 780 C191 780 40 622 40 385 C40 244 94 131 185 62 L139 -12 L186 -40 L231 33 C284 5 347 -10 417 -10 C643 -10 794 148 794 385 C794 526 740 640 649 708 L649 708 Z M183 385 C183 555 276 669 417 669 C463 669 504 657 538 635 L253 172 C208 222 183 296 183 385 L183 385 Z M417 101 C371 101 329 113 295 136 L581 598 C626 548 652 474 652 385 C652 215 558 101 417 101 L417 101 Z " />
<glyph glyph-name="Ugrave" unicode="&#xd9;" horiz-adv-x="750" d="M444 828 L355 998 L220 998 L345 828 L444 828 Z M374 -10 C555 -10 675 106 675 278 L675 770 L544 770 L544 271 C544 169 477 101 378 101 C279 101 212 169 212 271 L212 770 L74 770 L74 278 C74 106 194 -10 374 -10 L374 -10 Z " />
<glyph glyph-name="Uacute" unicode="&#xda;" horiz-adv-x="750" d="M312 828 L411 828 L536 998 L401 998 L312 828 Z M374 -10 C555 -10 675 106 675 278 L675 770 L544 770 L544 271 C544 169 477 101 378 101 C279 101 212 169 212 271 L212 770 L74 770 L74 278 C74 106 194 -10 374 -10 L374 -10 Z " />
<glyph glyph-name="Ucircumflex" unicode="&#xdb;" horiz-adv-x="750" d="M377 926 L379 926 L449 828 L552 828 L440 994 L315 994 L203 828 L306 828 L377 926 Z M544 770 L544 271 C544 169 477 101 378 101 C279 101 212 169 212 271 L212 770 L74 770 L74 278 C74 106 194 -10 374 -10 C555 -10 675 106 675 278 L675 770 L544 770 Z " />
<glyph glyph-name="Udieresis" unicode="&#xdc;" horiz-adv-x="750" d="M282 824 C325 824 354 852 354 893 C354 934 325 962 282 962 C238 962 209 934 209 893 C209 852 238 824 282 824 L282 824 Z M474 824 C517 824 546 852 546 893 C546 934 517 962 474 962 C431 962 402 934 402 893 C402 852 431 824 474 824 L474 824 Z M374 -10 C555 -10 675 106 675 278 L675 770 L544 770 L544 271 C544 169 477 101 378 101 C279 101 212 169 212 271 L212 770 L74 770 L74 278 C74 106 194 -10 374 -10 L374 -10 Z " />
<glyph glyph-name="Yacute" unicode="&#xdd;" horiz-adv-x="710" d="M519 998 L384 998 L295 828 L394 828 L519 998 Z M716 770 L566 770 L361 404 L359 404 L153 770 L-6 770 L283 277 L283 0 L421 0 L421 274 L716 770 Z " />
<glyph glyph-name="Thorn" unicode="&#xde;" horiz-adv-x="683" d="M367 640 L221 640 L221 770 L83 770 L83 0 L221 0 L221 158 L366 158 C536 158 649 254 649 399 C649 544 536 640 367 640 L367 640 Z M373 265 L221 265 L221 532 L374 532 C453 532 507 478 507 399 C507 319 453 265 373 265 L373 265 Z " />
<glyph glyph-name="germandbls" unicode="&#xdf;" horiz-adv-x="658" d="M446 433 L446 435 C522 464 568 519 568 590 C568 704 471 780 325 780 C172 780 70 689 70 553 L70 0 L202 0 L202 558 C202 628 251 675 325 675 C391 675 433 636 433 577 C433 514 378 471 296 471 L296 384 L327 384 C424 384 488 326 488 240 C488 153 429 95 340 95 C322 95 297 98 276 101 L276 2 C299 -5 338 -10 373 -10 C523 -10 623 85 623 227 C623 329 555 405 446 433 L446 433 Z " />
<glyph glyph-name="agrave" unicode="&#xe0;" horiz-adv-x="650" d="M388 600 L299 770 L164 770 L289 600 L388 600 Z M448 522 L448 429 L446 429 C416 493 343 532 262 532 C129 532 39 424 39 261 C39 98 128 -10 261 -10 C343 -10 417 29 446 93 L448 93 L448 0 L580 0 L580 522 L448 522 Z M311 95 C229 95 174 162 174 261 C174 361 229 428 311 428 C393 428 448 361 448 261 C448 162 393 95 311 95 L311 95 Z " />
<glyph glyph-name="aacute" unicode="&#xe1;" horiz-adv-x="650" d="M481 770 L346 770 L257 600 L356 600 L481 770 Z M448 522 L448 429 L446 429 C416 493 343 532 262 532 C129 532 39 424 39 261 C39 98 128 -10 261 -10 C343 -10 417 29 446 93 L448 93 L448 0 L580 0 L580 522 L448 522 Z M311 95 C229 95 174 162 174 261 C174 361 229 428 311 428 C393 428 448 361 448 261 C448 162 393 95 311 95 L311 95 Z " />
<glyph glyph-name="acircumflex" unicode="&#xe2;" horiz-adv-x="650" d="M322 702 L324 702 L394 604 L497 604 L385 770 L260 770 L148 604 L251 604 L322 702 Z M448 522 L448 429 L446 429 C416 493 343 532 262 532 C129 532 39 424 39 261 C39 98 128 -10 261 -10 C343 -10 417 29 446 93 L448 93 L448 0 L580 0 L580 522 L448 522 Z M311 95 C229 95 174 162 174 261 C174 361 229 428 311 428 C393 428 448 361 448 261 C448 162 393 95 311 95 L311 95 Z " />
<glyph glyph-name="atilde" unicode="&#xe3;" horiz-adv-x="650" d="M245 671 C292 671 322 620 388 620 C463 620 509 677 510 774 L452 774 C448 740 429 719 400 719 C353 719 324 770 258 770 C182 770 137 713 136 616 L194 616 C198 650 216 671 245 671 L245 671 Z M448 522 L448 429 L446 429 C416 493 343 532 262 532 C129 532 39 424 39 261 C39 98 128 -10 261 -10 C343 -10 417 29 446 93 L448 93 L448 0 L580 0 L580 522 L448 522 Z M311 95 C229 95 174 162 174 261 C174 361 229 428 311 428 C393 428 448 361 448 261 C448 162 393 95 311 95 L311 95 Z " />
<glyph glyph-name="adieresis" unicode="&#xe4;" horiz-adv-x="650" d="M227 622 C270 622 299 650 299 691 C299 732 270 760 227 760 C183 760 154 732 154 691 C154 650 183 622 227 622 L227 622 Z M419 622 C462 622 491 650 491 691 C491 732 462 760 419 760 C376 760 347 732 347 691 C347 650 376 622 419 622 L419 622 Z M448 522 L448 429 L446 429 C416 493 343 532 262 532 C129 532 39 424 39 261 C39 98 128 -10 261 -10 C343 -10 417 29 446 93 L448 93 L448 0 L580 0 L580 522 L448 522 Z M311 95 C229 95 174 162 174 261 C174 361 229 428 311 428 C393 428 448 361 448 261 C448 162 393 95 311 95 L311 95 Z " />
<glyph glyph-name="aring" unicode="&#xe5;" horiz-adv-x="650" d="M322 573 C400 573 452 620 452 691 C452 761 400 808 322 808 C244 808 193 761 193 691 C193 620 244 573 322 573 L322 573 Z M322 747 C354 747 375 724 375 691 C375 657 354 635 322 635 C290 635 270 657 270 691 C270 724 290 747 322 747 L322 747 Z M448 522 L448 429 L446 429 C416 493 343 532 262 532 C129 532 39 424 39 261 C39 98 128 -10 261 -10 C343 -10 417 29 446 93 L448 93 L448 0 L580 0 L580 522 L448 522 Z M311 95 C229 95 174 162 174 261 C174 361 229 428 311 428 C393 428 448 361 448 261 C448 162 393 95 311 95 L311 95 Z " />
<glyph glyph-name="ae" unicode="&#xe6;" horiz-adv-x="942" d="M903 256 C903 422 803 532 653 532 C569 532 500 495 460 430 L458 430 C434 494 368 532 275 532 C146 532 59 462 56 358 L179 358 C180 413 221 449 282 449 C341 449 379 416 379 366 L379 332 C150 283 32 265 32 131 C32 46 107 -10 220 -10 C331 -10 409 34 447 111 L449 111 C487 34 559 -10 653 -10 C781 -10 880 66 902 181 L773 181 C760 123 708 85 646 85 C562 85 514 145 508 238 L903 238 L903 256 Z M643 441 C712 441 760 388 772 305 L510 305 C523 388 573 441 643 441 L643 441 Z M237 78 C189 78 157 105 157 144 C157 217 251 230 379 260 L379 203 C379 136 325 78 237 78 L237 78 Z " />
<glyph glyph-name="ccedilla" unicode="&#xe7;" horiz-adv-x="596" d="M565 190 L434 190 C423 133 372 95 307 95 C226 95 173 162 173 261 C173 361 226 427 307 427 C370 427 419 390 432 333 L562 333 C544 452 441 532 307 532 C145 532 38 424 38 261 C38 113 127 10 265 -7 L212 -101 L254 -128 C264 -116 283 -107 302 -107 C326 -107 342 -121 342 -143 C342 -169 313 -187 269 -187 C241 -187 205 -176 178 -160 L178 -216 C203 -231 245 -240 283 -240 C372 -240 431 -200 431 -140 C431 -89 393 -56 336 -56 C327 -56 317 -57 306 -61 L304 -60 L336 -9 C459 2 548 79 565 190 L565 190 Z " />
<glyph glyph-name="egrave" unicode="&#xe8;" horiz-adv-x="610" d="M371 600 L282 770 L147 770 L272 600 L371 600 Z M571 256 C571 422 465 532 306 532 C145 532 38 424 38 261 C38 99 145 -10 306 -10 C441 -10 546 66 569 181 L441 181 C426 123 371 85 306 85 C228 85 174 145 167 238 L571 238 L571 256 Z M306 441 C376 441 427 388 440 305 L169 305 C183 388 234 441 306 441 L306 441 Z " />
<glyph glyph-name="eacute" unicode="&#xe9;" horiz-adv-x="610" d="M464 770 L329 770 L240 600 L339 600 L464 770 Z M571 256 C571 422 465 532 306 532 C145 532 38 424 38 261 C38 99 145 -10 306 -10 C441 -10 546 66 569 181 L441 181 C426 123 371 85 306 85 C228 85 174 145 167 238 L571 238 L571 256 Z M306 441 C376 441 427 388 440 305 L169 305 C183 388 234 441 306 441 L306 441 Z " />
<glyph glyph-name="ecircumflex" unicode="&#xea;" horiz-adv-x="610" d="M305 702 L307 702 L377 604 L480 604 L368 770 L243 770 L131 604 L234 604 L305 702 Z M571 256 C571 422 465 532 306 532 C145 532 38 424 38 261 C38 99 145 -10 306 -10 C441 -10 546 66 569 181 L441 181 C426 123 371 85 306 85 C228 85 174 145 167 238 L571 238 L571 256 Z M306 441 C376 441 427 388 440 305 L169 305 C183 388 234 441 306 441 L306 441 Z " />
<glyph glyph-name="edieresis" unicode="&#xeb;" horiz-adv-x="610" d="M210 622 C253 622 282 650 282 691 C282 732 253 760 210 760 C166 760 137 732 137 691 C137 650 166 622 210 622 L210 622 Z M402 622 C445 622 474 650 474 691 C474 732 445 760 402 760 C359 760 330 732 330 691 C330 650 359 622 402 622 L402 622 Z M571 256 C571 422 465 532 306 532 C145 532 38 424 38 261 C38 99 145 -10 306 -10 C441 -10 546 66 569 181 L441 181 C426 123 371 85 306 85 C228 85 174 145 167 238 L571 238 L571 256 Z M306 441 C376 441 427 388 440 305 L169 305 C183 388 234 441 306 441 L306 441 Z " />
<glyph glyph-name="igrave" unicode="&#xec;" horiz-adv-x="276" d="M203 600 L114 770 L-21 770 L104 600 L203 600 Z M72 0 L204 0 L204 522 L72 522 L72 0 Z " />
<glyph glyph-name="iacute" unicode="&#xed;" horiz-adv-x="276" d="M72 600 L171 600 L296 770 L161 770 L72 600 Z M72 0 L204 0 L204 522 L72 522 L72 0 Z " />
<glyph glyph-name="icircumflex" unicode="&#xee;" horiz-adv-x="276" d="M200 770 L75 770 L-37 604 L66 604 L137 702 L139 702 L209 604 L312 604 L200 770 Z M72 0 L204 0 L204 522 L72 522 L72 0 Z " />
<glyph glyph-name="idieresis" unicode="&#xef;" horiz-adv-x="276" d="M42 622 C85 622 114 650 114 691 C114 732 85 760 42 760 C-2 760 -31 732 -31 691 C-31 650 -2 622 42 622 L42 622 Z M234 622 C277 622 306 650 306 691 C306 732 277 760 234 760 C191 760 162 732 162 691 C162 650 191 622 234 622 L234 622 Z M72 0 L204 0 L204 522 L72 522 L72 0 Z " />
<glyph glyph-name="eth" unicode="&#xf0;" horiz-adv-x="625" d="M384 669 L478 716 L439 780 L304 712 C251 737 188 759 115 780 L87 689 C126 678 162 667 194 656 L87 602 L126 538 L284 618 C368 577 417 527 443 457 C402 490 348 509 283 509 C136 509 37 405 37 249 C37 94 145 -10 308 -10 C471 -10 580 106 580 279 C580 458 528 578 384 669 L384 669 Z M309 95 C227 95 172 157 172 249 C172 342 227 403 309 403 C391 403 445 342 445 249 C445 157 391 95 309 95 L309 95 Z " />
<glyph glyph-name="ntilde" unicode="&#xf1;" horiz-adv-x="627" d="M239 671 C286 671 316 620 382 620 C457 620 503 677 504 774 L446 774 C442 740 423 719 394 719 C347 719 318 770 252 770 C176 770 131 713 130 616 L188 616 C192 650 210 671 239 671 L239 671 Z M385 532 C307 532 235 493 204 433 L202 433 L202 522 L70 522 L70 0 L202 0 L202 288 C202 372 251 427 323 427 C388 427 431 381 431 313 L431 0 L563 0 L563 333 C563 453 492 532 385 532 L385 532 Z " />
<glyph glyph-name="ograve" unicode="&#xf2;" horiz-adv-x="619" d="M375 600 L286 770 L151 770 L276 600 L375 600 Z M309 -10 C472 -10 581 98 581 261 C581 424 472 532 309 532 C146 532 38 424 38 261 C38 98 146 -10 309 -10 L309 -10 Z M309 95 C227 95 173 162 173 261 C173 361 227 428 309 428 C391 428 446 361 446 261 C446 162 391 95 309 95 L309 95 Z " />
<glyph glyph-name="oacute" unicode="&#xf3;" horiz-adv-x="619" d="M244 600 L343 600 L468 770 L333 770 L244 600 Z M309 -10 C472 -10 581 98 581 261 C581 424 472 532 309 532 C146 532 38 424 38 261 C38 98 146 -10 309 -10 L309 -10 Z M309 95 C227 95 173 162 173 261 C173 361 227 428 309 428 C391 428 446 361 446 261 C446 162 391 95 309 95 L309 95 Z " />
<glyph glyph-name="ocircumflex" unicode="&#xf4;" horiz-adv-x="619" d="M309 702 L311 702 L381 604 L484 604 L372 770 L247 770 L135 604 L238 604 L309 702 Z M309 532 C146 532 38 424 38 261 C38 98 146 -10 309 -10 C472 -10 581 98 581 261 C581 424 472 532 309 532 L309 532 Z M309 95 C227 95 173 162 173 261 C173 361 227 428 309 428 C391 428 446 361 446 261 C446 162 391 95 309 95 L309 95 Z " />
<glyph glyph-name="otilde" unicode="&#xf5;" horiz-adv-x="619" d="M123 616 L181 616 C185 650 203 671 232 671 C279 671 309 620 375 620 C450 620 496 677 497 774 L439 774 C435 740 416 719 387 719 C340 719 311 770 245 770 C169 770 124 713 123 616 L123 616 Z M309 -10 C472 -10 581 98 581 261 C581 424 472 532 309 532 C146 532 38 424 38 261 C38 98 146 -10 309 -10 L309 -10 Z M309 95 C227 95 173 162 173 261 C173 361 227 428 309 428 C391 428 446 361 446 261 C446 162 391 95 309 95 L309 95 Z " />
<glyph glyph-name="odieresis" unicode="&#xf6;" horiz-adv-x="619" d="M214 622 C257 622 286 650 286 691 C286 732 257 760 214 760 C170 760 141 732 141 691 C141 650 170 622 214 622 L214 622 Z M406 622 C449 622 478 650 478 691 C478 732 449 760 406 760 C363 760 334 732 334 691 C334 650 363 622 406 622 L406 622 Z M309 -10 C472 -10 581 98 581 261 C581 424 472 532 309 532 C146 532 38 424 38 261 C38 98 146 -10 309 -10 L309 -10 Z M309 95 C227 95 173 162 173 261 C173 361 227 428 309 428 C391 428 446 361 446 261 C446 162 391 95 309 95 L309 95 Z " />
<glyph glyph-name="divide" unicode="&#xf7;" horiz-adv-x="508" d="M254 346 C299 346 329 375 329 418 C329 461 299 490 254 490 C209 490 179 461 179 418 C179 375 209 346 254 346 L254 346 Z M48 202 L459 202 L459 302 L48 302 L48 202 Z M254 14 C299 14 329 43 329 86 C329 129 299 158 254 158 C209 158 179 129 179 86 C179 43 209 14 254 14 L254 14 Z " />
<glyph glyph-name="oslash" unicode="&#xf8;" horiz-adv-x="619" d="M484 477 L526 539 L483 566 L441 504 C403 522 359 532 309 532 C146 532 38 424 38 261 C38 168 73 93 134 45 L93 -16 L136 -44 L178 18 C215 0 260 -10 309 -10 C472 -10 581 98 581 261 C581 354 545 429 484 477 L484 477 Z M173 261 C173 361 227 428 309 428 C335 428 358 421 378 409 L204 149 C184 178 173 216 173 261 L173 261 Z M309 95 C283 95 261 101 241 113 L415 373 C435 345 446 306 446 261 C446 162 391 95 309 95 L309 95 Z " />
<glyph glyph-name="ugrave" unicode="&#xf9;" horiz-adv-x="608" d="M371 600 L282 770 L147 770 L272 600 L371 600 Z M304 -10 C449 -10 545 76 545 205 L545 522 L413 522 L413 218 C413 144 369 95 304 95 C239 95 195 144 195 218 L195 522 L63 522 L63 205 C63 76 160 -10 304 -10 L304 -10 Z " />
<glyph glyph-name="uacute" unicode="&#xfa;" horiz-adv-x="608" d="M240 600 L339 600 L464 770 L329 770 L240 600 Z M304 -10 C449 -10 545 76 545 205 L545 522 L413 522 L413 218 C413 144 369 95 304 95 C239 95 195 144 195 218 L195 522 L63 522 L63 205 C63 76 160 -10 304 -10 L304 -10 Z " />
<glyph glyph-name="ucircumflex" unicode="&#xfb;" horiz-adv-x="608" d="M304 702 L306 702 L376 604 L479 604 L367 770 L242 770 L130 604 L233 604 L304 702 Z M413 522 L413 218 C413 144 369 95 304 95 C239 95 195 144 195 218 L195 522 L63 522 L63 205 C63 76 160 -10 304 -10 C449 -10 545 76 545 205 L545 522 L413 522 Z " />
<glyph glyph-name="udieresis" unicode="&#xfc;" horiz-adv-x="608" d="M210 622 C253 622 282 650 282 691 C282 732 253 760 210 760 C166 760 137 732 137 691 C137 650 166 622 210 622 L210 622 Z M402 622 C445 622 474 650 474 691 C474 732 445 760 402 760 C359 760 330 732 330 691 C330 650 359 622 402 622 L402 622 Z M304 -10 C449 -10 545 76 545 205 L545 522 L413 522 L413 218 C413 144 369 95 304 95 C239 95 195 144 195 218 L195 522 L63 522 L63 205 C63 76 160 -10 304 -10 L304 -10 Z " />
<glyph glyph-name="yacute" unicode="&#xfd;" horiz-adv-x="574" d="M448 770 L313 770 L224 600 L323 600 L448 770 Z M432 522 L290 121 L288 121 L145 522 L8 522 L222 -32 L148 -230 L276 -230 L566 522 L432 522 Z " />
<glyph glyph-name="thorn" unicode="&#xfe;" horiz-adv-x="650" d="M389 532 C307 532 234 493 204 429 L202 429 L202 770 L70 770 L70 -230 L202 -230 L202 93 L204 93 C233 29 307 -10 388 -10 C521 -10 610 98 610 261 C610 424 522 532 389 532 L389 532 Z M339 95 C257 95 202 162 202 261 C202 361 257 427 339 427 C421 427 476 361 476 261 C476 162 421 95 339 95 L339 95 Z " />
<glyph glyph-name="ydieresis" unicode="&#xff;" horiz-adv-x="574" d="M194 622 C237 622 266 650 266 691 C266 732 237 760 194 760 C150 760 121 732 121 691 C121 650 150 622 194 622 L194 622 Z M386 622 C429 622 458 650 458 691 C458 732 429 760 386 760 C343 760 314 732 314 691 C314 650 343 622 386 622 L386 622 Z M432 522 L290 121 L288 121 L145 522 L8 522 L222 -32 L148 -230 L276 -230 L566 522 L432 522 Z " />
<glyph glyph-name="Amacron" unicode="&#x100;" horiz-adv-x="719" d="M521 932 L199 932 L199 835 L521 835 L521 932 Z M574 0 L721 0 L437 770 L283 770 L-2 0 L137 0 L198 177 L513 177 L574 0 Z M236 285 L355 630 L357 630 L476 285 L236 285 Z " />
<glyph glyph-name="amacron" unicode="&#x101;" horiz-adv-x="650" d="M484 741 L162 741 L162 644 L484 644 L484 741 Z M448 522 L448 429 L446 429 C416 493 343 532 262 532 C129 532 39 424 39 261 C39 98 128 -10 261 -10 C343 -10 417 29 446 93 L448 93 L448 0 L580 0 L580 522 L448 522 Z M311 95 C229 95 174 162 174 261 C174 361 229 428 311 428 C393 428 448 361 448 261 C448 162 393 95 311 95 L311 95 Z " />
<glyph glyph-name="Abreve" unicode="&#x102;" horiz-adv-x="719" d="M360 824 C456 824 521 892 523 994 L433 994 C432 939 403 903 360 903 C317 903 288 939 287 994 L198 994 C199 892 264 824 360 824 L360 824 Z M574 0 L721 0 L437 770 L283 770 L-2 0 L137 0 L198 177 L513 177 L574 0 Z M236 285 L355 630 L357 630 L476 285 L236 285 Z " />
<glyph glyph-name="abreve" unicode="&#x103;" horiz-adv-x="650" d="M323 600 C419 600 484 668 486 770 L396 770 C395 715 366 679 323 679 C280 679 251 715 250 770 L161 770 C162 668 227 600 323 600 L323 600 Z M448 522 L448 429 L446 429 C416 493 343 532 262 532 C129 532 39 424 39 261 C39 98 128 -10 261 -10 C343 -10 417 29 446 93 L448 93 L448 0 L580 0 L580 522 L448 522 Z M311 95 C229 95 174 162 174 261 C174 361 229 428 311 428 C393 428 448 361 448 261 C448 162 393 95 311 95 L311 95 Z " />
<glyph glyph-name="Aogonek" unicode="&#x104;" horiz-adv-x="719" d="M630 -127 C630 -97 667 -46 721 0 L437 770 L283 770 L-2 0 L137 0 L198 177 L513 177 L574 0 L631 0 C566 -54 524 -113 524 -154 C524 -205 568 -240 635 -240 C665 -240 700 -233 721 -221 L721 -148 C706 -158 685 -165 668 -165 C645 -165 630 -150 630 -127 L630 -127 Z M236 285 L355 630 L357 630 L476 285 L236 285 Z " />
<glyph glyph-name="aogonek" unicode="&#x105;" horiz-adv-x="650" d="M448 522 L448 429 L446 429 C416 493 343 532 262 532 C129 532 39 424 39 261 C39 98 128 -10 261 -10 C343 -10 417 29 446 93 L448 93 L448 0 L489 0 C424 -54 382 -113 382 -154 C382 -205 426 -240 493 -240 C523 -240 558 -233 579 -221 L579 -148 C564 -158 543 -165 526 -165 C503 -165 488 -150 488 -127 C488 -97 525 -46 579 0 L580 0 L580 522 L448 522 Z M311 95 C229 95 174 162 174 261 C174 361 229 428 311 428 C393 428 448 361 448 261 C448 162 393 95 311 95 L311 95 Z " />
<glyph glyph-name="Cacute" unicode="&#x106;" horiz-adv-x="802" d="M351 828 L450 828 L575 998 L440 998 L351 828 Z M416 -10 C608 -10 749 106 769 280 L634 280 C619 173 532 101 416 101 C277 101 184 215 184 385 C184 555 277 669 416 669 C532 669 619 598 634 492 L769 492 C749 665 609 780 416 780 C191 780 41 622 41 385 C41 148 191 -10 416 -10 L416 -10 Z " />
<glyph glyph-name="cacute" unicode="&#x107;" horiz-adv-x="596" d="M241 600 L340 600 L465 770 L330 770 L241 600 Z M307 -10 C444 -10 547 70 565 190 L434 190 C423 133 372 95 307 95 C226 95 173 162 173 261 C173 361 226 427 307 427 C370 427 419 390 432 333 L562 333 C544 452 441 532 307 532 C145 532 38 424 38 261 C38 98 145 -10 307 -10 L307 -10 Z " />
<glyph glyph-name="Cdotaccent" unicode="&#x10a;" horiz-adv-x="802" d="M416 831 C462 831 492 860 492 904 C492 947 462 975 416 975 C370 975 339 947 339 904 C339 860 370 831 416 831 L416 831 Z M416 -10 C608 -10 749 106 769 280 L634 280 C619 173 532 101 416 101 C277 101 184 215 184 385 C184 555 277 669 416 669 C532 669 619 598 634 492 L769 492 C749 665 609 780 416 780 C191 780 41 622 41 385 C41 148 191 -10 416 -10 L416 -10 Z " />
<glyph glyph-name="cdotaccent" unicode="&#x10b;" horiz-adv-x="596" d="M306 623 C352 623 382 652 382 696 C382 739 352 767 306 767 C260 767 229 739 229 696 C229 652 260 623 306 623 L306 623 Z M307 -10 C444 -10 547 70 565 190 L434 190 C423 133 372 95 307 95 C226 95 173 162 173 261 C173 361 226 427 307 427 C370 427 419 390 432 333 L562 333 C544 452 441 532 307 532 C145 532 38 424 38 261 C38 98 145 -10 307 -10 L307 -10 Z " />
<glyph glyph-name="Ccaron" unicode="&#x10c;" horiz-adv-x="802" d="M354 828 L479 828 L591 994 L488 994 L418 896 L416 896 L345 994 L242 994 L354 828 Z M416 101 C277 101 184 215 184 385 C184 555 277 669 416 669 C532 669 619 598 634 492 L769 492 C749 665 609 780 416 780 C191 780 41 622 41 385 C41 148 191 -10 416 -10 C608 -10 749 106 769 280 L634 280 C619 173 532 101 416 101 L416 101 Z " />
<glyph glyph-name="ccaron" unicode="&#x10d;" horiz-adv-x="596" d="M244 604 L369 604 L481 770 L378 770 L308 672 L306 672 L235 770 L132 770 L244 604 Z M434 190 C423 133 372 95 307 95 C226 95 173 162 173 261 C173 361 226 427 307 427 C370 427 419 390 432 333 L562 333 C544 452 441 532 307 532 C145 532 38 424 38 261 C38 98 145 -10 307 -10 C444 -10 547 70 565 190 L434 190 Z " />
<glyph glyph-name="Dcaron" unicode="&#x10e;" horiz-adv-x="755" d="M272 828 L397 828 L509 994 L406 994 L336 896 L334 896 L263 994 L160 994 L272 828 Z M329 770 L83 770 L83 0 L329 0 C560 0 714 154 714 385 C714 616 560 770 329 770 L329 770 Z M337 108 L221 108 L221 662 L337 662 C477 662 571 551 571 385 C571 219 477 108 337 108 L337 108 Z " />
<glyph glyph-name="dcaron" unicode="&#x10f;" horiz-adv-x="715" d="M669 780 L615 555 L717 529 L779 753 L669 780 Z M448 429 L446 429 C416 493 343 532 262 532 C129 532 39 424 39 261 C39 98 128 -10 261 -10 C343 -10 417 29 446 93 L448 93 L448 0 L580 0 L580 770 L448 770 L448 429 Z M311 95 C229 95 174 162 174 261 C174 361 229 428 311 428 C393 428 448 361 448 261 C448 162 393 95 311 95 L311 95 Z " />
<glyph glyph-name="Dcroat" unicode="&#x110;" horiz-adv-x="764" d="M338 770 L92 770 L92 438 L28 438 L28 344 L92 344 L92 0 L338 0 C569 0 723 154 723 385 C723 616 569 770 338 770 L338 770 Z M346 108 L230 108 L230 344 L396 344 L396 438 L230 438 L230 662 L346 662 C486 662 580 551 580 385 C580 219 486 108 346 108 L346 108 Z " />
<glyph glyph-name="dcroat" unicode="&#x111;" horiz-adv-x="650" d="M641 690 L580 690 L580 770 L448 770 L448 690 L273 690 L273 597 L448 597 L448 429 L446 429 C416 493 343 532 262 532 C129 532 39 424 39 261 C39 98 128 -10 261 -10 C343 -10 417 29 446 93 L448 93 L448 0 L580 0 L580 597 L641 597 L641 690 Z M311 95 C229 95 174 162 174 261 C174 361 229 428 311 428 C393 428 448 361 448 261 C448 162 393 95 311 95 L311 95 Z " />
<glyph glyph-name="Emacron" unicode="&#x112;" horiz-adv-x="673" d="M512 932 L190 932 L190 835 L512 835 L512 932 Z M221 108 L221 341 L582 341 L582 449 L221 449 L221 662 L618 662 L618 770 L83 770 L83 0 L630 0 L630 108 L221 108 Z " />
<glyph glyph-name="emacron" unicode="&#x113;" horiz-adv-x="610" d="M467 741 L145 741 L145 644 L467 644 L467 741 Z M571 256 C571 422 465 532 306 532 C145 532 38 424 38 261 C38 99 145 -10 306 -10 C441 -10 546 66 569 181 L441 181 C426 123 371 85 306 85 C228 85 174 145 167 238 L571 238 L571 256 Z M306 441 C376 441 427 388 440 305 L169 305 C183 388 234 441 306 441 L306 441 Z " />
<glyph glyph-name="Edotaccent" unicode="&#x116;" horiz-adv-x="673" d="M350 831 C396 831 426 860 426 904 C426 947 396 975 350 975 C304 975 273 947 273 904 C273 860 304 831 350 831 L350 831 Z M221 108 L221 341 L582 341 L582 449 L221 449 L221 662 L618 662 L618 770 L83 770 L83 0 L630 0 L630 108 L221 108 Z " />
<glyph glyph-name="edotaccent" unicode="&#x117;" horiz-adv-x="610" d="M305 623 C351 623 381 652 381 696 C381 739 351 767 305 767 C259 767 228 739 228 696 C228 652 259 623 305 623 L305 623 Z M571 256 C571 422 465 532 306 532 C145 532 38 424 38 261 C38 99 145 -10 306 -10 C441 -10 546 66 569 181 L441 181 C426 123 371 85 306 85 C228 85 174 145 167 238 L571 238 L571 256 Z M306 441 C376 441 427 388 440 305 L169 305 C183 388 234 441 306 441 L306 441 Z " />
<glyph glyph-name="Eogonek" unicode="&#x118;" horiz-adv-x="673" d="M221 108 L221 341 L582 341 L582 449 L221 449 L221 662 L618 662 L618 770 L83 770 L83 0 L476 0 C411 -54 369 -113 369 -154 C369 -205 413 -240 480 -240 C510 -240 545 -233 566 -221 L566 -148 C551 -158 530 -165 513 -165 C490 -165 475 -150 475 -127 C475 -97 512 -46 566 0 L630 0 L630 108 L221 108 Z " />
<glyph glyph-name="eogonek" unicode="&#x119;" horiz-adv-x="610" d="M571 256 C571 422 465 532 306 532 C145 532 38 424 38 261 C38 104 139 -4 293 -10 C234 -61 197 -115 197 -154 C197 -205 241 -240 308 -240 C338 -240 373 -233 394 -221 L394 -148 C379 -158 358 -165 341 -165 C318 -165 303 -150 303 -127 C303 -97 340 -46 394 0 L392 1 C484 26 551 92 569 181 L441 181 C426 123 371 85 306 85 C228 85 174 145 167 238 L571 238 L571 256 Z M306 441 C376 441 427 388 440 305 L169 305 C183 388 234 441 306 441 L306 441 Z " />
<glyph glyph-name="Ecaron" unicode="&#x11a;" horiz-adv-x="673" d="M288 828 L413 828 L525 994 L422 994 L352 896 L350 896 L279 994 L176 994 L288 828 Z M221 108 L221 341 L582 341 L582 449 L221 449 L221 662 L618 662 L618 770 L83 770 L83 0 L630 0 L630 108 L221 108 Z " />
<glyph glyph-name="ecaron" unicode="&#x11b;" horiz-adv-x="610" d="M243 604 L368 604 L480 770 L377 770 L307 672 L305 672 L234 770 L131 770 L243 604 Z M571 256 C571 422 465 532 306 532 C145 532 38 424 38 261 C38 99 145 -10 306 -10 C441 -10 546 66 569 181 L441 181 C426 123 371 85 306 85 C228 85 174 145 167 238 L571 238 L571 256 Z M306 441 C376 441 427 388 440 305 L169 305 C183 388 234 441 306 441 L306 441 Z " />
<glyph glyph-name="Gbreve" unicode="&#x11e;" horiz-adv-x="814" d="M419 824 C515 824 580 892 582 994 L492 994 C491 939 462 903 419 903 C376 903 347 939 346 994 L257 994 C258 892 323 824 419 824 L419 824 Z M406 405 L406 312 L633 312 C619 184 536 101 416 101 C277 101 184 215 184 385 C184 555 277 669 416 669 C530 669 616 601 632 500 L765 500 C745 668 606 780 416 780 C191 780 41 622 41 385 C41 148 191 -10 416 -10 C629 -10 771 142 771 370 L771 405 L406 405 Z " />
<glyph glyph-name="gbreve" unicode="&#x11f;" horiz-adv-x="650" d="M323 600 C419 600 484 668 486 770 L396 770 C395 715 366 679 323 679 C280 679 251 715 250 770 L161 770 C162 668 227 600 323 600 L323 600 Z M448 522 L448 429 L446 429 C416 493 343 532 262 532 C129 532 39 424 39 261 C39 98 128 -10 261 -10 C343 -10 417 29 446 93 L448 93 L448 -10 C448 -85 394 -135 313 -135 C243 -135 194 -96 187 -38 L61 -38 C71 -159 172 -240 313 -240 C473 -240 580 -145 580 -3 L580 522 L448 522 Z M311 95 C229 95 174 162 174 261 C174 361 229 428 311 428 C393 428 448 361 448 261 C448 162 393 95 311 95 L311 95 Z " />
<glyph glyph-name="Gdotaccent" unicode="&#x120;" horiz-adv-x="814" d="M418 831 C464 831 494 860 494 904 C494 947 464 975 418 975 C372 975 341 947 341 904 C341 860 372 831 418 831 L418 831 Z M406 405 L406 312 L633 312 C619 184 536 101 416 101 C277 101 184 215 184 385 C184 555 277 669 416 669 C530 669 616 601 632 500 L765 500 C745 668 606 780 416 780 C191 780 41 622 41 385 C41 148 191 -10 416 -10 C629 -10 771 142 771 370 L771 405 L406 405 Z " />
<glyph glyph-name="gdotaccent" unicode="&#x121;" horiz-adv-x="650" d="M322 623 C368 623 398 652 398 696 C398 739 368 767 322 767 C276 767 245 739 245 696 C245 652 276 623 322 623 L322 623 Z M448 522 L448 429 L446 429 C416 493 343 532 262 532 C129 532 39 424 39 261 C39 98 128 -10 261 -10 C343 -10 417 29 446 93 L448 93 L448 -10 C448 -85 394 -135 313 -135 C243 -135 194 -96 187 -38 L61 -38 C71 -159 172 -240 313 -240 C473 -240 580 -145 580 -3 L580 522 L448 522 Z M311 95 C229 95 174 162 174 261 C174 361 229 428 311 428 C393 428 448 361 448 261 C448 162 393 95 311 95 L311 95 Z " />
<glyph glyph-name="Gcommaaccent" unicode="&#x122;" horiz-adv-x="814" d="M406 405 L406 312 L633 312 C619 184 536 101 416 101 C277 101 184 215 184 385 C184 555 277 669 416 669 C530 669 616 601 632 500 L765 500 C745 668 606 780 416 780 C191 780 41 622 41 385 C41 148 191 -10 416 -10 C629 -10 771 142 771 370 L771 405 L406 405 Z M418 -58 C378 -58 350 -85 350 -125 C350 -159 374 -182 408 -182 C420 -182 431 -179 443 -174 C435 -212 405 -241 366 -250 L372 -276 C441 -265 487 -209 487 -137 C487 -89 459 -58 418 -58 L418 -58 Z " />
<glyph glyph-name="gcommaaccent" unicode="&#x123;" horiz-adv-x="650" d="M323 608 C363 608 390 631 390 667 C390 700 368 722 333 722 C322 722 310 720 299 715 C308 751 333 778 377 785 L367 812 C300 800 254 749 254 685 C254 639 282 608 323 608 L323 608 Z M448 522 L448 429 L446 429 C416 493 343 532 262 532 C129 532 39 424 39 261 C39 98 128 -10 261 -10 C343 -10 417 29 446 93 L448 93 L448 -10 C448 -85 394 -135 313 -135 C243 -135 194 -96 187 -38 L61 -38 C71 -159 172 -240 313 -240 C473 -240 580 -145 580 -3 L580 522 L448 522 Z M311 95 C229 95 174 162 174 261 C174 361 229 428 311 428 C393 428 448 361 448 261 C448 162 393 95 311 95 L311 95 Z " />
<glyph glyph-name="Hbar" unicode="&#x126;" horiz-adv-x="797" d="M774 666 L706 666 L706 770 L568 770 L568 666 L231 666 L231 770 L93 770 L93 666 L24 666 L24 571 L93 571 L93 0 L231 0 L231 336 L568 336 L568 0 L706 0 L706 571 L774 571 L774 666 Z M568 445 L231 445 L231 571 L568 571 L568 445 Z " />
<glyph glyph-name="hbar" unicode="&#x127;" horiz-adv-x="627" d="M385 532 C307 532 235 493 204 433 L202 433 L202 597 L377 597 L377 691 L202 691 L202 770 L70 770 L70 691 L9 691 L9 597 L70 597 L70 0 L202 0 L202 288 C202 372 251 427 323 427 C388 427 431 381 431 313 L431 0 L563 0 L563 333 C563 453 492 532 385 532 L385 532 Z " />
<glyph glyph-name="Imacron" unicode="&#x12a;" horiz-adv-x="303" d="M-9 835 L313 835 L313 932 L-9 932 L-9 835 Z M83 0 L221 0 L221 770 L83 770 L83 0 Z " />
<glyph glyph-name="imacron" unicode="&#x12b;" horiz-adv-x="276" d="M-1 730 L-1 633 L278 633 L278 730 L-1 730 Z M72 0 L204 0 L204 522 L72 522 L72 0 Z " />
<glyph glyph-name="Iogonek" unicode="&#x12e;" horiz-adv-x="303" d="M221 0 L221 770 L83 770 L83 0 L131 0 C66 -54 24 -113 24 -154 C24 -205 68 -240 135 -240 C165 -240 200 -233 221 -221 L221 -148 C206 -158 185 -165 168 -165 C145 -165 130 -150 130 -127 C130 -97 167 -46 221 0 L221 0 Z " />
<glyph glyph-name="iogonek" unicode="&#x12f;" horiz-adv-x="276" d="M137 623 C183 623 213 652 213 696 C213 739 183 767 137 767 C91 767 60 739 60 696 C60 652 91 623 137 623 L137 623 Z M72 0 L114 0 C49 -54 7 -113 7 -154 C7 -205 51 -240 118 -240 C148 -240 183 -233 204 -221 L204 -148 C189 -158 168 -165 151 -165 C128 -165 113 -150 113 -127 C113 -97 150 -46 204 0 L204 522 L72 522 L72 0 Z " />
<glyph glyph-name="Idotaccent" unicode="&#x130;" horiz-adv-x="303" d="M151 831 C197 831 227 860 227 904 C227 947 197 975 151 975 C105 975 74 947 74 904 C74 860 105 831 151 831 L151 831 Z M83 0 L221 0 L221 770 L83 770 L83 0 Z " />
<glyph glyph-name="dotlessi" unicode="&#x131;" horiz-adv-x="276" d="M72 0 L204 0 L204 522 L72 522 L72 0 Z " />
<glyph glyph-name="Kcommaaccent" unicode="&#x136;" horiz-adv-x="717" d="M83 0 L221 0 L221 770 L83 770 L83 0 Z M404 411 L691 770 L536 770 L240 400 L569 0 L732 0 L404 411 Z M375 -58 C335 -58 307 -85 307 -125 C307 -159 331 -182 365 -182 C377 -182 388 -179 400 -174 C392 -212 362 -241 323 -250 L329 -276 C398 -265 444 -209 444 -137 C444 -89 416 -58 375 -58 L375 -58 Z " />
<glyph glyph-name="kcommaaccent" unicode="&#x137;" horiz-adv-x="615" d="M70 0 L202 0 L202 770 L70 770 L70 0 Z M370 288 L587 522 L437 522 L217 284 L473 0 L627 0 L370 288 Z M309 -58 C269 -58 241 -85 241 -125 C241 -159 265 -182 299 -182 C311 -182 322 -179 334 -174 C326 -212 296 -241 257 -250 L263 -276 C332 -265 378 -209 378 -137 C378 -89 350 -58 309 -58 L309 -58 Z " />
<glyph glyph-name="Lacute" unicode="&#x139;" horiz-adv-x="584" d="M310 998 L175 998 L86 828 L185 828 L310 998 Z M221 112 L221 770 L83 770 L83 0 L565 0 L565 112 L221 112 Z " />
<glyph glyph-name="lacute" unicode="&#x13a;" horiz-adv-x="276" d="M73 828 L172 828 L297 998 L162 998 L73 828 Z M72 0 L204 0 L204 770 L72 770 L72 0 Z " />
<glyph glyph-name="Lcommaaccent" unicode="&#x13b;" horiz-adv-x="584" d="M221 112 L221 770 L83 770 L83 0 L565 0 L565 112 L221 112 Z M297 -58 C257 -58 229 -85 229 -125 C229 -159 253 -182 287 -182 C299 -182 310 -179 322 -174 C314 -212 284 -241 245 -250 L251 -276 C320 -265 366 -209 366 -137 C366 -89 338 -58 297 -58 L297 -58 Z " />
<glyph glyph-name="lcommaaccent" unicode="&#x13c;" horiz-adv-x="276" d="M204 770 L72 770 L72 0 L204 0 L204 770 Z M138 -58 C98 -58 70 -85 70 -125 C70 -159 94 -182 128 -182 C140 -182 151 -179 163 -174 C155 -212 125 -241 86 -250 L92 -276 C161 -265 207 -209 207 -137 C207 -89 179 -58 138 -58 L138 -58 Z " />
<glyph glyph-name="Lcaron" unicode="&#x13d;" horiz-adv-x="602" d="M500 753 L390 780 L336 555 L438 529 L500 753 Z M221 112 L221 770 L83 770 L83 0 L565 0 L565 112 L221 112 Z " />
<glyph glyph-name="lcaron" unicode="&#x13e;" horiz-adv-x="339" d="M342 529 L405 753 L294 780 L240 555 L342 529 Z M72 0 L204 0 L204 770 L72 770 L72 0 Z " />
<glyph glyph-name="Lslash" unicode="&#x141;" horiz-adv-x="599" d="M236 112 L236 325 L410 404 L410 512 L236 433 L236 770 L98 770 L98 383 L26 352 L26 243 L98 274 L98 0 L580 0 L580 112 L236 112 Z " />
<glyph glyph-name="lslash" unicode="&#x142;" horiz-adv-x="328" d="M288 512 L229 475 L229 770 L97 770 L97 402 L37 365 L37 259 L97 297 L97 0 L229 0 L229 370 L288 407 L288 512 Z " />
<glyph glyph-name="Nacute" unicode="&#x143;" horiz-adv-x="778" d="M548 998 L413 998 L324 828 L423 828 L548 998 Z M565 770 L568 214 L566 214 L214 770 L83 770 L83 0 L214 0 L211 554 L213 554 L566 0 L696 0 L696 770 L565 770 Z " />
<glyph glyph-name="nacute" unicode="&#x144;" horiz-adv-x="627" d="M476 770 L341 770 L252 600 L351 600 L476 770 Z M385 532 C307 532 235 493 204 433 L202 433 L202 522 L70 522 L70 0 L202 0 L202 288 C202 372 251 427 323 427 C388 427 431 381 431 313 L431 0 L563 0 L563 333 C563 453 492 532 385 532 L385 532 Z " />
<glyph glyph-name="Ncommaaccent" unicode="&#x145;" horiz-adv-x="778" d="M565 770 L568 214 L566 214 L214 770 L83 770 L83 0 L214 0 L211 554 L213 554 L566 0 L696 0 L696 770 L565 770 Z M390 -58 C350 -58 322 -85 322 -125 C322 -159 346 -182 380 -182 C392 -182 403 -179 415 -174 C407 -212 377 -241 338 -250 L344 -276 C413 -265 459 -209 459 -137 C459 -89 431 -58 390 -58 L390 -58 Z " />
<glyph glyph-name="ncommaaccent" unicode="&#x146;" horiz-adv-x="627" d="M385 532 C307 532 235 493 204 433 L202 433 L202 522 L70 522 L70 0 L202 0 L202 288 C202 372 251 427 323 427 C388 427 431 381 431 313 L431 0 L563 0 L563 333 C563 453 492 532 385 532 L385 532 Z M317 -58 C277 -58 249 -85 249 -125 C249 -159 273 -182 307 -182 C319 -182 330 -179 342 -174 C334 -212 304 -241 265 -250 L271 -276 C340 -265 386 -209 386 -137 C386 -89 358 -58 317 -58 L317 -58 Z " />
<glyph glyph-name="Ncaron" unicode="&#x147;" horiz-adv-x="778" d="M327 828 L452 828 L564 994 L461 994 L391 896 L389 896 L318 994 L215 994 L327 828 Z M565 770 L568 214 L566 214 L214 770 L83 770 L83 0 L214 0 L211 554 L213 554 L566 0 L696 0 L696 770 L565 770 Z " />
<glyph glyph-name="ncaron" unicode="&#x148;" horiz-adv-x="627" d="M254 604 L379 604 L491 770 L388 770 L318 672 L316 672 L245 770 L142 770 L254 604 Z M385 532 C307 532 235 493 204 433 L202 433 L202 522 L70 522 L70 0 L202 0 L202 288 C202 372 251 427 323 427 C388 427 431 381 431 313 L431 0 L563 0 L563 333 C563 453 492 532 385 532 L385 532 Z " />
<glyph glyph-name="Eng" unicode="&#x14a;" horiz-adv-x="778" d="M565 770 L568 214 L566 214 L214 770 L83 770 L83 0 L214 0 L211 554 L213 554 L558 11 L558 -9 C558 -81 515 -129 452 -129 C426 -129 395 -123 377 -114 L350 -220 C381 -232 428 -240 464 -240 C603 -240 696 -147 696 -8 L696 770 L565 770 Z " />
<glyph glyph-name="eng" unicode="&#x14b;" horiz-adv-x="627" d="M385 532 C307 532 235 493 204 433 L202 433 L202 522 L70 522 L70 0 L202 0 L202 288 C202 372 251 427 323 427 C388 427 431 381 431 313 L431 -36 C431 -95 394 -135 339 -135 C315 -135 286 -127 265 -116 L237 -210 C267 -228 319 -240 367 -240 C485 -240 563 -158 563 -36 L563 333 C563 453 492 532 385 532 L385 532 Z " />
<glyph glyph-name="Omacron" unicode="&#x14c;" horiz-adv-x="837" d="M258 835 L580 835 L580 932 L258 932 L258 835 Z M418 -10 C644 -10 795 148 795 385 C795 622 644 780 418 780 C192 780 41 622 41 385 C41 148 192 -10 418 -10 L418 -10 Z M418 101 C277 101 184 215 184 385 C184 555 277 669 418 669 C559 669 653 555 653 385 C653 215 559 101 418 101 L418 101 Z " />
<glyph glyph-name="omacron" unicode="&#x14d;" horiz-adv-x="619" d="M149 644 L471 644 L471 741 L149 741 L149 644 Z M309 -10 C472 -10 581 98 581 261 C581 424 472 532 309 532 C146 532 38 424 38 261 C38 98 146 -10 309 -10 L309 -10 Z M309 95 C227 95 173 162 173 261 C173 361 227 428 309 428 C391 428 446 361 446 261 C446 162 391 95 309 95 L309 95 Z " />
<glyph glyph-name="Ohungarumlaut" unicode="&#x150;" horiz-adv-x="837" d="M275 828 L374 828 L489 998 L354 998 L275 828 Z M452 828 L551 828 L666 998 L531 998 L452 828 Z M418 -10 C644 -10 795 148 795 385 C795 622 644 780 418 780 C192 780 41 622 41 385 C41 148 192 -10 418 -10 L418 -10 Z M418 101 C277 101 184 215 184 385 C184 555 277 669 418 669 C559 669 653 555 653 385 C653 215 559 101 418 101 L418 101 Z " />
<glyph glyph-name="ohungarumlaut" unicode="&#x151;" horiz-adv-x="619" d="M166 600 L265 600 L380 770 L245 770 L166 600 Z M343 600 L442 600 L557 770 L422 770 L343 600 Z M309 -10 C472 -10 581 98 581 261 C581 424 472 532 309 532 C146 532 38 424 38 261 C38 98 146 -10 309 -10 L309 -10 Z M309 95 C227 95 173 162 173 261 C173 361 227 428 309 428 C391 428 446 361 446 261 C446 162 391 95 309 95 L309 95 Z " />
<glyph glyph-name="OE" unicode="&#x152;" horiz-adv-x="1225" d="M784 108 L784 341 L1134 341 L1134 449 L784 449 L784 662 L1170 662 L1170 770 L664 770 L664 629 L662 629 C608 724 515 780 399 780 C185 780 42 622 42 385 C42 148 185 -10 399 -10 C515 -10 608 46 662 141 L664 141 L664 0 L1181 0 L1181 108 L784 108 Z M416 101 C277 101 185 215 185 385 C185 555 277 669 416 669 C554 669 646 555 646 385 C646 215 554 101 416 101 L416 101 Z " />
<glyph glyph-name="oe" unicode="&#x153;" horiz-adv-x="999" d="M960 256 C960 422 859 532 710 532 C615 532 543 485 504 406 L502 406 C464 484 389 532 293 532 C140 532 38 424 38 261 C38 98 140 -10 293 -10 C389 -10 463 38 502 117 L504 117 C542 38 615 -10 710 -10 C837 -10 936 66 958 181 L830 181 C816 123 763 85 701 85 C619 85 570 145 564 238 L960 238 L960 256 Z M699 441 C768 441 816 388 829 305 L566 305 C579 388 629 441 699 441 L699 441 Z M305 95 C226 95 173 162 173 261 C173 361 226 427 305 427 C384 427 436 361 436 261 C436 162 384 95 305 95 L305 95 Z " />
<glyph glyph-name="Racute" unicode="&#x154;" horiz-adv-x="729" d="M490 998 L355 998 L266 828 L365 828 L490 998 Z M548 0 L702 0 L520 336 C616 372 674 449 674 551 C674 682 559 770 388 770 L83 770 L83 0 L221 0 L221 313 L388 313 L548 0 Z M221 662 L395 662 C477 662 532 613 532 541 C532 465 477 415 395 415 L221 415 L221 662 Z " />
<glyph glyph-name="racute" unicode="&#x155;" horiz-adv-x="448" d="M385 770 L250 770 L161 600 L260 600 L385 770 Z M370 532 C297 532 231 485 204 414 L202 414 L202 522 L70 522 L70 0 L202 0 L202 244 C202 347 259 415 344 415 C376 415 412 409 435 400 L435 522 C418 528 392 532 370 532 L370 532 Z " />
<glyph glyph-name="Rcommaaccent" unicode="&#x156;" horiz-adv-x="729" d="M520 336 C616 372 674 449 674 551 C674 682 559 770 388 770 L83 770 L83 0 L221 0 L221 313 L388 313 L548 0 L702 0 L520 336 Z M221 662 L395 662 C477 662 532 613 532 541 C532 465 477 415 395 415 L221 415 L221 662 Z M362 -58 C322 -58 294 -85 294 -125 C294 -159 318 -182 352 -182 C364 -182 375 -179 387 -174 C379 -212 349 -241 310 -250 L316 -276 C385 -265 431 -209 431 -137 C431 -89 403 -58 362 -58 L362 -58 Z " />
<glyph glyph-name="rcommaaccent" unicode="&#x157;" horiz-adv-x="448" d="M370 532 C297 532 231 485 204 414 L202 414 L202 522 L70 522 L70 0 L202 0 L202 244 C202 347 259 415 344 415 C376 415 412 409 435 400 L435 522 C418 528 392 532 370 532 L370 532 Z M135 -58 C95 -58 67 -85 67 -125 C67 -159 91 -182 125 -182 C137 -182 148 -179 160 -174 C152 -212 122 -241 83 -250 L89 -276 C158 -265 204 -209 204 -137 C204 -89 176 -58 135 -58 L135 -58 Z " />
<glyph glyph-name="Rcaron" unicode="&#x158;" horiz-adv-x="729" d="M269 828 L394 828 L506 994 L403 994 L333 896 L331 896 L260 994 L157 994 L269 828 Z M548 0 L702 0 L520 336 C616 372 674 449 674 551 C674 682 559 770 388 770 L83 770 L83 0 L221 0 L221 313 L388 313 L548 0 Z M221 662 L395 662 C477 662 532 613 532 541 C532 465 477 415 395 415 L221 415 L221 662 Z " />
<glyph glyph-name="rcaron" unicode="&#x159;" horiz-adv-x="448" d="M164 604 L289 604 L401 770 L298 770 L228 672 L226 672 L155 770 L52 770 L164 604 Z M370 532 C297 532 231 485 204 414 L202 414 L202 522 L70 522 L70 0 L202 0 L202 244 C202 347 259 415 344 415 C376 415 412 409 435 400 L435 522 C418 528 392 532 370 532 L370 532 Z " />
<glyph glyph-name="Sacute" unicode="&#x15a;" horiz-adv-x="700" d="M283 828 L382 828 L507 998 L372 998 L283 828 Z M348 -10 C537 -10 662 88 662 234 C662 402 508 433 378 453 C280 468 195 485 195 561 C195 626 253 669 342 669 C435 669 499 611 503 525 L640 525 C629 678 512 780 348 780 C172 780 55 688 55 551 C55 391 201 362 327 343 C429 327 522 310 522 220 C522 149 454 101 351 101 C249 101 177 164 171 257 L33 257 C45 97 171 -10 348 -10 L348 -10 Z " />
<glyph glyph-name="sacute" unicode="&#x15b;" horiz-adv-x="545" d="M206 600 L305 600 L430 770 L295 770 L206 600 Z M271 -10 C414 -10 509 57 509 159 C509 275 395 300 302 316 C234 328 174 340 174 386 C174 424 213 449 271 449 C330 449 370 415 372 364 L496 364 C491 465 402 532 271 532 C137 532 48 470 48 375 C48 262 155 239 247 224 C318 213 383 200 383 145 C383 102 338 74 271 74 C203 74 157 110 155 163 L32 163 C37 60 132 -10 271 -10 L271 -10 Z " />
<glyph glyph-name="Scedilla" unicode="&#x15e;" horiz-adv-x="700" d="M662 234 C662 402 508 433 378 453 C280 468 195 485 195 561 C195 626 253 669 342 669 C435 669 499 611 503 525 L640 525 C629 678 512 780 348 780 C172 780 55 688 55 551 C55 391 201 362 327 343 C429 327 522 310 522 220 C522 149 454 101 351 101 C249 101 177 164 171 257 L33 257 C44 110 152 7 307 -8 L254 -101 L296 -128 C306 -116 325 -107 344 -107 C368 -107 384 -121 384 -143 C384 -169 355 -187 311 -187 C283 -187 247 -176 220 -160 L220 -216 C245 -231 287 -240 325 -240 C414 -240 473 -200 473 -140 C473 -89 435 -56 378 -56 C369 -56 359 -57 348 -61 L346 -60 L378 -9 C550 1 662 96 662 234 L662 234 Z " />
<glyph glyph-name="scedilla" unicode="&#x15f;" horiz-adv-x="545" d="M509 159 C509 275 395 300 302 316 C234 328 174 340 174 386 C174 424 213 449 271 449 C330 449 370 415 372 364 L496 364 C491 465 402 532 271 532 C137 532 48 470 48 375 C48 262 155 239 247 224 C318 213 383 200 383 145 C383 102 338 74 271 74 C203 74 157 110 155 163 L32 163 C36 71 113 5 229 -8 L176 -101 L218 -128 C228 -116 247 -107 266 -107 C290 -107 306 -121 306 -143 C306 -169 277 -187 233 -187 C205 -187 169 -176 142 -160 L142 -216 C167 -231 209 -240 247 -240 C336 -240 395 -200 395 -140 C395 -89 357 -56 300 -56 C291 -56 281 -57 270 -61 L268 -60 L300 -9 C427 0 509 64 509 159 L509 159 Z " />
<glyph glyph-name="Scaron" unicode="&#x160;" horiz-adv-x="700" d="M286 828 L411 828 L523 994 L420 994 L350 896 L348 896 L277 994 L174 994 L286 828 Z M378 453 C280 468 195 485 195 561 C195 626 253 669 342 669 C435 669 499 611 503 525 L640 525 C629 678 512 780 348 780 C172 780 55 688 55 551 C55 391 201 362 327 343 C429 327 522 310 522 220 C522 149 454 101 351 101 C249 101 177 164 171 257 L33 257 C45 97 171 -10 348 -10 C537 -10 662 88 662 234 C662 402 508 433 378 453 L378 453 Z " />
<glyph glyph-name="scaron" unicode="&#x161;" horiz-adv-x="545" d="M209 604 L334 604 L446 770 L343 770 L273 672 L271 672 L200 770 L97 770 L209 604 Z M302 316 C234 328 174 340 174 386 C174 424 213 449 271 449 C330 449 370 415 372 364 L496 364 C491 465 402 532 271 532 C137 532 48 470 48 375 C48 262 155 239 247 224 C318 213 383 200 383 145 C383 102 338 74 271 74 C203 74 157 110 155 163 L32 163 C37 60 132 -10 271 -10 C414 -10 509 57 509 159 C509 275 395 300 302 316 L302 316 Z " />
<glyph glyph-name="uni0162" unicode="&#x162;" horiz-adv-x="623" d="M380 0 L380 662 L607 662 L607 770 L16 770 L16 662 L242 662 L242 0 L271 0 L214 -101 L256 -128 C266 -116 285 -107 304 -107 C328 -107 344 -121 344 -143 C344 -169 315 -187 271 -187 C243 -187 207 -176 180 -160 L180 -216 C205 -231 247 -240 285 -240 C374 -240 433 -200 433 -140 C433 -89 395 -56 338 -56 C329 -56 319 -57 308 -61 L306 -60 L344 0 L380 0 Z " />
<glyph glyph-name="uni0163" unicode="&#x163;" horiz-adv-x="416" d="M393 429 L393 522 L232 522 L232 673 L106 673 L106 522 L18 522 L18 429 L100 429 L100 152 C100 92 127 44 174 16 L107 -101 L149 -128 C159 -116 178 -107 197 -107 C221 -107 237 -121 237 -143 C237 -169 208 -187 164 -187 C136 -187 100 -176 73 -160 L73 -216 C98 -231 140 -240 178 -240 C267 -240 326 -200 326 -140 C326 -89 288 -56 231 -56 C222 -56 212 -57 201 -61 L199 -60 L233 -6 C247 -9 262 -10 278 -10 C316 -10 362 -1 393 13 L393 106 C374 96 344 90 320 90 C267 90 232 120 232 163 L232 429 L393 429 Z " />
<glyph glyph-name="Tcaron" unicode="&#x164;" horiz-adv-x="623" d="M248 828 L373 828 L485 994 L382 994 L312 896 L310 896 L239 994 L136 994 L248 828 Z M607 770 L16 770 L16 662 L242 662 L242 0 L380 0 L380 662 L607 662 L607 770 Z " />
<glyph glyph-name="tcaron" unicode="&#x165;" horiz-adv-x="417" d="M440 781 L330 808 L276 584 L378 558 L440 781 Z M233 673 L107 673 L107 522 L19 522 L19 429 L101 429 L101 152 C101 55 172 -10 279 -10 C317 -10 363 -1 394 13 L394 106 C375 96 345 90 321 90 C268 90 233 120 233 163 L233 429 L394 429 L394 522 L233 522 L233 673 Z " />
<glyph glyph-name="Tbar" unicode="&#x166;" horiz-adv-x="645" d="M617 662 L617 770 L26 770 L26 662 L252 662 L252 420 L106 420 L106 326 L252 326 L252 0 L390 0 L390 326 L548 326 L548 420 L390 420 L390 662 L617 662 Z " />
<glyph glyph-name="tbar" unicode="&#x167;" horiz-adv-x="432" d="M403 429 L403 522 L242 522 L242 673 L116 673 L116 522 L28 522 L28 429 L110 429 L110 319 L28 319 L28 225 L110 225 L110 152 C110 55 181 -10 288 -10 C326 -10 372 -1 403 13 L403 106 C384 96 354 90 330 90 C277 90 242 120 242 163 L242 225 L403 225 L403 319 L242 319 L242 429 L403 429 Z " />
<glyph glyph-name="Umacron" unicode="&#x16a;" horiz-adv-x="750" d="M217 835 L539 835 L539 932 L217 932 L217 835 Z M374 -10 C555 -10 675 106 675 278 L675 770 L544 770 L544 271 C544 169 477 101 378 101 C279 101 212 169 212 271 L212 770 L74 770 L74 278 C74 106 194 -10 374 -10 L374 -10 Z " />
<glyph glyph-name="umacron" unicode="&#x16b;" horiz-adv-x="608" d="M145 644 L467 644 L467 741 L145 741 L145 644 Z M304 -10 C449 -10 545 76 545 205 L545 522 L413 522 L413 218 C413 144 369 95 304 95 C239 95 195 144 195 218 L195 522 L63 522 L63 205 C63 76 160 -10 304 -10 L304 -10 Z " />
<glyph glyph-name="Uring" unicode="&#x16e;" horiz-adv-x="750" d="M378 821 C456 821 508 868 508 939 C508 1009 456 1056 378 1056 C300 1056 249 1009 249 939 C249 868 300 821 378 821 L378 821 Z M378 883 C346 883 326 905 326 939 C326 972 346 995 378 995 C410 995 431 972 431 939 C431 905 410 883 378 883 L378 883 Z M374 -10 C555 -10 675 106 675 278 L675 770 L544 770 L544 271 C544 169 477 101 378 101 C279 101 212 169 212 271 L212 770 L74 770 L74 278 C74 106 194 -10 374 -10 L374 -10 Z " />
<glyph glyph-name="uring" unicode="&#x16f;" horiz-adv-x="608" d="M305 573 C383 573 435 620 435 691 C435 761 383 808 305 808 C227 808 176 761 176 691 C176 620 227 573 305 573 L305 573 Z M305 635 C273 635 253 657 253 691 C253 724 273 747 305 747 C337 747 358 724 358 691 C358 657 337 635 305 635 L305 635 Z M304 -10 C449 -10 545 76 545 205 L545 522 L413 522 L413 218 C413 144 369 95 304 95 C239 95 195 144 195 218 L195 522 L63 522 L63 205 C63 76 160 -10 304 -10 L304 -10 Z " />
<glyph glyph-name="Uhungarumlaut" unicode="&#x170;" horiz-adv-x="750" d="M234 828 L333 828 L448 998 L313 998 L234 828 Z M411 828 L510 828 L625 998 L490 998 L411 828 Z M374 -10 C555 -10 675 106 675 278 L675 770 L544 770 L544 271 C544 169 477 101 378 101 C279 101 212 169 212 271 L212 770 L74 770 L74 278 C74 106 194 -10 374 -10 L374 -10 Z " />
<glyph glyph-name="uhungarumlaut" unicode="&#x171;" horiz-adv-x="608" d="M162 600 L261 600 L376 770 L241 770 L162 600 Z M339 600 L438 600 L553 770 L418 770 L339 600 Z M304 -10 C449 -10 545 76 545 205 L545 522 L413 522 L413 218 C413 144 369 95 304 95 C239 95 195 144 195 218 L195 522 L63 522 L63 205 C63 76 160 -10 304 -10 L304 -10 Z " />
<glyph glyph-name="Uogonek" unicode="&#x172;" horiz-adv-x="750" d="M544 770 L544 271 C544 169 477 101 378 101 C279 101 212 169 212 271 L212 770 L74 770 L74 278 C74 110 189 -5 362 -10 C303 -61 266 -115 266 -154 C266 -205 310 -240 377 -240 C407 -240 442 -233 463 -221 L463 -148 C448 -158 427 -165 410 -165 C387 -165 372 -150 372 -127 C372 -97 409 -46 463 0 C593 32 675 136 675 278 L675 770 L544 770 Z " />
<glyph glyph-name="uogonek" unicode="&#x173;" horiz-adv-x="608" d="M413 522 L413 218 C413 144 369 95 304 95 C239 95 195 144 195 218 L195 522 L63 522 L63 205 C63 82 151 -2 284 -9 C225 -61 188 -115 188 -154 C188 -205 232 -240 299 -240 C329 -240 364 -233 385 -221 L385 -148 C370 -158 349 -165 332 -165 C309 -165 294 -150 294 -127 C294 -97 331 -46 385 0 C484 26 545 102 545 205 L545 522 L413 522 Z " />
<glyph glyph-name="Wcircumflex" unicode="&#x174;" horiz-adv-x="1046" d="M526 926 L528 926 L598 828 L701 828 L589 994 L464 994 L352 828 L455 828 L526 926 Z M898 770 L749 147 L747 147 L599 770 L456 770 L307 147 L305 147 L157 770 L10 770 L213 0 L380 0 L521 599 L523 599 L666 0 L833 0 L1036 770 L898 770 Z " />
<glyph glyph-name="wcircumflex" unicode="&#x175;" horiz-adv-x="834" d="M417 702 L419 702 L489 604 L592 604 L480 770 L355 770 L243 604 L346 604 L417 702 Z M689 522 L586 140 L584 140 L482 522 L356 522 L253 140 L251 140 L148 522 L11 522 L178 0 L317 0 L416 382 L418 382 L518 0 L656 0 L823 522 L689 522 Z " />
<glyph glyph-name="Ycircumflex" unicode="&#x176;" horiz-adv-x="710" d="M360 926 L362 926 L432 828 L535 828 L423 994 L298 994 L186 828 L289 828 L360 926 Z M716 770 L566 770 L361 404 L359 404 L153 770 L-6 770 L283 277 L283 0 L421 0 L421 274 L716 770 Z " />
<glyph glyph-name="ycircumflex" unicode="&#x177;" horiz-adv-x="574" d="M289 702 L291 702 L361 604 L464 604 L352 770 L227 770 L115 604 L218 604 L289 702 Z M432 522 L290 121 L288 121 L145 522 L8 522 L222 -32 L148 -230 L276 -230 L566 522 L432 522 Z " />
<glyph glyph-name="Ydieresis" unicode="&#x178;" horiz-adv-x="710" d="M265 824 C308 824 337 852 337 893 C337 934 308 962 265 962 C221 962 192 934 192 893 C192 852 221 824 265 824 L265 824 Z M457 824 C500 824 529 852 529 893 C529 934 500 962 457 962 C414 962 385 934 385 893 C385 852 414 824 457 824 L457 824 Z M716 770 L566 770 L361 404 L359 404 L153 770 L-6 770 L283 277 L283 0 L421 0 L421 274 L716 770 Z " />
<glyph glyph-name="Zacute" unicode="&#x179;" horiz-adv-x="654" d="M491 998 L356 998 L267 828 L366 828 L491 998 Z M192 108 L192 110 L609 655 L609 770 L52 770 L52 662 L444 662 L444 660 L27 115 L27 0 L621 0 L621 108 L192 108 Z " />
<glyph glyph-name="zacute" unicode="&#x17a;" horiz-adv-x="516" d="M418 770 L283 770 L194 600 L293 600 L418 770 Z M182 99 L182 101 L472 417 L472 522 L47 522 L47 423 L316 423 L316 421 L30 105 L30 0 L483 0 L483 99 L182 99 Z " />
<glyph glyph-name="Zdotaccent" unicode="&#x17b;" horiz-adv-x="654" d="M332 831 C378 831 408 860 408 904 C408 947 378 975 332 975 C286 975 255 947 255 904 C255 860 286 831 332 831 L332 831 Z M192 108 L192 110 L609 655 L609 770 L52 770 L52 662 L444 662 L444 660 L27 115 L27 0 L621 0 L621 108 L192 108 Z " />
<glyph glyph-name="zdotaccent" unicode="&#x17c;" horiz-adv-x="516" d="M259 623 C305 623 335 652 335 696 C335 739 305 767 259 767 C213 767 182 739 182 696 C182 652 213 623 259 623 L259 623 Z M182 99 L182 101 L472 417 L472 522 L47 522 L47 423 L316 423 L316 421 L30 105 L30 0 L483 0 L483 99 L182 99 Z " />
<glyph glyph-name="Zcaron" unicode="&#x17d;" horiz-adv-x="654" d="M270 828 L395 828 L507 994 L404 994 L334 896 L332 896 L261 994 L158 994 L270 828 Z M192 108 L192 110 L609 655 L609 770 L52 770 L52 662 L444 662 L444 660 L27 115 L27 0 L621 0 L621 108 L192 108 Z " />
<glyph glyph-name="zcaron" unicode="&#x17e;" horiz-adv-x="516" d="M197 604 L322 604 L434 770 L331 770 L261 672 L259 672 L188 770 L85 770 L197 604 Z M182 99 L182 101 L472 417 L472 522 L47 522 L47 423 L316 423 L316 421 L30 105 L30 0 L483 0 L483 99 L182 99 Z " />
<glyph glyph-name="florin" unicode="&#x192;" horiz-adv-x="711" d="M583 675 C617 675 648 666 671 655 L698 749 C658 769 606 780 558 780 C447 780 371 715 352 607 L324 446 L171 446 L171 352 L308 352 L283 205 C271 137 232 96 176 96 C142 96 111 104 88 116 L61 21 C101 2 153 -10 201 -10 C312 -10 389 55 408 163 L440 352 L600 352 L600 446 L456 446 L477 566 C489 634 528 675 583 675 L583 675 Z " />
<glyph glyph-name="Scommaaccent" unicode="&#x218;" horiz-adv-x="700" d="M378 453 C280 468 195 485 195 561 C195 626 253 669 342 669 C435 669 499 611 503 525 L640 525 C629 678 512 780 348 780 C172 780 55 688 55 551 C55 391 201 362 327 343 C429 327 522 310 522 220 C522 149 454 101 351 101 C249 101 177 164 171 257 L33 257 C45 97 171 -10 348 -10 C537 -10 662 88 662 234 C662 402 508 433 378 453 L378 453 Z M348 -58 C308 -58 280 -85 280 -125 C280 -159 304 -182 338 -182 C350 -182 361 -179 373 -174 C365 -212 335 -241 296 -250 L302 -276 C371 -265 417 -209 417 -137 C417 -89 389 -58 348 -58 L348 -58 Z " />
<glyph glyph-name="scommaaccent" unicode="&#x219;" horiz-adv-x="545" d="M302 316 C234 328 174 340 174 386 C174 424 213 449 271 449 C330 449 370 415 372 364 L496 364 C491 465 402 532 271 532 C137 532 48 470 48 375 C48 262 155 239 247 224 C318 213 383 200 383 145 C383 102 338 74 271 74 C203 74 157 110 155 163 L32 163 C37 60 132 -10 271 -10 C414 -10 509 57 509 159 C509 275 395 300 302 316 L302 316 Z M271 -58 C231 -58 203 -85 203 -125 C203 -159 227 -182 261 -182 C273 -182 284 -179 296 -174 C288 -212 258 -241 219 -250 L225 -276 C294 -265 340 -209 340 -137 C340 -89 312 -58 271 -58 L271 -58 Z " />
<glyph glyph-name="uni021A" unicode="&#x21a;" horiz-adv-x="623" d="M607 770 L16 770 L16 662 L242 662 L242 0 L380 0 L380 662 L607 662 L607 770 Z M309 -58 C269 -58 241 -85 241 -125 C241 -159 265 -182 299 -182 C311 -182 322 -179 334 -174 C326 -212 296 -241 257 -250 L263 -276 C332 -265 378 -209 378 -137 C378 -89 350 -58 309 -58 L309 -58 Z " />
<glyph glyph-name="uni021B" unicode="&#x21b;" horiz-adv-x="417" d="M394 429 L394 522 L233 522 L233 673 L107 673 L107 522 L19 522 L19 429 L101 429 L101 152 C101 55 172 -10 279 -10 C317 -10 363 -1 394 13 L394 106 C375 96 345 90 321 90 C268 90 233 120 233 163 L233 429 L394 429 Z M202 -58 C162 -58 134 -85 134 -125 C134 -159 158 -182 192 -182 C204 -182 215 -179 227 -174 C219 -212 189 -241 150 -250 L156 -276 C225 -265 271 -209 271 -137 C271 -89 243 -58 202 -58 L202 -58 Z " />
<glyph glyph-name="uni0237" unicode="&#x237;" horiz-adv-x="276" d="M72 -230 L204 -230 L204 522 L72 522 L72 -230 Z " />
<glyph glyph-name="circumflex" unicode="&#x2c6;" horiz-adv-x="371" d="M248 737 L123 737 L11 571 L114 571 L185 669 L187 669 L257 571 L360 571 L248 737 Z " />
<glyph glyph-name="caron" unicode="&#x2c7;" horiz-adv-x="371" d="M257 737 L187 639 L185 639 L114 737 L11 737 L123 571 L248 571 L360 737 L257 737 Z " />
<glyph glyph-name="breve" unicode="&#x2d8;" horiz-adv-x="360" d="M180 567 C276 567 341 635 343 737 L253 737 C252 682 223 646 180 646 C137 646 108 682 107 737 L18 737 C19 635 84 567 180 567 L180 567 Z " />
<glyph glyph-name="dotaccent" unicode="&#x2d9;" horiz-adv-x="245" d="M122 595 C168 595 198 624 198 668 C198 711 168 739 122 739 C76 739 45 711 45 668 C45 624 76 595 122 595 L122 595 Z " />
<glyph glyph-name="ring" unicode="&#x2da;" horiz-adv-x="301" d="M150 553 C228 553 280 600 280 671 C280 741 228 788 150 788 C72 788 21 741 21 671 C21 600 72 553 150 553 L150 553 Z M150 615 C118 615 98 637 98 671 C98 704 118 727 150 727 C182 727 203 704 203 671 C203 637 182 615 150 615 L150 615 Z " />
<glyph glyph-name="ogonek" unicode="&#x2db;" horiz-adv-x="244" d="M134 -240 C164 -240 199 -233 220 -221 L220 -148 C205 -158 184 -165 167 -165 C144 -165 129 -150 129 -127 C129 -97 166 -46 220 0 L175 34 C84 -29 23 -104 23 -154 C23 -205 67 -240 134 -240 L134 -240 Z " />
<glyph glyph-name="tilde" unicode="&#x2dc;" horiz-adv-x="436" d="M31 580 L89 580 C93 614 111 635 140 635 C187 635 217 584 283 584 C358 584 404 641 405 738 L347 738 C343 704 324 683 295 683 C248 683 219 734 153 734 C77 734 32 677 31 580 L31 580 Z " />
<glyph glyph-name="hungarumlaut" unicode="&#x2dd;" horiz-adv-x="457" d="M33 571 L132 571 L247 741 L112 741 L33 571 Z M210 571 L309 571 L424 741 L289 741 L210 571 Z " />
<glyph glyph-name="gravecomb" unicode="&#x300;" d="M-31 600 L-120 770 L-255 770 L-130 600 L-31 600 Z " />
<glyph glyph-name="acutecomb" unicode="&#x301;" d="M-228 600 L-129 600 L-4 770 L-139 770 L-228 600 Z " />
<glyph glyph-name="uni0302" unicode="&#x302;" d="M-123 770 L-248 770 L-360 604 L-257 604 L-186 702 L-184 702 L-114 604 L-11 604 L-123 770 Z " />
<glyph glyph-name="tildecomb" unicode="&#x303;" d="M-405 616 L-347 616 C-343 650 -325 671 -296 671 C-249 671 -219 620 -153 620 C-78 620 -32 677 -31 774 L-89 774 C-93 740 -112 719 -141 719 C-188 719 -217 770 -283 770 C-359 770 -404 713 -405 616 L-405 616 Z " />
<glyph glyph-name="uni0304" unicode="&#x304;" d="M-341 644 L-19 644 L-19 741 L-341 741 L-341 644 Z " />
<glyph glyph-name="uni0306" unicode="&#x306;" d="M-180 600 C-84 600 -19 668 -17 770 L-107 770 C-108 715 -137 679 -180 679 C-223 679 -252 715 -253 770 L-342 770 C-341 668 -276 600 -180 600 L-180 600 Z " />
<glyph glyph-name="uni0307" unicode="&#x307;" d="M-123 612 C-77 612 -47 641 -47 685 C-47 728 -77 756 -123 756 C-169 756 -200 728 -200 685 C-200 641 -169 612 -123 612 L-123 612 Z " />
<glyph glyph-name="uni0308" unicode="&#x308;" d="M-319 622 C-276 622 -247 650 -247 691 C-247 732 -276 760 -319 760 C-363 760 -392 732 -392 691 C-392 650 -363 622 -319 622 L-319 622 Z M-127 622 C-84 622 -55 650 -55 691 C-55 732 -84 760 -127 760 C-170 760 -199 732 -199 691 C-199 650 -170 622 -127 622 L-127 622 Z " />
<glyph glyph-name="uni030A" unicode="&#x30a;" d="M-151 573 C-73 573 -21 620 -21 691 C-21 761 -73 808 -151 808 C-229 808 -280 761 -280 691 C-280 620 -229 573 -151 573 L-151 573 Z M-151 635 C-183 635 -203 657 -203 691 C-203 724 -183 747 -151 747 C-119 747 -98 724 -98 691 C-98 657 -119 635 -151 635 L-151 635 Z " />
<glyph glyph-name="uni030B" unicode="&#x30b;" d="M-424 600 L-325 600 L-210 770 L-345 770 L-424 600 Z M-247 600 L-148 600 L-33 770 L-168 770 L-247 600 Z " />
<glyph glyph-name="uni030C" unicode="&#x30c;" d="M-114 770 L-184 672 L-186 672 L-257 770 L-360 770 L-248 604 L-123 604 L-11 770 L-114 770 Z " />
<glyph glyph-name="uni0312" unicode="&#x312;" d="M-67 722 C-78 722 -90 720 -101 715 C-92 751 -67 778 -23 785 L-33 812 C-100 800 -146 749 -146 685 C-146 639 -118 608 -77 608 C-37 608 -10 631 -10 667 C-10 700 -32 722 -67 722 L-67 722 Z " />
<glyph glyph-name="uni0326" unicode="&#x326;" d="M-66 -58 C-106 -58 -134 -85 -134 -125 C-134 -159 -110 -182 -76 -182 C-64 -182 -53 -179 -41 -174 C-49 -212 -79 -241 -118 -250 L-112 -276 C-43 -265 3 -209 3 -137 C3 -89 -25 -58 -66 -58 L-66 -58 Z " />
<glyph glyph-name="uni0327" unicode="&#x327;" d="M-121 -56 C-130 -56 -140 -57 -151 -61 L-153 -60 L-115 0 L-169 33 L-245 -101 L-203 -128 C-193 -116 -174 -107 -155 -107 C-131 -107 -115 -121 -115 -143 C-115 -169 -144 -187 -188 -187 C-216 -187 -252 -176 -279 -160 L-279 -216 C-254 -231 -212 -240 -174 -240 C-85 -240 -26 -200 -26 -140 C-26 -89 -64 -56 -121 -56 L-121 -56 Z " />
<glyph glyph-name="uni0328" unicode="&#x328;" d="M-110 -240 C-80 -240 -45 -233 -24 -221 L-24 -148 C-39 -158 -60 -165 -77 -165 C-100 -165 -115 -150 -115 -127 C-115 -97 -78 -46 -24 0 L-69 34 C-160 -29 -221 -104 -221 -154 C-221 -205 -177 -240 -110 -240 L-110 -240 Z " />
<glyph glyph-name="uni0335" unicode="&#x335;" d="M-406 312 L-38 312 L-38 406 L-406 406 L-406 312 Z " />
<glyph glyph-name="uni0336" unicode="&#x336;" d="M-796 356 L-46 356 L-46 451 L-796 451 L-796 356 Z " />
<glyph glyph-name="uni0337" unicode="&#x337;" d="M-380 -45 L10 538 L-33 565 L-423 -17 L-380 -45 Z " />
<glyph glyph-name="uni0338" unicode="&#x338;" d="M-518 -41 L-10 780 L-58 808 L-565 -13 L-518 -41 Z " />
<glyph glyph-name="uni0394" unicode="&#x394;" horiz-adv-x="719" d="M437 770 L283 770 L-2 0 L721 0 L437 770 Z M355 630 L357 630 L537 108 L173 108 L355 630 Z " />
<glyph glyph-name="uni03A9" unicode="&#x3a9;" horiz-adv-x="825" d="M776 426 C776 638 631 780 413 780 C195 780 49 638 49 426 C49 284 118 167 229 104 L63 107 L63 0 L352 0 L352 101 C255 133 191 249 191 391 C191 557 280 669 413 669 C545 669 633 557 633 391 C633 249 569 133 472 101 L472 0 L762 0 L762 107 L597 104 C708 167 776 284 776 426 L776 426 Z " />
<glyph glyph-name="uni03BC" unicode="&#x3bc;" horiz-adv-x="623" d="M421 522 L421 231 C421 150 374 95 305 95 C243 95 202 139 202 206 L202 522 L70 522 L70 -230 L202 -230 L202 -6 C215 -9 229 -10 243 -10 C320 -10 390 29 419 88 L421 88 L421 0 L553 0 L553 522 L421 522 Z " />
<glyph glyph-name="pi" unicode="&#x3c0;" horiz-adv-x="674" d="M654 514 L20 514 L20 420 L113 420 L113 0 L245 0 L245 420 L430 420 L430 0 L562 0 L562 420 L654 420 L654 514 Z " />
<glyph glyph-name="Wgrave" unicode="&#x1e80;" horiz-adv-x="1046" d="M593 828 L504 998 L369 998 L494 828 L593 828 Z M898 770 L749 147 L747 147 L599 770 L456 770 L307 147 L305 147 L157 770 L10 770 L213 0 L380 0 L521 599 L523 599 L666 0 L833 0 L1036 770 L898 770 Z " />
<glyph glyph-name="wgrave" unicode="&#x1e81;" horiz-adv-x="834" d="M483 600 L394 770 L259 770 L384 600 L483 600 Z M689 522 L586 140 L584 140 L482 522 L356 522 L253 140 L251 140 L148 522 L11 522 L178 0 L317 0 L416 382 L418 382 L518 0 L656 0 L823 522 L689 522 Z " />
<glyph glyph-name="Wacute" unicode="&#x1e82;" horiz-adv-x="1046" d="M685 998 L550 998 L461 828 L560 828 L685 998 Z M898 770 L749 147 L747 147 L599 770 L456 770 L307 147 L305 147 L157 770 L10 770 L213 0 L380 0 L521 599 L523 599 L666 0 L833 0 L1036 770 L898 770 Z " />
<glyph glyph-name="wacute" unicode="&#x1e83;" horiz-adv-x="834" d="M576 770 L441 770 L352 600 L451 600 L576 770 Z M689 522 L586 140 L584 140 L482 522 L356 522 L253 140 L251 140 L148 522 L11 522 L178 0 L317 0 L416 382 L418 382 L518 0 L656 0 L823 522 L689 522 Z " />
<glyph glyph-name="Wdieresis" unicode="&#x1e84;" horiz-adv-x="1046" d="M431 824 C474 824 503 852 503 893 C503 934 474 962 431 962 C387 962 358 934 358 893 C358 852 387 824 431 824 L431 824 Z M623 824 C666 824 695 852 695 893 C695 934 666 962 623 962 C580 962 551 934 551 893 C551 852 580 824 623 824 L623 824 Z M898 770 L749 147 L747 147 L599 770 L456 770 L307 147 L305 147 L157 770 L10 770 L213 0 L380 0 L521 599 L523 599 L666 0 L833 0 L1036 770 L898 770 Z " />
<glyph glyph-name="wdieresis" unicode="&#x1e85;" horiz-adv-x="834" d="M322 622 C365 622 394 650 394 691 C394 732 365 760 322 760 C278 760 249 732 249 691 C249 650 278 622 322 622 L322 622 Z M514 622 C557 622 586 650 586 691 C586 732 557 760 514 760 C471 760 442 732 442 691 C442 650 471 622 514 622 L514 622 Z M689 522 L586 140 L584 140 L482 522 L356 522 L253 140 L251 140 L148 522 L11 522 L178 0 L317 0 L416 382 L418 382 L518 0 L656 0 L823 522 L689 522 Z " />
<glyph glyph-name="uni1E9E" unicode="&#x1e9e;" horiz-adv-x="846" d="M586 439 L765 655 L765 770 L83 770 L83 0 L221 0 L221 662 L609 662 L609 660 L462 463 L462 369 L504 362 C603 346 669 286 669 211 C669 145 625 101 560 101 C494 101 445 149 438 221 L305 221 C315 83 416 -10 558 -10 C710 -10 812 74 812 200 C812 313 723 404 586 439 L586 439 Z " />
<glyph glyph-name="Ygrave" unicode="&#x1ef2;" horiz-adv-x="710" d="M426 828 L337 998 L202 998 L327 828 L426 828 Z M716 770 L566 770 L361 404 L359 404 L153 770 L-6 770 L283 277 L283 0 L421 0 L421 274 L716 770 Z " />
<glyph glyph-name="ygrave" unicode="&#x1ef3;" horiz-adv-x="574" d="M355 600 L266 770 L131 770 L256 600 L355 600 Z M432 522 L290 121 L288 121 L145 522 L8 522 L222 -32 L148 -230 L276 -230 L566 522 L432 522 Z " />
<glyph glyph-name="endash" unicode="&#x2013;" horiz-adv-x="605" d="M60 218 L545 218 L545 312 L60 312 L60 218 Z " />
<glyph glyph-name="emdash" unicode="&#x2014;" horiz-adv-x="890" d="M60 218 L830 218 L830 312 L60 312 L60 218 Z " />
<glyph glyph-name="quoteleft" unicode="&#x2018;" horiz-adv-x="262" d="M140 640 C126 640 111 637 97 631 C110 691 156 732 221 740 L214 780 C109 765 39 689 39 589 C39 526 75 483 128 483 C177 483 210 515 210 563 C210 609 182 640 140 640 L140 640 Z " />
<glyph glyph-name="quoteright" unicode="&#x2019;" horiz-adv-x="264" d="M141 780 C92 780 59 748 59 700 C59 654 87 623 129 623 C143 623 158 626 172 632 C159 572 113 531 48 523 L55 483 C160 498 230 574 230 674 C230 737 194 780 141 780 L141 780 Z " />
<glyph glyph-name="quotesinglbase" unicode="&#x201a;" horiz-adv-x="257" d="M125 147 C76 147 43 115 43 67 C43 21 71 -10 113 -10 C127 -10 142 -7 156 -1 C143 -61 97 -102 32 -110 L39 -150 C144 -135 214 -59 214 41 C214 104 178 147 125 147 L125 147 Z " />
<glyph glyph-name="quotedblleft" unicode="&#x201c;" horiz-adv-x="461" d="M221 740 L214 780 C109 765 39 689 39 589 C39 526 75 483 128 483 C177 483 210 515 210 563 C210 609 182 640 140 640 C126 640 111 637 97 631 C110 691 156 732 221 740 L221 740 Z M339 640 C325 640 310 637 296 631 C309 691 355 732 420 740 L413 780 C308 765 238 689 238 589 C238 526 274 483 327 483 C376 483 409 515 409 563 C409 609 381 640 339 640 L339 640 Z " />
<glyph glyph-name="quotedblright" unicode="&#x201d;" horiz-adv-x="463" d="M141 780 C92 780 59 748 59 700 C59 654 87 623 129 623 C143 623 158 626 172 632 C159 572 113 531 48 523 L55 483 C160 498 230 574 230 674 C230 737 194 780 141 780 L141 780 Z M340 780 C291 780 258 748 258 700 C258 654 286 623 328 623 C342 623 357 626 371 632 C358 572 312 531 247 523 L254 483 C359 498 429 574 429 674 C429 737 393 780 340 780 L340 780 Z " />
<glyph glyph-name="quotedblbase" unicode="&#x201e;" horiz-adv-x="456" d="M125 147 C76 147 43 115 43 67 C43 21 71 -10 113 -10 C127 -10 142 -7 156 -1 C143 -61 97 -102 32 -110 L39 -150 C144 -135 214 -59 214 41 C214 104 178 147 125 147 L125 147 Z M324 147 C275 147 242 115 242 67 C242 21 270 -10 312 -10 C326 -10 341 -7 355 -1 C342 -61 296 -102 231 -110 L238 -150 C343 -135 413 -59 413 41 C413 104 377 147 324 147 L324 147 Z " />
<glyph glyph-name="dagger" unicode="&#x2020;" horiz-adv-x="371" d="M333 654 L221 654 L221 770 L150 770 L150 654 L38 654 L38 592 L150 592 L150 328 L221 328 L221 592 L333 592 L333 654 Z " />
<glyph glyph-name="daggerdbl" unicode="&#x2021;" horiz-adv-x="389" d="M342 592 L342 654 L230 654 L230 770 L159 770 L159 654 L47 654 L47 592 L159 592 L159 507 L47 507 L47 444 L159 444 L159 328 L230 328 L230 444 L342 444 L342 507 L230 507 L230 592 L342 592 Z " />
<glyph glyph-name="bullet" unicode="&#x2022;" horiz-adv-x="386" d="M193 183 C265 183 314 228 314 295 C314 362 265 408 193 408 C121 408 73 362 73 295 C73 228 121 183 193 183 L193 183 Z " />
<glyph glyph-name="ellipsis" unicode="&#x2026;" horiz-adv-x="703" d="M131 -10 C180 -10 212 22 212 69 C212 115 180 147 131 147 C82 147 49 115 49 69 C49 22 82 -10 131 -10 L131 -10 Z M352 -10 C401 -10 433 22 433 69 C433 115 401 147 352 147 C303 147 270 115 270 69 C270 22 303 -10 352 -10 L352 -10 Z M572 -10 C621 -10 653 22 653 69 C653 115 621 147 572 147 C523 147 490 115 490 69 C490 22 523 -10 572 -10 L572 -10 Z " />
<glyph glyph-name="perthousand" unicode="&#x2030;" horiz-adv-x="1117" d="M185 410 C278 410 339 484 339 595 C339 706 278 780 185 780 C94 780 33 706 33 595 C33 484 94 410 185 410 L185 410 Z M76 0 L177 0 L691 770 L590 770 L76 0 Z M186 487 C151 487 128 530 128 595 C128 660 151 703 186 703 C221 703 244 660 244 595 C244 530 221 487 186 487 L186 487 Z M583 -10 C676 -10 737 64 737 175 C737 286 676 360 583 360 C492 360 431 286 431 175 C431 64 492 -10 583 -10 L583 -10 Z M937 -10 C1029 -10 1090 64 1090 175 C1090 286 1029 360 937 360 C845 360 784 286 784 175 C784 64 845 -10 937 -10 L937 -10 Z M583 67 C548 67 525 110 525 175 C525 240 548 283 583 283 C618 283 641 240 641 175 C641 110 618 67 583 67 L583 67 Z M938 67 C902 67 879 110 879 175 C879 240 902 283 938 283 C972 283 996 240 996 175 C996 110 972 67 938 67 L938 67 Z " />
<glyph glyph-name="guilsinglleft" unicode="&#x2039;" horiz-adv-x="342" d="M286 101 L172 260 L286 419 L154 419 L35 260 L154 101 L286 101 Z " />
<glyph glyph-name="guilsinglright" unicode="&#x203a;" horiz-adv-x="342" d="M56 101 L188 101 L307 260 L188 419 L56 419 L170 260 L56 101 Z " />
<glyph glyph-name="fraction" unicode="&#x2044;" horiz-adv-x="178" d="M-218 0 L-117 0 L397 770 L296 770 L-218 0 Z " />
<glyph glyph-name="Euro" unicode="&#x20ac;" horiz-adv-x="703" d="M619 169 C574 128 504 101 446 101 C344 101 271 178 248 300 L435 300 L462 349 L242 349 C241 361 241 373 241 385 C241 398 241 411 242 423 L499 423 L526 472 L249 472 C272 593 345 669 446 669 C502 669 565 649 603 620 L660 719 C604 756 516 780 440 780 C261 780 134 659 104 471 L29 471 L29 423 L99 423 C98 411 98 398 98 385 C98 372 98 360 99 348 L29 348 L29 300 L104 300 C133 111 261 -10 440 -10 C519 -10 614 25 677 77 L619 169 Z " />
<glyph glyph-name="trademark" unicode="&#x2122;" horiz-adv-x="713" d="M33 709 L115 709 L115 482 L194 482 L194 709 L276 709 L276 770 L33 770 L33 709 Z M536 770 L471 577 L470 577 L410 770 L302 770 L302 482 L377 482 L375 675 L376 675 L439 482 L498 482 L566 675 L567 675 L564 482 L643 482 L643 770 L536 770 Z " />
<glyph glyph-name="oneeighth" unicode="&#x215b;" horiz-adv-x="887" d="M126 338 L222 338 L222 770 L157 770 C139 721 106 701 35 701 L35 638 L126 638 L126 338 Z M589 770 L75 0 L176 0 L690 770 L589 770 Z M770 226 L770 227 C813 244 839 276 839 318 C839 390 776 438 683 438 C589 438 527 390 527 318 C527 276 553 244 595 227 L595 226 C544 207 513 171 513 123 C513 46 580 -6 683 -6 C785 -6 853 46 853 123 C853 171 822 207 770 226 L770 226 Z M683 362 C717 362 740 341 740 310 C740 279 717 258 683 258 C648 258 625 279 625 310 C625 341 648 362 683 362 L683 362 Z M683 70 C640 70 611 94 611 131 C611 168 640 192 683 192 C725 192 754 168 754 131 C754 94 725 70 683 70 L683 70 Z " />
<glyph glyph-name="threeeighths" unicode="&#x215c;" horiz-adv-x="1003" d="M362 460 C362 509 332 544 277 560 L277 561 C324 578 350 610 350 653 C350 730 293 776 195 776 C105 776 48 725 41 637 L131 637 C134 677 157 701 193 701 C230 701 251 681 251 647 C251 612 227 591 187 591 L178 591 L178 526 L189 526 C235 526 263 504 263 467 C263 429 238 407 194 407 C152 407 126 432 124 472 L32 472 C39 384 98 332 193 332 C300 332 362 380 362 460 L362 460 Z M706 770 L192 0 L293 0 L807 770 L706 770 Z M888 226 L888 227 C931 244 957 276 957 318 C957 390 894 438 801 438 C707 438 645 390 645 318 C645 276 671 244 713 227 L713 226 C662 207 631 171 631 123 C631 46 698 -6 801 -6 C903 -6 971 46 971 123 C971 171 940 207 888 226 L888 226 Z M801 362 C835 362 858 341 858 310 C858 279 835 258 801 258 C766 258 743 279 743 310 C743 341 766 362 801 362 L801 362 Z M801 70 C758 70 729 94 729 131 C729 168 758 192 801 192 C843 192 872 168 872 131 C872 94 843 70 801 70 L801 70 Z " />
<glyph glyph-name="fiveeighths" unicode="&#x215d;" horiz-adv-x="1007" d="M370 481 C370 571 320 624 235 624 C196 624 163 611 139 589 L138 590 L155 697 L336 697 L336 770 L71 770 L35 505 L129 505 C139 535 164 555 199 555 C244 555 271 527 271 481 C271 435 243 408 197 408 C159 408 132 426 126 458 L32 458 C42 378 103 332 198 332 C305 332 370 388 370 481 L370 481 Z M710 770 L196 0 L297 0 L811 770 L710 770 Z M891 226 L891 227 C934 244 960 276 960 318 C960 390 897 438 804 438 C710 438 648 390 648 318 C648 276 674 244 716 227 L716 226 C665 207 634 171 634 123 C634 46 701 -6 804 -6 C906 -6 974 46 974 123 C974 171 943 207 891 226 L891 226 Z M804 362 C838 362 861 341 861 310 C861 279 838 258 804 258 C769 258 746 279 746 310 C746 341 769 362 804 362 L804 362 Z M804 70 C761 70 732 94 732 131 C732 168 761 192 804 192 C846 192 875 168 875 131 C875 94 846 70 804 70 L804 70 Z " />
<glyph glyph-name="seveneighths" unicode="&#x215e;" horiz-adv-x="938" d="M114 338 L213 338 C213 472 263 604 348 692 L348 770 L28 770 L28 697 L267 697 L267 696 C171 603 114 470 114 338 L114 338 Z M636 770 L122 0 L223 0 L737 770 L636 770 Z M817 226 L817 227 C860 244 886 276 886 318 C886 390 823 438 730 438 C636 438 574 390 574 318 C574 276 600 244 642 227 L642 226 C591 207 560 171 560 123 C560 46 627 -6 730 -6 C832 -6 900 46 900 123 C900 171 869 207 817 226 L817 226 Z M730 362 C764 362 787 341 787 310 C787 279 764 258 730 258 C695 258 672 279 672 310 C672 341 695 362 730 362 L730 362 Z M730 70 C687 70 658 94 658 131 C658 168 687 192 730 192 C772 192 801 168 801 131 C801 94 772 70 730 70 L730 70 Z " />
<glyph glyph-name="partialdiff" unicode="&#x2202;" horiz-adv-x="674" d="M326 750 C229 750 126 697 67 619 L156 552 C191 605 257 640 319 640 C402 640 464 571 485 460 C210 451 28 349 28 201 C28 74 132 -10 287 -10 C495 -10 633 143 633 372 C633 599 510 750 326 750 L326 750 Z M288 100 C218 100 171 140 171 198 C171 288 298 349 493 351 C486 200 406 100 288 100 L288 100 Z " />
<glyph glyph-name="emptyset" unicode="&#x2205;" horiz-adv-x="612" d="M513 418 L556 460 L517 498 L475 456 C431 491 374 510 307 510 C150 510 46 406 46 251 C46 184 65 127 99 84 L55 40 L95 2 L138 45 C182 10 239 -9 307 -9 C462 -9 566 95 566 251 C566 317 547 374 513 418 L513 418 Z M109 251 C109 375 188 458 307 458 C357 458 401 443 434 415 L142 127 C121 160 109 203 109 251 L109 251 Z M307 42 C256 42 212 58 179 85 L470 374 C491 341 503 299 503 251 C503 126 424 42 307 42 L307 42 Z " />
<glyph glyph-name="product" unicode="&#x220f;" horiz-adv-x="867" d="M842 770 L25 770 L25 649 L159 649 L159 -230 L291 -230 L291 649 L576 649 L576 -230 L708 -230 L708 649 L842 649 L842 770 Z " />
<glyph glyph-name="summation" unicode="&#x2211;" horiz-adv-x="680" d="M30 -230 L647 -230 L647 -123 L186 -123 L460 273 L197 663 L637 663 L637 770 L41 770 L41 685 L309 273 L30 -145 L30 -230 Z " />
<glyph glyph-name="minus" unicode="&#x2212;" horiz-adv-x="535" d="M62 202 L473 202 L473 302 L62 302 L62 202 Z " />
<glyph glyph-name="radical" unicode="&#x221a;" horiz-adv-x="687" d="M558 770 L316 50 L244 295 L4 295 L4 188 L137 188 L245 -110 L388 -110 L705 770 L558 770 Z " />
<glyph glyph-name="infinity" unicode="&#x221e;" horiz-adv-x="813" d="M573 449 C496 449 436 411 407 349 C377 411 318 449 241 449 C123 449 44 370 44 251 C44 132 123 53 241 53 C318 53 377 91 407 153 C436 91 496 53 573 53 C691 53 769 132 769 251 C769 370 691 449 573 449 L573 449 Z M262 158 C212 158 179 195 179 251 C179 307 212 344 262 344 C313 344 346 307 346 251 C346 195 313 158 262 158 L262 158 Z M552 158 C501 158 468 195 468 251 C468 307 501 344 552 344 C602 344 635 307 635 251 C635 195 602 158 552 158 L552 158 Z " />
<glyph glyph-name="integral" unicode="&#x222b;" horiz-adv-x="476" d="M107 -240 C225 -240 304 -156 304 -30 L304 576 C304 635 340 675 396 675 C419 675 449 667 470 656 L498 750 C467 768 416 780 368 780 C250 780 172 696 172 570 L172 -36 C172 -95 135 -135 80 -135 C56 -135 27 -127 5 -116 L-23 -210 C8 -228 60 -240 107 -240 L107 -240 Z " />
<glyph glyph-name="approxequal" unicode="&#x2248;" horiz-adv-x="612" d="M57 262 L116 262 C120 297 141 318 175 318 C259 318 302 266 410 266 C499 266 552 324 553 421 L495 421 C491 387 469 366 435 366 C352 366 309 417 200 417 C112 417 58 360 57 262 L57 262 Z M57 74 L116 74 C120 109 141 130 175 130 C259 130 302 78 410 78 C499 78 552 136 553 233 L495 233 C491 199 469 178 435 178 C352 178 309 229 200 229 C112 229 58 172 57 74 L57 74 Z " />
<glyph glyph-name="notequal" unicode="&#x2260;" horiz-adv-x="536" d="M473 288 L473 388 L335 388 L368 502 L314 502 L281 388 L62 388 L62 288 L252 288 L231 216 L62 216 L62 116 L202 116 L168 0 L221 0 L255 116 L473 116 L473 216 L284 216 L305 288 L473 288 Z " />
<glyph glyph-name="lessequal" unicode="&#x2264;" horiz-adv-x="529" d="M466 507 L55 375 L55 282 L466 149 L466 250 L189 328 L466 408 L466 507 Z M55 0 L466 0 L466 100 L55 100 L55 0 Z " />
<glyph glyph-name="greaterequal" unicode="&#x2265;" horiz-adv-x="529" d="M63 507 L63 408 L340 328 L63 250 L63 149 L474 282 L474 375 L63 507 Z M63 0 L474 0 L474 100 L63 100 L63 0 Z " />
<glyph glyph-name="lozenge" unicode="&#x25ca;" horiz-adv-x="512" d="M256 -27 L483 251 L256 529 L29 251 L256 -27 Z M256 124 L159 251 L256 379 L353 251 L256 124 Z " />
<glyph glyph-name="uniF8FF" unicode="&#xf8ff;" horiz-adv-x="1274" d="M76 -10 C82 -10 87 -9 93 -3 L433 337 L433 13 C433 3 434 -10 453 -10 C459 -10 464 -9 470 -3 L809 337 L809 13 C809 3 810 -10 829 -10 C835 -10 840 -9 846 -3 L1214 369 C1219 373 1220 379 1220 383 C1220 393 1213 402 1203 402 C1197 402 1191 399 1187 394 L847 56 L847 380 C847 389 846 402 829 402 C823 402 817 400 812 394 L473 56 L473 383 C473 394 464 403 453 403 L123 403 L464 743 C470 748 472 754 472 760 C472 779 459 780 449 780 L79 780 C67 780 59 773 59 761 L59 760 C59 748 67 741 79 741 L406 741 L66 399 C62 394 59 390 59 383 C59 366 72 364 82 364 L406 364 L64 23 C60 19 59 13 59 8 C59 -2 66 -10 76 -10 L76 -10 Z " />
<glyph glyph-name="fi" unicode="&#xfb01;" horiz-adv-x="683" d="M611 522 L238 522 L238 584 C238 643 276 682 333 682 C354 682 380 679 399 673 L399 770 C377 776 341 780 308 780 C187 780 106 699 106 576 L106 522 L25 522 L25 429 L106 429 L106 0 L238 0 L238 429 L479 429 L479 0 L611 0 L611 522 Z M544 618 C590 618 620 647 620 690 C620 733 590 762 544 762 C498 762 467 733 467 690 C467 647 498 618 544 618 L544 618 Z " />
<glyph glyph-name="fl" unicode="&#xfb02;" horiz-adv-x="682" d="M478 770 L478 522 L238 522 L238 580 C238 641 277 682 336 682 C356 682 379 678 396 672 L396 767 C374 775 339 780 311 780 C188 780 106 697 106 572 L106 522 L24 522 L24 429 L106 429 L106 0 L238 0 L238 429 L478 429 L478 0 L610 0 L610 770 L478 770 Z " />
</font>
</svg>
